<svg width="40" height="40" viewBox="0 0 40 40" fill="none" xmlns="http://www.w3.org/2000/svg">
<path d="M37.1213 0.0104126C37.8072 0.32277 38.0287 0.853779 37.9971 1.58261C37.9549 2.62381 37.9865 3.665 37.9865 4.70619C37.9865 5.55997 37.5117 6.01809 36.6359 6.0285C35.9606 6.0285 35.222 5.87232 34.6416 6.10139C34.0824 6.33045 33.6814 6.96558 33.2171 7.4237C32.7634 7.861 32.3097 8.28789 31.7504 8.82931C31.9614 8.97508 32.1303 9.06878 32.2674 9.20414C32.9111 9.82885 32.9111 10.4848 32.278 11.1095C31.571 11.8071 30.8641 12.5047 30.1571 13.2127C30.0621 13.3064 29.9777 13.4001 29.8722 13.5147C30.7269 14.5559 30.8008 15.7636 30.8008 17.0235C30.7796 23.2082 30.7902 29.3824 30.7902 35.5671C30.7902 37.712 29.4712 39.3987 27.4347 39.8777C27.0654 39.961 26.675 39.9922 26.2951 39.9922C19.0249 40.0026 11.7653 40.0026 4.49507 39.9922C1.88878 39.9922 0 38.1285 0 35.5567C0 26.8003 0 18.0439 0 9.27702C0 6.70528 1.88877 4.84154 4.48452 4.84154C9.16953 4.84154 13.844 4.85195 18.529 4.83113C19.7847 4.82072 20.977 4.92484 22.0533 5.77862C22.8025 5.02896 23.52 4.30012 24.2481 3.56088C24.3536 3.44635 24.4697 3.33181 24.5857 3.2277C25.0711 2.79039 25.7042 2.77998 26.2002 3.20687C26.4006 3.37346 26.5589 3.5817 26.77 3.81076C26.9071 3.68582 27.0126 3.59211 27.1076 3.49841C28.0678 2.55092 29.0175 1.59303 29.9988 0.655953C30.2521 0.406067 30.5686 0.21865 30.8641 0C32.9533 0.0104119 35.032 0.0104126 37.1213 0.0104126ZM2.37416 22.3856C2.37416 26.7482 2.37416 31.1004 2.37416 35.463C2.37416 36.879 3.16555 37.6495 4.61114 37.6495C11.8075 37.6495 19.0144 37.6495 26.2107 37.6495C27.6247 37.6495 28.416 36.8686 28.416 35.4734C28.416 29.1013 28.416 22.7188 28.4266 16.3467C28.4266 15.6491 28.1945 15.0973 27.688 14.6079C25.4088 12.3798 23.1507 10.1412 20.8926 7.90265C20.3967 7.41329 19.8269 7.18423 19.1304 7.18423C14.2872 7.19464 9.45443 7.19464 4.61114 7.19464C3.16555 7.19464 2.38471 7.96512 2.38471 9.38114C2.37416 13.7125 2.37416 18.0543 2.37416 22.3856ZM35.5913 3.68582C35.5913 3.21728 35.5913 2.80081 35.5913 2.35309C34.2934 2.35309 33.0272 2.3531 31.7504 2.36351C31.6449 2.36351 31.5183 2.47804 31.4339 2.56133C30.9485 3.02987 30.4631 3.51923 29.9777 3.98777C29.4818 4.46672 28.9964 4.95607 28.5321 5.40379C29.1125 5.97644 29.6612 6.51786 30.2204 7.06969C31.1806 6.12221 32.1725 5.1539 33.1538 4.16477C33.4915 3.83159 33.8713 3.65459 34.3462 3.67541C34.7577 3.69623 35.1586 3.68582 35.5913 3.68582ZM28.1628 11.7238C28.7115 11.1824 29.2602 10.6514 29.7456 10.162C28.3 8.7356 26.8227 7.27793 25.3982 5.87232C24.8917 6.3721 24.343 6.91352 23.8154 7.43411C25.261 8.86054 26.7277 10.3078 28.1628 11.7238Z" fill="#02E602"/>
<path d="M39.9896 17.923C39.8548 18.3015 39.7719 18.7116 39.5956 19.0691C38.88 20.5307 37.2209 21.2877 35.6757 20.8987C34.0788 20.4886 32.9795 19.0586 33.0003 17.4183C33.0107 16.7033 33.2699 16.0408 33.6225 15.452C34.2447 14.4426 34.898 13.4437 35.5824 12.4763C36.0594 11.8139 36.9305 11.8559 37.449 12.5184C38.4964 13.8853 39.4815 15.3048 40 16.9766C39.9896 17.2921 39.9896 17.6075 39.9896 17.923ZM36.5676 15.2312C36.5157 15.2312 36.4742 15.2312 36.4224 15.2207C36.1009 15.8095 35.7587 16.3983 35.458 17.0082C35.2091 17.5339 35.3439 18.0386 35.7794 18.3751C36.2046 18.7116 36.7542 18.7116 37.1897 18.3856C37.6149 18.0597 37.7705 17.5339 37.532 17.0292C37.2312 16.4088 36.889 15.8305 36.5676 15.2312Z" fill="#02E602"/>
<path d="M23 21.3593C22.9047 21.5287 22.7882 21.8569 22.5658 22.0898C22.0152 22.6932 21.401 23.2543 20.8397 23.8471C20.7126 23.9847 20.6067 24.207 20.6067 24.387C20.5856 26.4619 20.5856 28.5368 20.6067 30.6223C20.6067 30.8022 20.7126 31.0245 20.8397 31.1622C21.3904 31.7444 21.9728 32.3055 22.5446 32.8771C23.0847 33.4276 23.1271 34.1475 22.64 34.645C22.1422 35.1532 21.4116 35.1108 20.8503 34.5498C20.2785 33.9781 19.7172 33.3959 19.1348 32.8454C19.0077 32.7289 18.7959 32.6336 18.6265 32.6336C16.5403 32.6231 14.4436 32.6231 12.3575 32.6336C12.188 32.6336 11.9762 32.7289 11.8492 32.8454C11.2667 33.3959 10.7055 33.9781 10.1336 34.5498C9.56181 35.1108 8.84172 35.1532 8.34401 34.645C7.84629 34.1369 7.88865 33.4276 8.47108 32.856C9.04292 32.2843 9.61475 31.7232 10.176 31.141C10.2925 31.0245 10.3772 30.8234 10.3772 30.6646C10.3878 28.558 10.3878 26.4619 10.3772 24.3552C10.3772 24.1964 10.2925 23.9953 10.176 23.8788C9.61475 23.286 9.02174 22.7144 8.43931 22.1321C7.88865 21.571 7.85688 20.8724 8.34401 20.3642C8.83113 19.8667 9.55122 19.8878 10.1125 20.4277C10.7055 21.01 11.2879 21.6134 11.8915 22.185C11.9974 22.2909 12.188 22.365 12.3363 22.3756C14.4542 22.3862 16.5721 22.3862 18.69 22.3756C18.8489 22.3756 19.0395 22.2803 19.156 22.1639C19.7702 21.5816 20.3526 20.9676 20.9562 20.3748C21.3586 19.9831 21.8457 19.8984 22.3011 20.1207C22.7353 20.3325 22.9471 20.703 23 21.3593ZM18.2135 24.7998C16.3709 24.7998 14.5707 24.7998 12.7705 24.7998C12.7705 26.6207 12.7705 28.4203 12.7705 30.2094C14.6025 30.2094 16.4027 30.2094 18.2135 30.2094C18.2135 28.3992 18.2135 26.6207 18.2135 24.7998Z" fill="#02E602"/>
<path d="M16.026 16.9895C13.5228 16.9895 11.0196 17 8.51643 16.9895C6.51388 16.9791 4.94806 15.3453 5.00132 13.3764C5.05458 11.5646 6.58845 10.0251 8.44187 10.0146C11.9676 9.99365 15.4934 9.99365 19.0298 10.0251C19.3387 10.0251 19.7222 10.1822 19.9459 10.4021C21.5224 11.9102 23.0669 13.4392 24.6221 14.9683C24.9949 15.3348 25.1014 15.7851 24.899 16.2669C24.6966 16.7696 24.2812 17 23.738 17C21.1602 16.9895 18.5931 16.9895 16.026 16.9895ZM20.7874 14.6331C20.8087 14.6017 20.83 14.5808 20.8513 14.5493C20.1696 13.8896 19.4985 13.2193 18.8061 12.5805C18.6677 12.4548 18.444 12.3605 18.2522 12.3605C16.6012 12.3396 14.9502 12.35 13.2991 12.35C11.7546 12.35 10.2101 12.35 8.66556 12.35C8.12231 12.35 7.70689 12.5595 7.49385 13.0622C7.153 13.8372 7.73885 14.6331 8.64426 14.6331C10.732 14.6436 12.8198 14.6331 14.9182 14.6331C16.8675 14.6331 18.8274 14.6331 20.7874 14.6331Z" fill="#02E602"/>
</svg>
