<svg width="40" height="33" viewBox="0 0 40 33" fill="none" xmlns="http://www.w3.org/2000/svg">
<path d="M0.0152448 11.3259C0.0387653 11.1112 0.0858063 10.9064 0.172048 10.7113C0.532696 9.86249 1.42648 9.54054 2.18697 9.7259C2.94747 9.91126 3.5982 10.4771 4.23326 11.043C5.03295 11.7551 5.83265 12.4576 6.63235 13.1698C6.85971 13.3746 7.10276 13.5795 7.37716 13.6283C7.69861 13.6868 8.02006 13.5112 8.31798 13.3454C10.1918 12.282 12.0577 11.2186 13.9315 10.1552C12.1361 8.80884 10.3486 7.45276 8.55319 6.10644C8.17686 5.82352 7.77701 5.50157 7.59669 5.00402C7.36149 4.35037 7.58885 3.56013 7.97302 3.04307C8.96872 1.7065 10.6857 1.88211 12.1205 2.23333C14.7704 2.88697 17.3891 3.80403 19.9214 4.97475C20.5643 5.27718 21.2307 5.58938 21.9207 5.5406C22.493 5.49182 23.0183 5.18938 23.5436 4.8967C24.8529 4.14549 26.1622 3.39428 27.4715 2.64307C29.3845 1.55041 31.3289 0.438226 33.4144 0.0967678C35.4999 -0.244691 37.7813 0.291888 39.2945 2.11625C39.6395 2.526 39.9452 3.03331 39.9923 3.62843C40.0942 4.81865 39.1691 5.7162 38.338 6.33083C35.8997 8.14544 33.383 9.79419 30.8114 11.2869C29.949 11.7844 29.0474 12.2917 28.428 13.1893C28.0125 13.7844 27.7459 14.5161 27.4872 15.2283C26.1701 18.8575 24.8607 22.4867 23.5436 26.1159C23.0261 27.55 22.5009 28.9939 21.7325 30.2427C20.9642 31.4914 19.9293 32.5451 18.7062 32.9158C18.4004 33.0134 18.0633 33.0524 17.7732 32.8866C17.1068 32.4963 17.1382 31.3158 17.2715 30.4183C17.8752 26.3013 18.4867 22.194 19.0904 18.077C15.5623 19.9794 11.995 21.8916 8.20038 22.633C7.22036 22.8282 6.20114 22.9257 5.21328 22.7111C4.73503 22.6135 4.23326 22.4379 3.80989 22.1452C3.39436 21.8623 3.23755 21.4233 2.99451 20.8965C1.87336 18.4575 0.948225 15.8722 0.25045 13.199C0.0936465 12.6137 -0.0474766 11.9503 0.0152448 11.3259ZM18.9571 30.4768C19.9058 30.0768 20.4389 29.1695 20.8231 28.1744C21.9677 25.2379 23.0497 22.2623 24.163 19.3063C24.4923 18.4282 24.8215 17.5502 25.1508 16.6624C25.8094 14.8868 26.4601 13.1015 27.1109 11.3259C27.1422 11.2381 27.2128 11.1405 27.2912 11.1015C28.7024 10.2625 30.1293 9.46249 31.517 8.58445C33.1164 7.56983 34.6923 6.51619 36.2604 5.43328C36.9346 4.96499 37.554 4.37963 38.2518 3.80403C38.0401 3.5894 37.8989 3.42355 37.7421 3.28697C36.2996 2.00894 34.6766 1.94065 33.0067 2.26259C31.7131 2.51625 30.5684 3.27721 29.3924 3.92111C28.0439 4.6528 26.711 5.43328 25.3704 6.17473C23.3241 7.30642 21.2778 8.4186 19.2315 9.5503C17.8752 10.3015 16.5345 11.082 15.1781 11.8332C12.9045 13.0917 10.6073 14.3112 8.34151 15.599C7.48693 16.0868 6.71859 15.9307 6.01297 15.3161C4.84479 14.3014 3.73149 13.2088 2.58682 12.1551C2.27322 11.8625 1.92825 11.7454 1.53624 11.9893C1.58328 12.1649 1.61464 12.321 1.66952 12.4673C2.49274 14.7502 3.35516 17.0038 4.11565 19.316C4.46846 20.3989 5.10352 20.7209 5.90321 20.7404C6.68723 20.7599 7.48693 20.7111 8.25526 20.5453C10.4505 20.0575 12.5517 19.1794 14.6058 18.1258C16.5188 17.1404 18.4004 16.0673 20.2978 15.0429C20.6427 14.8575 20.9877 14.6917 21.364 14.4966C20.5643 19.8526 19.7646 25.1403 18.9571 30.4768ZM9.62729 4.38939C9.83898 4.565 10.0193 4.71134 10.1996 4.84792C12.0107 6.22351 13.8218 7.5991 15.6407 8.95518C15.7426 9.03323 15.9308 9.03323 16.0406 8.97469C16.7148 8.62348 17.3734 8.25275 18.0398 7.88203C18.5416 7.60886 19.0512 7.33569 19.6392 7.01375C18.7925 6.6918 18.0555 6.39912 17.3107 6.1162C15.6015 5.4723 13.9002 4.79914 12.1832 4.21378C11.36 3.93086 10.4897 3.87232 9.62729 4.38939Z" fill="#02E602"/>
</svg>
