<svg width="927" height="200" viewBox="0 0 927 200" fill="none" xmlns="http://www.w3.org/2000/svg">
<path d="M857 15C855.897 15 855 15.8973 855 17C855 18.1027 855.897 19 857 19C858.103 19 859 18.1027 859 17C859 15.8973 858.103 15 857 15ZM857 17.6667C856.632 17.6667 856.333 17.3673 856.333 17C856.333 16.6327 856.632 16.3333 857 16.3333C857.368 16.3333 857.667 16.6327 857.667 17C857.667 17.3673 857.368 17.6667 857 17.6667Z" fill="#02E602"/>
<path d="M915 19C916.103 19 917 18.1027 917 17C917 15.8973 916.103 15 915 15C913.897 15 913 15.8973 913 17C913 18.1027 913.897 19 915 19ZM915 16.3333C915.368 16.3333 915.667 16.6327 915.667 17C915.667 17.3673 915.368 17.6667 915 17.6667C914.632 17.6667 914.333 17.3673 914.333 17C914.333 16.6327 914.632 16.3333 915 16.3333Z" fill="#02E602"/>
<path d="M859 67C859 65.8973 858.103 65 857 65C855.897 65 855 65.8973 855 67C855 68.1027 855.897 69 857 69C858.103 69 859 68.1027 859 67ZM856.333 67C856.333 66.6327 856.632 66.3333 857 66.3333C857.368 66.3333 857.667 66.6327 857.667 67C857.667 67.3673 857.368 67.6667 857 67.6667C856.632 67.6667 856.333 67.3673 856.333 67Z" fill="#02E602"/>
<path d="M915 65C913.897 65 913 65.8973 913 67C913 68.1027 913.897 69 915 69C916.103 69 917 68.1027 917 67C917 65.8973 916.103 65 915 65ZM915 67.6667C914.632 67.6667 914.333 67.3673 914.333 67C914.333 66.6327 914.632 66.3333 915 66.3333C915.368 66.3333 915.667 66.6327 915.667 67C915.667 67.3673 915.368 67.6667 915 67.6667Z" fill="#02E602"/>
<path d="M899.35 33.7358L913.703 20.8709C914.196 21.0544 914.727 21.1598 915.284 21.1598C915.297 21.1598 915.309 21.1578 915.321 21.1578L923.281 31.3847C923.801 31.9534 924.489 32.2547 925.14 32.2547C925.54 32.2547 925.926 32.1409 926.251 31.9053C926.621 31.6365 927.718 30.5615 926.278 28.0191L923.676 23.464C922.97 22.0519 922.231 20.6626 921.617 20.0731L919.595 18.0512C919.746 17.5983 919.832 17.1155 919.832 16.6118C919.832 14.1046 917.792 12.0645 915.284 12.0645C915.058 12.0645 914.837 12.0866 914.62 12.1185L906.644 1.87083C905.803 0.953301 904.526 0.729449 903.673 1.3496C903.303 1.61835 902.206 2.69335 903.646 5.23576L906.246 9.78697C906.918 11.1327 907.69 12.5897 908.307 13.1818L910.827 15.7015C910.767 15.9962 910.736 16.3014 910.736 16.6131C910.736 16.6704 910.742 16.7257 910.744 16.7817L899.291 23.7204C898.302 20.2429 895.438 17.5469 891.858 16.8175V16.6209C891.858 16.578 891.854 16.5357 891.845 16.4934C891.554 15.0358 890.22 14.018 888.604 14.018H883.396C881.779 14.018 880.446 15.0358 880.155 16.4934C880.146 16.5357 880.142 16.578 880.142 16.6209V16.8175C876.567 17.5463 873.705 20.2377 872.713 23.723L861.868 17.1519C861.887 16.9801 861.9 16.8064 861.9 16.6287C861.9 16.1316 861.817 15.654 861.668 15.2056L863.684 13.1909C864.31 12.5897 865.082 11.1327 865.751 9.79022L868.356 5.23315C869.794 2.69335 868.698 1.61835 868.327 1.3496C867.473 0.728148 866.196 0.953301 865.323 1.91053L857.408 12.0847C857.389 12.0847 857.371 12.0821 857.351 12.0821C854.843 12.0821 852.803 14.1221 852.803 16.6294C852.803 16.9483 852.837 17.2587 852.9 17.5593L850.393 20.0653C849.769 20.6639 849.03 22.0539 848.326 23.466L845.721 28.023C844.282 30.5628 845.379 31.6378 845.749 31.9066C846.071 32.1402 846.453 32.2541 846.85 32.2541C847.508 32.2541 848.209 31.9424 848.753 31.3457L856.705 21.1253C856.917 21.1552 857.131 21.1761 857.351 21.1761C857.739 21.1761 858.114 21.122 858.474 21.0303L872.65 33.7358L873.342 49.6429L858.474 62.9686C858.114 62.8768 857.739 62.8228 857.351 62.8228C857.131 62.8228 856.916 62.8436 856.704 62.8742L848.72 52.6141C847.88 51.696 846.603 51.4734 845.749 52.0929C845.379 52.3617 844.282 53.4367 845.722 55.9791L848.324 60.5329C849.029 61.945 849.768 63.3349 850.383 63.9251L852.9 66.4409C852.837 66.7408 852.803 67.0519 852.803 67.3708C852.803 69.878 854.844 71.9181 857.351 71.9181C857.37 71.9181 857.389 71.9155 857.408 71.9155L865.357 82.1293C865.877 82.6981 866.565 83 867.217 83C867.616 83 868.002 82.8861 868.327 82.6506C868.698 82.3811 869.794 81.3068 868.355 78.7644L865.754 74.2132C865.082 72.8675 864.31 71.4105 863.693 70.8183L861.668 68.7939C861.817 68.3456 861.9 67.8679 861.9 67.3708C861.9 67.1937 861.887 67.02 861.868 66.8476L874.355 59.2809C875.436 61.3808 877.621 62.8228 880.142 62.8228H891.858C894.381 62.8228 896.569 61.3769 897.649 59.2828L910.118 66.8378C910.098 67.0128 910.084 67.1892 910.084 67.3695C910.084 67.8712 910.169 68.3527 910.32 68.8043L908.316 70.8073C907.689 71.4085 906.918 72.8655 906.249 74.208L903.644 78.765C902.205 81.3048 903.302 82.3799 903.672 82.6486C903.994 82.8822 904.376 82.9961 904.773 82.9961C905.431 82.9961 906.132 82.6844 906.676 82.0877L914.592 71.9142C914.605 71.9142 914.618 71.9161 914.632 71.9161C917.141 71.9161 919.181 69.8761 919.181 67.3688C919.181 66.8703 919.097 66.3914 918.948 65.9424L920.949 63.9421C921.573 63.3434 922.312 61.9534 923.016 60.5413L925.621 55.9843C927.06 53.4445 925.963 52.3695 925.593 52.1007C924.739 51.4793 923.462 51.7044 922.589 52.6616L914.682 62.8247C914.665 62.8247 914.649 62.8221 914.633 62.8221C914.249 62.8221 913.878 62.8749 913.522 62.9647L898.658 49.6436L899.35 33.7358ZM920.706 21.0036C921.254 21.5294 922.167 23.3579 922.511 24.0464C922.516 24.0575 922.537 24.1004 922.544 24.1108L925.146 28.664C925.821 29.8561 925.804 30.6227 925.485 30.8537C925.214 31.0502 924.65 30.9559 924.273 30.5472L916.772 20.9053C917.663 20.5956 918.426 20.0184 918.968 19.2681L920.706 21.0036ZM918.53 16.6131C918.53 18.4026 917.074 19.859 915.284 19.859C913.493 19.859 912.037 18.4033 912.037 16.6131C912.037 14.823 913.493 13.3673 915.283 13.3673C917.074 13.3673 918.53 14.823 918.53 16.6131ZM909.218 12.2519C908.669 11.7255 907.755 9.89499 907.411 9.20586C907.405 9.1948 907.386 9.15576 907.379 9.14535L904.777 4.59219C904.102 3.40005 904.12 2.63349 904.438 2.40248C904.705 2.20596 905.271 2.29901 905.649 2.70897L913.291 12.5311C912.469 12.9339 911.785 13.5749 911.333 14.3668L909.218 12.2519ZM911.006 18.1443C911.301 18.9649 911.824 19.6755 912.5 20.2013L899.428 31.9164L899.669 26.3819C899.669 25.9368 899.629 25.5021 899.571 25.0726L911.006 18.1443ZM883.396 15.3195H888.604C889.411 15.3195 890.306 15.7346 890.543 16.6535C890.332 16.6392 890.121 16.6209 889.905 16.6209H882.094C881.879 16.6209 881.668 16.6392 881.456 16.6535C881.694 15.7346 882.588 15.3195 883.396 15.3195ZM866.317 2.74867C866.728 2.29966 867.293 2.20661 867.562 2.40248C867.879 2.63284 867.898 3.40005 867.224 4.58958L864.62 9.1447C864.614 9.15511 864.594 9.19415 864.588 9.20521C864.245 9.89434 863.33 11.7255 862.772 12.261L861.046 13.9868C860.506 13.2345 859.744 12.6547 858.855 12.3424L866.317 2.74867ZM847.759 30.5069C847.347 30.9559 846.782 31.0489 846.514 30.8531C846.197 30.6227 846.178 29.8555 846.852 28.666L849.456 24.1108C849.462 24.1004 849.484 24.0575 849.489 24.0464C849.833 23.3579 850.747 21.5294 851.304 20.9945L853.41 18.8887C853.865 19.6787 854.55 20.3177 855.373 20.7173L847.759 30.5069ZM854.105 16.6287C854.105 14.8392 855.561 13.3829 857.351 13.3829C859.141 13.3829 860.598 14.8386 860.598 16.6287C860.598 18.4189 859.141 19.8746 857.351 19.8746C855.561 19.8746 854.105 18.4189 854.105 16.6287ZM859.79 20.4609C860.544 19.9794 861.148 19.2844 861.512 18.4586L872.432 25.0752C872.372 25.5132 872.33 25.9563 872.331 26.4105L872.571 31.9164L859.79 20.4609ZM851.294 62.9952C850.746 62.4688 849.833 60.6396 849.488 59.9511C849.483 59.9401 849.462 59.8984 849.456 59.888L846.853 55.3348C846.178 54.1427 846.197 53.3761 846.514 53.1451C846.782 52.9499 847.347 53.0423 847.726 53.4523L855.373 63.2816C854.549 63.6818 853.864 64.3201 853.409 65.1101L851.294 62.9952ZM854.105 67.3701C854.105 65.5806 855.561 64.1243 857.351 64.1243C859.141 64.1243 860.598 65.5799 860.598 67.3701C860.598 69.1603 859.141 70.6159 857.351 70.6159C855.561 70.6159 854.105 69.1596 854.105 67.3701ZM862.782 71.7469C863.331 72.2734 864.245 74.1039 864.588 74.793C864.594 74.804 864.614 74.8431 864.62 74.8535L867.223 79.4067C867.898 80.5988 867.879 81.3654 867.562 81.5964C867.293 81.7909 866.729 81.6992 866.35 81.2899L858.856 71.6565C859.745 71.3435 860.507 70.7643 861.047 70.0121L862.782 71.7469ZM861.512 65.5402C861.148 64.7145 860.544 64.0195 859.79 63.5379L873.415 51.3257L873.632 56.3155C873.632 56.9168 873.721 57.4972 873.874 58.0503L861.512 65.5402ZM880.935 61.5213L881.423 59.0765C881.635 58.2306 882.465 57.617 883.396 57.617H888.604C889.535 57.617 890.364 58.2306 890.569 59.046L891.064 61.5213H880.935ZM892.386 61.4947L891.838 58.7603C891.485 57.3437 890.123 56.3155 888.604 56.3155H883.396C881.876 56.3155 880.515 57.3436 880.155 58.7909L879.614 61.4947C876.99 61.2292 874.934 59.0063 874.934 56.2875L873.938 33.3994C873.938 33.3987 873.938 33.3974 873.938 33.3968L873.632 26.3819C873.632 25.8535 873.687 25.3375 873.781 24.8358C873.781 24.8351 873.781 24.8351 873.781 24.8345C874.511 20.9073 877.958 17.9224 882.094 17.9224H889.905C894.043 17.9224 897.49 20.9086 898.22 24.8169C898.221 24.8293 898.223 24.8403 898.225 24.8527C898.314 25.3407 898.367 25.8411 898.367 26.3539L897.066 56.3155C897.066 59.0076 895.011 61.2292 892.386 61.4947ZM905.683 81.2502C905.271 81.6992 904.705 81.7916 904.438 81.5964C904.12 81.366 904.101 80.5988 904.776 79.4093L907.379 74.8541C907.386 74.8437 907.405 74.8047 907.411 74.7936C907.755 74.1045 908.669 72.2734 909.227 71.7378L910.944 70.0212C911.487 70.7728 912.25 71.3506 913.141 71.661L905.683 81.2502ZM914.632 70.6159C912.842 70.6159 911.386 69.1603 911.386 67.3701C911.386 65.5799 912.842 64.1243 914.632 64.1243C916.423 64.1243 917.879 65.5799 917.879 67.3701C917.879 69.1603 916.423 70.6159 914.632 70.6159ZM923.582 53.5011C923.994 53.0514 924.559 52.959 924.827 53.1549C925.145 53.3853 925.164 54.1525 924.49 55.342L921.886 59.8971C921.879 59.9075 921.858 59.9505 921.853 59.9615C921.509 60.65 920.595 62.4786 920.038 63.0135L918.325 64.7255C917.784 63.9726 917.021 63.3935 916.13 63.0811L923.582 53.5011ZM912.203 63.5321C911.447 64.0123 910.842 64.7073 910.475 65.5331L898.128 58.0523C898.279 57.5063 898.367 56.9356 898.367 56.3441L898.585 51.3263L912.203 63.5321Z" fill="#02E602"/>
<path d="M891.786 22H880.214C878.442 22 877 23.4953 877 25.3333V30.6667C877 32.5047 878.442 34 880.214 34H891.786C893.558 34 895 32.5047 895 30.6667V25.3333C895 23.4953 893.558 22 891.786 22ZM893.714 30.6667C893.714 31.7693 892.849 32.6667 891.786 32.6667H880.214C879.151 32.6667 878.286 31.7693 878.286 30.6667V25.3333C878.286 24.2307 879.151 23.3333 880.214 23.3333H891.786C892.849 23.3333 893.714 24.2307 893.714 25.3333V30.6667Z" fill="#02E602"/>
<g clip-path="url(#clip0_192_352)">
<path d="M0 131.301C46.0413 120.699 93.5424 116.075 140.707 117.428C176.641 118.443 236.495 116.865 265.243 142.579C280.178 156 288.376 182.729 267.264 194.909C236.495 212.616 213.25 168.18 245.816 150.473C255.361 145.285 266.478 143.819 277.258 142.804C329.364 137.842 379.897 143.932 431.89 147.315C510.722 152.503 588.992 153.518 667.374 142.353C725.207 134.007 781.916 129.27 832 96" stroke="#02E602" stroke-width="2" stroke-miterlimit="10" stroke-dasharray="12 12"/>
</g>
<defs>
<clipPath id="clip0_192_352">
<rect width="833" height="104" fill="white" transform="translate(0 96)"/>
</clipPath>
</defs>
</svg>
