<svg width="49" height="29" viewBox="0 0 49 29" fill="none" xmlns="http://www.w3.org/2000/svg">
<path d="M3.28 0.319999V28H0.8V0.319999H3.28ZM8.88594 0.319999H13.7259C15.4059 0.319999 16.7659 0.853332 17.8059 1.92C18.8459 2.96 19.3659 4.32 19.3659 6V11.56C19.3659 13.24 18.8459 14.6133 17.8059 15.68C16.7659 16.72 15.4059 17.24 13.7259 17.24H11.3659V28H8.88594V0.319999ZM13.6059 15C14.5926 15 15.3793 14.6933 15.9659 14.08C16.5793 13.4667 16.8859 12.5867 16.8859 11.44V6.12C16.8859 4.97333 16.5793 4.09333 15.9659 3.48C15.3793 2.86667 14.5926 2.56 13.6059 2.56H11.3659V15H13.6059ZM28.6078 12.2C29.7811 12.2 30.8345 12.4933 31.7678 13.08C32.7278 13.64 33.4745 14.4533 34.0078 15.52C34.5411 16.56 34.8078 17.7733 34.8078 19.16V21.36C34.8078 22.7467 34.5411 23.9733 34.0078 25.04C33.4745 26.08 32.7278 26.8933 31.7678 27.48C30.8345 28.04 29.7811 28.32 28.6078 28.32C27.4345 28.32 26.3678 28.04 25.4078 27.48C24.4745 26.8933 23.7411 26.08 23.2078 25.04C22.6745 23.9733 22.4078 22.7467 22.4078 21.36V19.16C22.4078 17.9867 22.6478 16.8267 23.1278 15.68L29.4878 0.319999H31.9678L26.8878 12.44C27.3945 12.28 27.9678 12.2 28.6078 12.2ZM32.3278 19.16C32.3278 17.6667 31.9811 16.5067 31.2878 15.68C30.6211 14.8533 29.7278 14.44 28.6078 14.44C27.4878 14.44 26.5811 14.8533 25.8878 15.68C25.2211 16.5067 24.8878 17.6667 24.8878 19.16V21.36C24.8878 22.8533 25.2211 24.0133 25.8878 24.84C26.5811 25.6667 27.4878 26.08 28.6078 26.08C29.7278 26.08 30.6211 25.6667 31.2878 24.84C31.9811 24.0133 32.3278 22.8533 32.3278 21.36V19.16ZM48.3875 2.2L41.3875 28H38.7875L45.6675 2.56H39.1475V6.56H36.6675V0.319999H48.3875V2.2Z" fill="#02E602"/>
</svg>
