<svg width="41" height="28" viewBox="0 0 41 28" fill="none" xmlns="http://www.w3.org/2000/svg">
<path d="M9.8 28L5.44 16.84H3.28V28H0.8V0.319999H5.84C7.52 0.319999 8.88 0.853332 9.92 1.92C10.96 2.96 11.48 4.32 11.48 6V11.16C11.48 12.4667 11.1467 13.6 10.48 14.56C9.84 15.4933 8.96 16.1467 7.84 16.52L12.6 28H9.8ZM3.28 14.6H5.72C6.70667 14.6 7.49333 14.2933 8.08 13.68C8.69333 13.0667 9 12.1867 9 11.04V6.12C9 4.97333 8.69333 4.09333 8.08 3.48C7.49333 2.86667 6.70667 2.56 5.72 2.56H3.28V14.6ZM13.7163 0.319999H25.3963V2.56H20.7963V28H18.3163V2.56H13.7163V0.319999ZM33.6488 14.36H31.2487V28H28.7688V0.319999H31.2487V12.12H33.7288L37.0888 0.319999H39.7688L35.6888 13.2L40.5688 28H37.8088L33.6488 14.36Z" fill="#02E602"/>
</svg>
