<svg width="40" height="26" viewBox="0 0 40 26" fill="none" xmlns="http://www.w3.org/2000/svg">
<path d="M20.0459 9C26.349 9 32.6406 9 38.9437 9C39.8278 9 40 9.1926 40 10.1813C40 15.0604 40 19.9396 40 24.8187C40 25.8074 39.8278 26 38.9437 26C26.3146 26 13.6854 26 1.05626 26C0.172217 26 0 25.8074 0 24.8187C0 19.9396 0 15.0604 0 10.1813C0 9.1926 0.172217 9 1.05626 9C7.38232 9 13.7199 9 20.0459 9ZM1.44661 10.6178C1.44661 15.2273 1.44661 19.7983 1.44661 24.3822C13.8232 24.3822 26.1653 24.3822 38.5304 24.3822C38.5304 19.7727 38.5304 15.2017 38.5304 10.6307C38.0827 10.6307 37.6808 10.6307 37.2331 10.6307C37.2331 10.8489 37.2331 11.0159 37.2331 11.1956C37.2331 11.7606 37.2445 12.3255 37.2216 12.8776C37.2101 13.3656 36.9231 13.6609 36.5098 13.6609C36.1079 13.6609 35.8324 13.3527 35.8094 12.8648C35.7979 12.5566 35.8094 12.2613 35.8094 11.9532C35.8094 11.5166 35.8094 11.0672 35.8094 10.6307C35.3272 10.6307 34.9254 10.6307 34.4776 10.6307C34.4776 10.8361 34.4776 11.0159 34.4776 11.1828C34.4776 12.7364 34.4776 14.29 34.4776 15.8565C34.4776 16.4728 34.1217 16.8195 33.6395 16.7296C33.2606 16.6654 33.054 16.3444 33.054 15.8051C33.054 14.2515 33.054 12.6979 33.054 11.1314C33.054 10.9645 33.0425 10.7976 33.031 10.6178C32.5832 10.6178 32.1699 10.6178 31.7222 10.6178C31.7222 10.8233 31.7222 11.003 31.7222 11.1699C31.7222 11.7477 31.7566 12.3255 31.6992 12.9033C31.6762 13.1473 31.4925 13.4683 31.2974 13.5582C31.1022 13.6609 30.7577 13.6095 30.597 13.4683C30.4248 13.327 30.3329 12.9804 30.31 12.7236C30.2755 12.0302 30.2985 11.324 30.2985 10.605C29.8278 10.605 29.4259 10.605 28.9667 10.605C28.9667 10.8104 28.9667 10.9773 28.9667 11.1571C28.9667 12.7107 28.9667 14.2644 28.9667 15.8308C28.9667 16.4215 28.6797 16.7553 28.2319 16.7424C27.8071 16.7296 27.5545 16.3958 27.5545 15.8308C27.5431 14.2772 27.5545 12.7236 27.5545 11.1571C27.5545 10.9902 27.5545 10.8104 27.5545 10.6307C27.0838 10.6307 26.659 10.6307 26.2112 10.6307C26.2112 11.4139 26.2227 12.1458 26.2112 12.8905C26.1998 13.3784 25.9013 13.6737 25.4879 13.6609C25.0976 13.648 24.8335 13.3527 24.7991 12.8905C24.7876 12.6337 24.7876 12.3769 24.7876 12.1201C24.7876 11.6193 24.7876 11.1057 24.7876 10.6178C24.2939 10.6178 23.8921 10.6178 23.4558 10.6178C23.4558 10.9773 23.4558 11.2983 23.4558 11.6193C23.4558 12.9675 23.4558 14.3157 23.4558 15.6639C23.4558 16.3829 23.2147 16.7424 22.7325 16.7296C22.2732 16.7168 22.0321 16.3829 22.0321 15.6896C22.0321 15.574 22.0321 15.4585 22.0321 15.3557C22.0321 13.9434 22.0321 12.531 22.0321 11.1186C22.0321 10.9517 22.0207 10.7847 22.0092 10.6178C21.5499 10.6178 21.1366 10.6178 20.7233 10.6178C20.7118 10.7847 20.7003 10.9131 20.7003 11.0287C20.7003 11.6579 20.7118 12.287 20.6889 12.9033C20.6774 13.3527 20.3789 13.648 19.9885 13.648C19.5982 13.648 19.3226 13.3656 19.2882 12.9033C19.2767 12.6979 19.2767 12.4924 19.2767 12.2742C19.2767 11.7221 19.2767 11.1699 19.2767 10.605C18.7945 10.605 18.3927 10.605 17.9449 10.605C17.9449 10.8104 17.9449 10.9902 17.9449 11.1571C17.9449 12.7107 17.9449 14.2644 17.9449 15.8308C17.9449 16.4471 17.6005 16.7938 17.1183 16.7168C16.7394 16.6526 16.5327 16.3444 16.5327 15.7923C16.5327 14.2387 16.5327 12.685 16.5327 11.1186C16.5327 10.9517 16.5212 10.7719 16.5098 10.5921C16.062 10.5921 15.6487 10.5921 15.2009 10.5921C15.2009 11.3497 15.2124 12.0559 15.2009 12.7749C15.1894 13.2885 14.9369 13.5967 14.5465 13.6224C14.1102 13.6609 13.8002 13.3399 13.7887 12.8006C13.7773 12.0687 13.7887 11.3369 13.7887 10.5793C13.318 10.5793 12.9162 10.5793 12.4569 10.5793C12.4569 10.7847 12.4569 10.9517 12.4569 11.1186C12.4569 12.6722 12.4569 14.2258 12.4569 15.7923C12.4569 16.3958 12.147 16.7424 11.6877 16.7039C11.2859 16.6654 11.0448 16.3573 11.0448 15.7923C11.0333 14.2387 11.0448 12.685 11.0448 11.1186C11.0448 10.9517 11.0448 10.7719 11.0448 10.5921C10.5741 10.5921 10.1493 10.5921 9.70149 10.5921C9.70149 11.3882 9.71298 12.1458 9.69001 12.8905C9.67853 13.3399 9.36854 13.6224 8.97819 13.6224C8.61079 13.6095 8.33525 13.3399 8.28932 12.9033C8.26636 12.685 8.27784 12.4539 8.27784 12.2357C8.27784 11.6835 8.27784 11.1314 8.27784 10.5921C7.79564 10.5921 7.38232 10.5921 6.94604 10.5921C6.94604 10.8104 6.94604 10.9773 6.94604 11.1571C6.94604 12.7107 6.95752 14.2644 6.94604 15.8308C6.94604 16.4728 6.50976 16.858 6.01608 16.6782C5.6372 16.537 5.52239 16.1903 5.52239 15.7666C5.53387 14.213 5.52239 12.6594 5.52239 11.0929C5.52239 10.926 5.51091 10.7591 5.49943 10.5921C5.04019 10.5921 4.63835 10.5921 4.19059 10.5921C4.19059 11.3497 4.20207 12.0687 4.19059 12.7878C4.1791 13.3784 3.78875 13.7379 3.31803 13.6095C2.92767 13.494 2.77842 13.173 2.77842 12.7364C2.77842 12.0174 2.77842 11.3112 2.77842 10.5665C2.29621 10.6178 1.89437 10.6178 1.44661 10.6178Z" fill="#02E602"/>
<path d="M2.45554 4.85062C2.98336 5.44574 3.43087 5.94829 3.87837 6.46406C4.25703 6.9137 4.29145 7.41625 3.97017 7.7601C3.66035 8.09072 3.24728 8.05104 2.86862 7.62785C2.01951 6.64921 1.15892 5.67057 0.309811 4.6787C-0.10327 4.2026 -0.10327 3.77941 0.309811 3.30331C1.1704 2.31144 2.03098 1.30635 2.89157 0.327711C3.24727 -0.0690356 3.66036 -0.0954838 3.95869 0.221913C4.2685 0.56576 4.25703 1.06831 3.90132 1.4915C3.45382 2.0205 2.98336 2.53627 2.45554 3.13139C14.1824 3.13139 25.7946 3.13139 37.5215 3.13139C37.1314 2.68174 36.7986 2.29822 36.4659 1.9147C36.3167 1.74277 36.156 1.57085 36.0184 1.3857C35.7544 1.04185 35.7544 0.578984 36.0184 0.261586C36.2823 -0.0690356 36.7183 -0.0954829 37.0166 0.235139C37.533 0.803809 38.0379 1.39893 38.5427 1.98082C38.9443 2.43047 39.3345 2.88012 39.7246 3.35621C40.0918 3.79263 40.0918 4.22905 39.7246 4.65225C38.8526 5.67056 37.969 6.68888 37.074 7.7072C36.7298 8.09072 36.2937 8.09072 36.0069 7.74687C35.7315 7.41625 35.743 6.92693 36.0757 6.55663C36.5347 6.01441 37.0166 5.49864 37.4986 4.98287C37.4756 4.9432 37.4641 4.91675 37.4412 4.87707C25.8176 4.85062 14.2054 4.85062 2.45554 4.85062Z" fill="#02E602"/>
</svg>
