<svg width="30" height="26" viewBox="0 0 30 26" fill="none" xmlns="http://www.w3.org/2000/svg">
<path d="M14.986 23.3711C15.1687 24.3167 16.1488 25.0747 17.2701 25.0963C18.8565 25.118 20.4513 25.1252 22.0377 25.0963C23.2919 25.0747 24.3301 24.1435 24.38 23.0535C24.3966 22.6998 24.3966 22.3461 24.38 21.9996C24.3717 21.9202 24.2886 21.8048 24.2056 21.7687C22.345 20.9602 21.4978 19.4227 21.9546 17.6542C22.0128 17.4377 22.0543 17.2139 22.1291 16.9973C22.5527 15.8352 22.4281 14.637 22.3699 13.4532C22.3367 12.7313 22.046 12.0239 21.8716 11.3093C21.2902 8.96335 23.35 6.82673 26.1076 6.92779C26.3568 6.93501 26.5977 6.97831 26.8635 7.00719C26.8635 6.12655 26.8635 5.2387 26.8635 4.32197C26.5561 4.32197 26.2654 4.32919 25.9664 4.32197C25.576 4.31475 25.3933 4.15595 25.3933 3.82391C25.385 3.4269 25.3933 3.02989 25.3933 2.65454C25.1026 2.58957 24.7537 2.60401 24.5793 2.45964C24.4049 2.31528 24.4049 2.01211 24.3135 1.73781C23.8982 1.73781 23.4165 1.73781 22.9181 1.73781C22.9181 1.44186 22.9181 1.17478 22.9181 0.878831C23.3999 0.878831 23.8816 0.878831 24.3966 0.878831C24.3966 0.720028 24.3883 0.58288 24.3966 0.452951C24.4132 0.178654 24.5876 0.00541374 24.9032 0.00541374C25.8917 -0.00180458 26.8718 -0.00180458 27.8602 0.00541374C28.1841 0.00541374 28.3751 0.178654 28.3751 0.474605C28.3834 1.60066 28.3751 2.72672 28.3751 3.86C28.3751 4.14152 28.1924 4.28588 27.8768 4.35806C27.8768 5.32532 27.8768 6.29979 27.8851 7.27427C27.8851 7.33923 27.9764 7.42585 28.0512 7.46916C29.621 8.38589 30.2855 9.78624 29.8868 11.3815C29.7373 11.9734 29.5878 12.5581 29.4549 13.15C29.4051 13.3593 29.3885 13.5759 29.3801 13.7924C29.2888 15.2 29.5297 16.5642 29.8619 17.9429C30.3935 20.1301 28.3834 22.1296 25.8086 22.0935C25.684 22.0935 25.5594 22.0935 25.3933 22.0935C25.3933 22.3822 25.4016 22.6782 25.3933 22.9741C25.3684 24.3961 24.2886 25.5799 22.6856 25.9048C22.3865 25.9625 22.0709 25.9842 21.7636 25.9842C20.3848 25.9914 19.006 25.9914 17.6189 25.9914C15.7003 25.9914 14.3713 25.0602 13.956 23.3928C13.8564 23.3928 13.7401 23.3928 13.6321 23.3928C12.1204 23.3928 10.6004 23.3928 9.08875 23.3928C8.34953 23.3928 7.95084 23.0535 7.95084 22.4111C7.95084 16.1384 7.95084 9.87286 7.95084 3.60014C7.95084 2.94327 8.34122 2.60401 9.10537 2.60401C10.5672 2.60401 12.0291 2.60401 13.4992 2.60401C13.6155 2.60401 13.7235 2.60401 13.873 2.60401C13.7733 2.15647 13.5407 1.80278 13.1919 1.49961C12.7766 1.14591 12.2782 0.914924 11.7051 0.893269C10.8662 0.864396 10.019 0.835523 9.18843 0.900488C7.88439 0.994326 6.97074 1.93993 6.97074 3.10208C6.97074 7.00719 6.97074 10.9123 6.97074 14.8246C6.97074 17.813 6.97074 20.7942 6.97074 23.7826C6.97074 25.0747 5.82452 26.0419 4.37929 25.9986C3.11679 25.9625 2.05363 25.053 1.99549 23.9558C1.98718 23.8403 1.98718 23.7248 1.98718 23.6021C1.98718 17.8852 1.98718 12.1611 1.98718 6.44416C1.98718 6.33588 1.98718 6.22761 1.98718 6.08324C1.68817 6.08324 1.40577 6.08324 1.11506 6.08324C0.691456 6.08324 0.533643 5.95331 0.483807 5.59961C0.325994 4.37972 0.168183 3.15982 0.0103703 1.94714C-0.0477712 1.50683 0.134958 1.32637 0.649926 1.32637C0.749597 1.32637 0.857574 1.32637 0.990469 1.32637C0.990469 0.893269 0.990469 0.474605 0.990469 0.0415054C1.33101 0.0415054 1.63833 0.0415054 1.97887 0.0415054C1.97887 0.460168 1.97887 0.878831 1.97887 1.31193C2.31942 1.31193 2.62674 1.31193 2.96728 1.31193C2.96728 0.900486 2.96728 0.481824 2.96728 0.0487241C3.31613 0.0487241 3.63176 0.0487241 3.9723 0.0487241C3.9723 0.467387 3.9723 0.878832 3.9723 1.32637C4.13842 1.32637 4.27131 1.32637 4.41251 1.32637C4.80289 1.33359 5.01054 1.52126 4.96901 1.86052C4.86934 2.7195 4.75306 3.57848 4.63677 4.44468C4.58694 4.84169 4.5371 5.23148 4.47896 5.62849C4.43743 5.95331 4.26301 6.08324 3.88924 6.09046C3.60684 6.09768 3.33274 6.09768 3.05034 6.09768C3.04204 6.09768 3.03373 6.1049 3.00051 6.11933C3.00051 6.19152 2.98389 6.27814 2.98389 6.36476C2.98389 12.1539 2.98389 17.9502 2.98389 23.7393C2.98389 24.6993 3.89755 25.3417 4.90256 25.0891C5.50059 24.9375 5.94081 24.4611 5.97403 23.9125C5.98234 23.8042 5.97403 23.696 5.97403 23.5877C5.97403 16.7736 5.97403 9.9667 5.97403 3.1526C5.97403 1.64397 7.03719 0.452952 8.67346 0.106472C8.79805 0.0775987 8.91433 0.0487241 9.03892 0.0487241C9.98579 0.0415058 10.9327 -0.0306766 11.8712 0.0631617C13.4909 0.221965 14.5541 1.16035 14.9195 2.62567C15.0192 2.62567 15.1272 2.62567 15.2351 2.62567C16.7468 2.62567 18.2668 2.62567 19.7785 2.62567C20.5343 2.62567 20.9247 2.96493 20.9247 3.62901C20.9247 9.8873 20.9247 16.1528 20.9247 22.4111C20.9247 23.0752 20.5426 23.4072 19.7785 23.4144C18.1671 23.3711 16.589 23.3711 14.986 23.3711ZM8.94755 22.4833C12.6105 22.4833 16.2485 22.4833 19.8699 22.4833C19.8699 16.1312 19.8699 9.79346 19.8699 3.46299C16.2152 3.46299 12.5856 3.46299 8.94755 3.46299C8.94755 9.8079 8.94755 16.1384 8.94755 22.4833ZM28.3419 15.5681C28.3419 14.9762 28.3419 14.4132 28.3419 13.8574C26.6807 13.8574 25.0444 13.8574 23.4082 13.8574C23.4082 14.4348 23.4082 14.9979 23.4082 15.5681C25.0611 15.5681 26.6973 15.5681 28.3419 15.5681ZM3.49886 5.16651C3.63176 4.16317 3.75635 3.16704 3.88094 2.16369C2.91745 2.16369 1.97057 2.16369 1.01539 2.16369C1.14828 3.17426 1.27287 4.16317 1.39746 5.16651C2.10346 5.16651 2.78455 5.16651 3.49886 5.16651ZM26.8718 8.7468C26.8718 8.588 26.8551 8.36423 26.8801 8.1549C26.905 7.95279 26.797 7.89504 26.5977 7.85173C24.9116 7.49803 23.1756 8.45085 22.8268 9.93061C22.5776 10.9917 23.1424 11.959 23.2753 12.9695C23.6324 12.9695 23.9398 12.9695 24.272 12.9695C24.1142 12.2621 23.9564 11.5764 23.7986 10.8906C23.566 9.85843 24.2886 8.87673 25.4847 8.70349C25.9166 8.63131 26.3817 8.72515 26.8718 8.7468ZM25.875 12.9767C25.9498 12.9767 26.0245 12.9695 26.091 12.9767C26.3651 13.0201 26.4897 12.9334 26.5312 12.6808C26.6558 12.0311 26.8302 11.3887 26.9714 10.7463C27.0711 10.306 26.9299 9.93783 26.498 9.67797C26.1159 9.44698 25.6176 9.4542 25.2355 9.67797C24.8036 9.93783 24.6707 10.306 24.7704 10.7463C24.8949 11.3237 25.0361 11.894 25.169 12.4642C25.2936 12.9767 25.2936 12.9767 25.875 12.9767ZM27.4947 16.4488C27.6359 17.0046 27.7771 17.5315 27.91 18.0512C28.1841 19.1484 27.4449 20.1301 26.1907 20.3106C25.9332 20.3466 25.6674 20.3178 25.3933 20.3178C25.3933 20.5993 25.3933 20.8736 25.3933 21.1623C25.4847 21.1768 25.5677 21.1984 25.6508 21.1984C27.1458 21.2995 28.5412 20.4116 28.8735 19.1412C29.1227 18.1956 28.6575 17.3438 28.4831 16.4488C28.1343 16.4488 27.8352 16.4488 27.4947 16.4488ZM25.2687 16.456C25.1026 17.1056 24.9282 17.7408 24.787 18.3833C24.7039 18.7731 24.8866 19.0907 25.2687 19.3072C25.6591 19.531 26.0744 19.531 26.4648 19.3072C26.8468 19.0907 27.0296 18.7658 26.9465 18.3833C26.8053 17.7408 26.6309 17.1056 26.4731 16.456C26.0661 16.456 25.684 16.456 25.2687 16.456ZM24.38 20.8375C24.38 20.4982 24.3883 20.1951 24.3717 19.8919C24.3717 19.8269 24.3301 19.7547 24.2803 19.7042C23.7903 19.1917 23.674 18.6143 23.8567 17.979C23.9979 17.4738 24.1142 16.9685 24.2388 16.456C23.8982 16.456 23.5909 16.456 23.267 16.456C23.1175 17.019 22.9514 17.5676 22.8351 18.1234C22.6191 19.1845 23.2836 20.3683 24.38 20.8375ZM27.8851 8.41476C27.8851 8.94892 27.8103 9.42533 27.9017 9.88008C27.9931 10.3276 28.0014 10.7463 27.8934 11.1866C27.7439 11.7713 27.6276 12.3632 27.4864 12.9551C27.8352 12.9551 28.1509 12.9551 28.4665 12.9551C28.6326 12.2766 28.8153 11.6197 28.9482 10.9556C29.1393 9.9667 28.7821 9.12937 27.8851 8.41476ZM25.3933 1.70172C26.0661 1.70172 26.7056 1.70172 27.3535 1.70172C27.3535 1.41299 27.3535 1.13869 27.3535 0.871613C26.689 0.871613 26.0412 0.871613 25.3933 0.871613C25.3933 1.15313 25.3933 1.42021 25.3933 1.70172ZM27.3618 2.60401C27.013 2.60401 26.6973 2.60401 26.39 2.60401C26.39 2.89274 26.39 3.15982 26.39 3.43412C26.7222 3.43412 27.0379 3.43412 27.3618 3.43412C27.3618 3.14538 27.3618 2.88552 27.3618 2.60401Z" fill="#02E602"/>
<path d="M14.4667 21C13.2 21 11.925 21 10.6583 21C10.1667 21 10 20.8571 10 20.4357C10 18.8143 10 17.1857 10 15.5643C10 15.1429 10.1667 15 10.6583 15C13.2167 15 15.7833 15 18.3417 15C18.8333 15 19 15.1429 19 15.5643C19 17.1857 19 18.8143 19 20.4357C19 20.8571 18.8333 21 18.3417 21C17.05 21 15.7583 21 14.4667 21ZM11.0167 20.1214C13.3583 20.1214 15.675 20.1214 17.975 20.1214C17.975 18.6857 17.975 17.2786 17.975 15.8714C15.6417 15.8714 13.3333 15.8714 11.0167 15.8714C11.0167 17.2929 11.0167 18.7 11.0167 20.1214Z" fill="#02E602"/>
<path d="M12 19C12 18.6552 12 18.3362 12 18C13.6723 18 15.3193 18 17 18C17 18.319 17 18.6466 17 19C15.3445 19 13.6807 19 12 19Z" fill="#02E602"/>
<path d="M12 16C12.6723 16 13.3191 16 14 16C14 16.3276 14 16.6552 14 17C13.3447 17 12.6809 17 12 17C12 16.6724 12 16.3534 12 16Z" fill="#02E602"/>
<path d="M17 16C17 16.3391 17 16.6609 17 17C16.3362 17 15.6809 17 15 17C15 16.6783 15 16.3478 15 16C15.6553 16 16.3106 16 17 16Z" fill="#02E602"/>
</svg>
