<svg width="30" height="28" viewBox="0 0 30 28" fill="none" xmlns="http://www.w3.org/2000/svg">
<path d="M30 26.5388C29.9766 26.5814 29.9531 26.6325 29.9375 26.6751C29.7032 27.4934 29.1096 27.9792 28.3286 27.9962C27.774 28.0047 27.2195 27.9962 26.6571 27.9962C18.378 27.9962 10.0989 27.9962 1.81984 27.9962C0.859153 27.9962 0.195261 27.4507 0.0312414 26.5217C0.00780999 26.3768 0 26.2234 0 26.0785C0 19.797 0 13.507 0 7.22545C0 6.04926 0.679511 5.31628 1.75735 5.31628C2.26504 5.31628 2.7649 5.31628 3.31164 5.31628C3.31164 4.89012 3.31164 4.48101 3.31164 4.08043C3.31164 3.4412 3.38974 3.34744 3.98334 3.25369C3.98334 2.43547 3.98334 1.61726 3.98334 0.799039C3.98334 0.151284 4.11612 0.0149133 4.70971 0.0149133C5.56105 0.0149133 6.40458 0.0149133 7.25592 0.0149133C7.71674 0.0149133 7.87295 0.185377 7.88076 0.688239C7.88076 1.54055 7.88076 2.38433 7.88076 3.22812C8.52122 3.39006 8.55246 3.43267 8.55246 4.12304C8.55246 4.50658 8.55246 4.8816 8.55246 5.28218C12.8482 5.28218 17.1205 5.28218 21.4319 5.28218C21.4319 4.8816 21.4319 4.48953 21.4319 4.106C21.4319 3.43267 21.4944 3.35597 22.1036 3.23664C22.1036 2.84458 22.1036 2.44399 22.1036 2.03489C22.1036 1.55759 22.0958 1.07178 22.1036 0.594485C22.1114 0.1939 22.2833 0.00639232 22.6504 0.00639232C23.5798 -0.00213077 24.5014 -0.00213077 25.4309 0.00639232C25.8214 0.00639232 25.9932 0.202423 25.9932 0.645624C25.9932 1.50646 25.9932 2.36729 25.9932 3.22812C26.6259 3.36449 26.6649 3.42415 26.6649 4.11452C26.6649 4.47249 26.6727 4.83898 26.6727 5.19695C26.6727 5.214 26.6884 5.23957 26.7118 5.29071C27.1258 5.29071 27.5475 5.31628 27.9771 5.28218C28.9612 5.214 29.672 5.63163 29.9844 6.7652C30 13.3706 30 19.9589 30 26.5388ZM0.960689 9.8676C0.960689 14.3934 0.960689 18.8936 0.960689 23.4108C10.3332 23.4108 19.6824 23.4108 29.0471 23.4108C29.0471 18.885 29.0471 14.3848 29.0471 9.8676C19.6824 9.8676 10.3332 9.8676 0.960689 9.8676ZM0.945067 24.4677C0.945067 25.0728 0.937256 25.6524 0.945067 26.2234C0.952877 26.6155 1.20281 26.8967 1.56209 26.9564C1.66363 26.9734 1.77298 26.9734 1.88232 26.9734C10.63 26.9734 19.37 26.9734 28.1177 26.9734C28.227 26.9734 28.3364 26.9734 28.4379 26.9564C28.7503 26.9053 29.0159 26.6751 29.0315 26.3427C29.0627 25.7206 29.0393 25.0984 29.0393 24.4591C19.6746 24.4677 10.3332 24.4677 0.945067 24.4677ZM0.945067 8.81074C10.3332 8.81074 19.6902 8.81074 29.0627 8.81074C29.0627 8.3164 29.0627 7.85615 29.0627 7.38738C29.0627 6.56917 28.8519 6.33905 28.1099 6.33905C19.37 6.33905 10.6379 6.33905 1.89794 6.33905C1.81203 6.33905 1.7183 6.33905 1.63239 6.33905C1.24967 6.36461 0.960688 6.64588 0.952878 7.06351C0.937257 7.63456 0.945067 8.21413 0.945067 8.81074ZM6.92788 3.26221C6.92788 2.51218 6.92788 1.78772 6.92788 1.05473C6.25618 1.05473 5.60791 1.05473 4.95184 1.05473C4.95184 1.80476 4.95184 2.52923 4.95184 3.26221C5.62354 3.26221 6.27181 3.26221 6.92788 3.26221ZM25.0638 1.05473C24.3921 1.05473 23.7438 1.05473 23.0721 1.05473C23.0721 1.79624 23.0721 2.5207 23.0721 3.25369C23.7438 3.25369 24.3999 3.25369 25.0638 3.25369C25.0638 2.5207 25.0638 1.80476 25.0638 1.05473ZM7.6152 4.3276C6.48269 4.3276 5.38922 4.3276 4.27233 4.3276C4.27233 4.66 4.27233 4.96683 4.27233 5.29071C5.39703 5.29071 6.49831 5.29071 7.6152 5.29071C7.6152 4.95831 7.6152 4.66 7.6152 4.3276ZM25.7277 5.29071C25.7277 4.95831 25.7277 4.65147 25.7277 4.3276C24.603 4.3276 23.5017 4.3276 22.4004 4.3276C22.4004 4.66852 22.4004 4.97535 22.4004 5.29071C23.5251 5.29071 24.6186 5.29071 25.7277 5.29071Z" fill="#02E602"/>
<path d="M14.0276 17.7961C13.4711 17.7961 12.9391 17.7961 12.4072 17.7961C12.1453 17.7961 11.8752 17.7961 11.6133 17.7961C11.376 17.8049 11.1632 17.743 11.0486 17.4864C10.9422 17.2475 11.0241 17.0439 11.1632 16.8493C11.5233 16.3538 11.8834 15.8582 12.2435 15.3627C13.2092 14.0266 14.1668 12.6993 15.1325 11.3632C15.1652 11.3189 15.198 11.2747 15.2307 11.2304C15.378 11.0269 15.5744 10.9473 15.8036 11.0358C16.0328 11.1243 16.131 11.3189 16.1228 11.5844C16.0737 12.6197 16.0164 13.6549 15.9591 14.6991C15.9509 14.8053 15.9427 14.9203 15.9345 15.0884C16.0573 15.0884 16.1637 15.0884 16.2619 15.0884C16.9657 15.0884 17.6696 15.0884 18.3816 15.0884C18.6189 15.0884 18.8317 15.1327 18.9463 15.3893C19.0609 15.6459 18.979 15.8494 18.8235 16.0529C17.4077 17.9465 15.9918 19.8312 14.5842 21.7248C14.4123 21.9549 14.2077 22.0699 13.9458 21.9549C13.6921 21.8398 13.6348 21.6009 13.6593 21.3266C13.7739 20.309 13.8803 19.2826 13.9949 18.265C14.0031 18.1058 14.0113 17.973 14.0276 17.7961ZM17.4813 16.1414C16.7939 16.1414 16.1964 16.1414 15.5908 16.1414C15.067 16.1414 14.9115 15.9733 14.9361 15.407C14.9688 14.7079 15.0016 14.0089 15.0425 13.2037C14.1668 14.4159 13.3565 15.5397 12.489 16.7342C13.2174 16.7342 13.864 16.7342 14.5187 16.7342C14.9033 16.7342 15.0834 16.9466 15.067 17.3536C15.0588 17.4864 15.0425 17.6191 15.0261 17.7518C14.9606 18.3624 14.8952 18.9818 14.8297 19.5923C14.8461 19.6012 14.8624 19.61 14.887 19.61C15.7381 18.4774 16.5893 17.3359 17.4813 16.1414Z" fill="#02E602"/>
<path d="M23.0486 15.5471C22.6086 15.5471 22.2065 15.5471 21.8044 15.5471C21.683 15.5471 21.5541 15.5562 21.4327 15.538C21.1596 15.5015 20.9927 15.2827 21.0002 14.9726C21.0078 14.6809 21.1747 14.4711 21.4403 14.462C21.8651 14.4438 22.29 14.4529 22.7148 14.4529C22.8134 14.4529 22.9196 14.4529 23.041 14.4529C23.041 13.8237 23.041 13.2492 23.041 12.6748C23.041 12.2371 23.2079 12 23.4962 12C23.7845 12 23.9514 12.2462 23.9514 12.6748C23.9514 13.2584 23.9514 13.8328 23.9514 14.4529C24.2701 14.4529 24.5735 14.4529 24.877 14.4529C25.0818 14.4529 25.2942 14.4438 25.4991 14.4529C25.795 14.4711 25.9846 14.6717 25.9998 14.9818C26.0074 15.2918 25.8101 15.538 25.4991 15.538C24.9984 15.5471 24.4976 15.538 23.9514 15.538C23.9514 15.921 23.9514 16.2766 23.9514 16.6413C23.9514 16.9058 23.959 17.1611 23.9514 17.4255C23.9362 17.772 23.7466 18 23.4886 18C23.2307 18 23.0486 17.772 23.041 17.4164C23.0334 16.9149 23.041 16.4134 23.041 15.9119C23.0486 15.8024 23.0486 15.693 23.0486 15.5471Z" fill="#02E602"/>
<path d="M6.46212 14.9917C5.82581 14.9917 5.19707 14.9917 4.56076 14.9917C4.20472 14.9917 3.99262 14.8012 4.0002 14.4948C4.00777 14.205 4.2123 14.0062 4.55318 14.0062C5.84853 13.9979 7.14388 13.9979 8.4468 14.0062C8.81041 14.0062 9.00736 14.1967 8.99979 14.5197C8.99221 14.8344 8.80283 15 8.42408 15C7.77262 14.9917 7.11358 14.9917 6.46212 14.9917Z" fill="#02E602"/>
</svg>
