<svg width="30" height="30" viewBox="0 0 30 30" fill="none" xmlns="http://www.w3.org/2000/svg">
<path d="M30 27.4369C29.9219 27.6932 29.8672 27.965 29.7501 28.2058C29.2424 29.2932 28.3754 29.8835 27.1726 29.9922C27.0867 30 27.0008 30 26.9071 30C18.9716 30 11.0362 30 3.10076 30C1.70268 30 0.570165 29.2311 0.16402 27.9728C0.0624842 27.6544 0.00781094 27.3049 0.00781094 26.9709C4.76597e-07 22.2252 0 17.4796 0 12.734C0 11.0175 1.29654 9.73592 3.01484 9.72816C3.48347 9.72816 3.94429 9.72816 4.45197 9.72816C4.45197 9.47184 4.45197 9.2466 4.45197 9.01359C4.4754 7.84078 5.40484 6.93204 6.5686 6.93204C7.71674 6.93204 8.64619 7.84078 8.66962 8.99806C8.67743 9.23107 8.66962 9.46408 8.66962 9.72816C8.95079 9.72816 9.21635 9.72816 9.4741 9.72816C10.2317 9.72816 10.9971 9.72039 11.7548 9.73592C11.9422 9.73592 12.0515 9.68155 12.1453 9.51068C12.7545 8.4699 13.3793 7.44466 13.9807 6.40388C14.1448 6.12427 14.3556 6 14.6915 6C17.3158 6.00777 19.9401 6.00777 22.5722 6C22.8925 6 23.1034 6.12427 23.2596 6.39612C23.8688 7.43689 24.4936 8.46214 25.095 9.50291C25.1966 9.68155 25.3059 9.73592 25.509 9.73592C26.1729 9.73592 26.8446 9.68932 27.4928 9.78253C28.7738 9.96117 29.6798 10.8932 29.9297 12.167C29.9375 12.2136 29.9609 12.2524 29.9844 12.299C30 17.3398 30 22.3883 30 27.4369ZM15.0039 10.8854C11.0518 10.8854 7.09971 10.8854 3.14762 10.8854C1.91357 10.8854 1.17938 11.6155 1.17938 12.835C1.17938 17.5107 1.17938 22.1942 1.17938 26.8699C1.17938 28.0738 1.92919 28.8194 3.12419 28.8194C11.044 28.8194 18.956 28.8194 26.8758 28.8194C28.0786 28.8194 28.8284 28.0738 28.8284 26.8699C28.8284 22.1942 28.8284 17.5107 28.8284 12.835C28.8284 11.6078 28.0942 10.8777 26.868 10.8777C22.9159 10.8854 18.956 10.8854 15.0039 10.8854ZM23.8844 9.71262C23.3845 8.87379 22.9159 8.08155 22.4395 7.28932C22.3926 7.21165 22.252 7.16505 22.1505 7.16505C19.8073 7.15728 17.4642 7.16505 15.1211 7.15728C14.9492 7.15728 14.8633 7.22718 14.7852 7.35922C14.4103 8.00388 14.0276 8.64854 13.6449 9.2932C13.5668 9.42524 13.4887 9.54951 13.4028 9.71262C16.9097 9.71262 20.3697 9.71262 23.8844 9.71262ZM5.63916 9.70486C6.27962 9.70486 6.88102 9.70486 7.49805 9.70486C7.49805 9.42524 7.52148 9.16893 7.49024 8.91262C7.44337 8.4466 7.04504 8.09709 6.57641 8.09709C6.10779 8.08932 5.69383 8.43107 5.63916 8.88932C5.61573 9.1534 5.63916 9.42524 5.63916 9.70486Z" fill="#02E602"/>
<path d="M18.5952 0C18.8936 0.13074 19.0064 0.37043 18.9997 0.726333C18.9865 1.61972 18.9997 2.52037 18.9931 3.41376C18.9931 3.82051 18.7079 4.07473 18.3763 3.9803C18.1376 3.91493 18.005 3.73335 18.005 3.47187C17.9983 2.49132 17.9983 1.51804 18.005 0.537486C18.005 0.254216 18.184 0.10895 18.3962 0C18.4626 0 18.5289 0 18.5952 0Z" fill="#02E602"/>
<path d="M13 1.49403C13.1313 1.33242 13.2281 1.1708 13.3732 1.07242C13.5529 0.945936 13.7603 0.995124 13.9193 1.14269C14.0921 1.29728 14.251 1.47295 14.4169 1.6416C14.8938 2.12646 15.3707 2.60428 15.8407 3.09617C16.0204 3.28589 16.0481 3.54589 15.9237 3.74967C15.7992 3.94642 15.5642 4.05183 15.3431 3.97453C15.2394 3.9394 15.1426 3.86913 15.0666 3.79183C14.4653 3.18752 13.864 2.5832 13.2765 1.96484C13.1728 1.84538 13.1106 1.68376 13 1.49403Z" fill="#02E602"/>
<path d="M21 3.50303C21.104 3.31976 21.1525 3.15763 21.2495 3.05895C21.8524 2.43159 22.4692 1.81129 23.0791 1.19098C23.3216 0.951319 23.6265 0.93722 23.8414 1.14869C24.0562 1.36016 24.0562 1.68441 23.8206 1.92407C23.2038 2.56552 22.5732 3.19288 21.9494 3.82728C21.7762 3.99646 21.5544 4.0599 21.3534 3.93302C21.2218 3.84138 21.1317 3.66516 21 3.50303Z" fill="#02E602"/>
<path d="M18.5064 12.0002C22.4435 12.0002 25.6503 14.9603 25.9757 18.9599C26.2853 22.7929 23.6024 26.1735 19.8717 26.8719C15.1011 27.7607 10.7275 23.9039 11.0133 19.071C11.0609 18.2774 11.2276 17.4997 11.5213 16.7617C11.6959 16.3332 11.9896 16.1586 12.3389 16.3014C12.6802 16.4363 12.7913 16.7617 12.6246 17.1982C11.2355 20.8883 13.339 24.8006 17.1729 25.6736C20.7289 26.483 24.3564 23.9039 24.7533 20.2852C25.1264 16.8807 22.9515 13.9286 19.578 13.2938C18.4429 13.0795 17.3316 13.1985 16.2442 13.6112C16.1013 13.6667 15.9425 13.7223 15.7838 13.7144C15.506 13.7144 15.2837 13.4842 15.244 13.2065C15.2043 12.9287 15.3552 12.6827 15.6568 12.5557C16.5775 12.1907 17.5221 11.9923 18.5064 12.0002Z" fill="#02E602"/>
<path d="M24 20C24 22.748 21.748 25 19 25C16.252 25 14 22.748 14 19.9919C14 17.2358 16.2439 15 19 15C21.7642 15 24 17.2439 24 20ZM19.0163 16.2195C16.9268 16.2114 15.2276 17.9024 15.2195 19.9756C15.2114 22.0569 16.9106 23.7724 18.9837 23.7805C21.065 23.7886 22.7724 22.0894 22.7805 20.0163C22.7886 17.935 21.0976 16.2276 19.0163 16.2195Z" fill="#02E602"/>
<path d="M6.01482 14C6.47408 14 6.94074 14 7.4 14C7.76296 14 8 14.199 8 14.4909C8 14.7695 7.75556 14.9884 7.4 14.995C6.46667 15.0017 5.53333 15.0017 4.6 14.995C4.24444 14.995 4 14.7761 4 14.4975C4 14.199 4.24444 14.0066 4.62222 14C5.08889 14 5.54815 14 6.01482 14Z" fill="#02E602"/>
<path d="M13.5 14C13.7733 14 13.9933 14.2214 14 14.4899C14 14.765 13.76 15.0066 13.4867 14.9999C13.22 14.9932 13 14.7583 13 14.4899C13.0067 14.2147 13.2267 14 13.5 14Z" fill="#02E602"/>
<path d="M20.9991 19.2851C21.0153 19.6888 20.8128 19.9553 20.4563 19.9956C20.1161 20.036 19.8488 19.7938 19.792 19.3982C19.6786 18.6231 19.3546 18.292 18.5931 18.2032C18.2123 18.1548 17.9774 17.9045 18.0017 17.5734C18.0179 17.2263 18.3096 16.9921 18.6903 17.0002C19.9298 17.0406 20.9505 18.0498 20.9991 19.2851Z" fill="#02E602"/>
</svg>
