<svg width="30" height="28" viewBox="0 0 30 28" fill="none" xmlns="http://www.w3.org/2000/svg">
<path d="M29.9609 21.4055C29.7188 22.0634 29.2736 22.4459 28.5238 22.4459C28.4691 22.4459 28.4067 22.5224 28.3754 22.576C28.3208 22.6678 28.3129 22.7749 28.2583 22.8667C28.0474 23.2339 27.9771 23.5246 28.3207 23.9148C28.6878 24.3202 28.5785 24.9781 28.1958 25.3913C27.9146 25.6973 27.6178 25.988 27.3054 26.2634C26.743 26.7454 26.0401 26.6689 25.3606 26.0721C25.0325 26.1945 24.6967 26.3169 24.3765 26.4623C24.3218 26.4852 24.2906 26.6 24.2906 26.6688C24.2359 27.5027 23.7048 28 22.8534 28C22.5488 28 22.252 28 21.9474 28C21.1742 27.9923 20.6274 27.5027 20.5806 26.753C20.565 26.5311 20.5025 26.4164 20.2838 26.3858C20.2682 26.3858 20.2447 26.3705 20.2291 26.3628C19.8073 26.141 19.4559 26.0262 19.0029 26.4164C18.6123 26.753 17.9563 26.6153 17.5501 26.2557C17.2455 25.988 16.9565 25.7049 16.6753 25.4066C16.1989 24.894 16.2067 24.1672 16.691 23.6623C16.8394 23.5093 16.8628 23.3945 16.7535 23.2186C16.6753 23.0885 16.605 22.9432 16.5738 22.7978C16.5113 22.4918 16.3473 22.4153 16.0271 22.4153C14.5353 22.4306 13.0435 22.4229 11.5439 22.4229C11.1455 22.4229 10.8956 22.2164 10.8722 21.8874C10.8487 21.5202 11.0987 21.2678 11.5048 21.2678C12.5202 21.2601 13.5355 21.2678 14.5509 21.2678C14.6446 21.2678 14.7383 21.2678 14.8789 21.2678C14.8789 20.9005 14.8789 20.5639 14.8789 20.2197C14.8867 19.3475 15.3554 18.8579 16.238 18.7738C16.3239 18.7661 16.4176 18.6743 16.4879 18.6055C16.5269 18.5672 16.5269 18.4984 16.5504 18.4448C16.7613 18.047 16.8862 17.7027 16.4957 17.2667C16.1364 16.8689 16.2692 16.2186 16.6519 15.8131C16.9253 15.5148 17.2221 15.2317 17.5189 14.9639C18.0344 14.5049 18.7686 14.5126 19.2997 14.9869C19.4481 15.1169 19.5496 15.1399 19.7292 15.0481C19.987 14.918 20.2603 14.8186 20.5259 14.7115C20.5493 14.5202 20.5571 14.3213 20.6118 14.1454C20.7758 13.6251 21.1351 13.2885 21.6975 13.235C22.1427 13.1891 22.5957 13.1967 23.0409 13.2197C23.7204 13.2579 24.2046 13.7322 24.2515 14.3978C24.2671 14.6503 24.353 14.788 24.603 14.8262C24.6498 14.8339 24.6967 14.8492 24.7357 14.8798C25.1028 15.1016 25.4309 15.1781 25.8058 14.8186C25.9776 14.6503 26.3213 14.6503 26.6337 14.5585C26.6337 12.6918 26.6337 10.7716 26.6337 8.82076C18.1593 8.82076 9.68498 8.82076 1.17938 8.82076C1.17157 8.92022 1.16376 9.01967 1.16376 9.12677C1.16376 12.4699 1.16376 15.8208 1.16376 19.1639C1.16376 19.6765 1.2653 20.1508 1.56209 20.5792C1.88232 21.0306 2.3119 21.2831 2.89768 21.2754C3.99115 21.2678 5.08461 21.2678 6.17808 21.2754C6.54517 21.2754 6.79511 21.4973 6.81073 21.8186C6.82635 22.1169 6.61547 22.4153 6.30305 22.4153C5.00651 22.423 3.70216 22.4842 2.41343 22.377C1.20281 22.2776 0.257746 21.2066 0.0546742 19.929C0.0156219 19.6918 0 19.4546 0 19.2175C0 13.8852 0 8.54535 0 3.21311C0 2.16503 0.343661 1.2623 1.17938 0.573771C1.6402 0.191257 2.18693 0 2.79615 0C10.2161 0 17.636 0 25.056 0C26.3525 0 27.4694 0.956283 27.7584 2.31803C27.8287 2.66229 27.8599 3.02186 27.8599 3.37377C27.8677 7.30601 27.8599 11.2306 27.8677 15.1628C27.8677 15.3005 27.9068 15.4765 28.0005 15.576C28.7347 16.3639 28.7503 16.9224 28.0318 17.741C28.1567 18.0546 28.2817 18.3683 28.4223 18.682C28.4457 18.7279 28.516 18.7891 28.5707 18.7891C29.3049 18.7738 29.7423 19.1639 30 19.7989C29.9609 20.3344 29.9609 20.8699 29.9609 21.4055ZM1.16376 7.61967C9.66155 7.61967 18.1359 7.61967 26.6415 7.61967C26.6415 7.36721 26.6415 7.13005 26.6415 6.8929C26.6415 5.5847 26.6571 4.26885 26.6259 2.96066C26.5946 1.82077 25.8526 1.14754 24.7045 1.14754C23.7516 1.14754 22.7909 1.14754 21.8381 1.14754C15.5428 1.14754 9.24759 1.14754 2.94455 1.13989C2.39781 1.13989 1.95262 1.3235 1.62458 1.74426C1.28873 2.17268 1.15595 2.6623 1.15595 3.19016C1.15595 4.57486 1.15595 5.95956 1.15595 7.35191C1.14814 7.44372 1.15595 7.52787 1.16376 7.61967ZM26.5087 25.4984C26.6337 25.3454 26.7352 25.2 26.868 25.0699C27.3913 24.5497 27.3913 24.5574 26.8836 24.0448C26.6024 23.7541 26.5946 23.5628 26.7743 23.1956C26.9852 22.7749 27.1804 22.3465 27.3288 21.9104C27.5085 21.3902 27.61 21.2831 28.1802 21.2831C28.8597 21.2831 28.7894 21.329 28.7894 20.6787C28.7894 19.9825 28.7894 19.9825 28.0708 19.9596C27.6647 19.9443 27.5085 19.8066 27.3757 19.4317C27.2117 18.9727 27.032 18.5213 26.8133 18.0852C26.5868 17.6415 26.5868 17.4732 26.9383 17.1213C27.3991 16.6699 27.3991 16.6699 26.9383 16.2186C26.454 15.7443 26.4541 15.7443 25.9542 16.2109C25.634 16.5169 25.4309 16.5246 25.0404 16.3333C24.5873 16.1191 24.1187 15.9279 23.6423 15.7672C23.2205 15.6219 23.0799 15.4765 23.0721 15.0251C23.0643 14.3825 23.0643 14.3825 22.4238 14.3825C21.7287 14.3825 21.7287 14.3825 21.7209 15.0557C21.7131 15.4918 21.5803 15.6295 21.1586 15.7749C20.7055 15.9279 20.2604 16.0962 19.8386 16.3104C19.37 16.5399 19.1981 16.5399 18.831 16.1803C18.3155 15.6831 18.4483 15.6907 17.925 16.188C17.433 16.6623 17.433 16.6699 17.9094 17.1519C18.2374 17.4809 18.2374 17.6568 18.0344 18.0699C17.8235 18.4984 17.636 18.9421 17.4798 19.3858C17.3392 19.7989 17.1752 19.9443 16.7222 19.9443C16.0505 19.9519 16.0505 19.9519 16.0583 20.5945C16.0661 21.3672 15.9724 21.2601 16.7378 21.2678C17.1986 21.2754 17.3392 21.4055 17.4876 21.8339C17.636 22.2623 17.8079 22.6907 18.0187 23.1038C18.2609 23.5781 18.2609 23.7388 17.8782 24.1137C17.3705 24.6109 17.3861 24.4809 17.886 24.9705C18.3858 25.4678 18.3858 25.4678 18.9091 24.9781C19.2059 24.6951 19.409 24.6874 19.7761 24.8634C20.2135 25.0699 20.6587 25.2612 21.1195 25.4142C21.6194 25.5825 21.7443 25.7049 21.7443 26.2328C21.7521 26.9213 21.6662 26.8448 22.3692 26.8448C23.1893 26.8448 23.0877 26.9519 23.0955 26.1563C23.0955 26.141 23.0955 26.118 23.0955 26.1027C23.1034 25.7355 23.2439 25.5825 23.5954 25.4601C23.9703 25.3377 24.3687 25.2306 24.7123 25.047C25.3918 24.6798 25.5168 24.5191 26.2275 25.2765C26.29 25.3377 26.3603 25.3836 26.5087 25.4984Z" fill="#02E602"/>
<path d="M13.6392 14.5065C13.1536 14.0023 12.6922 13.5207 12.2308 13.0316C11.9314 12.7156 11.9233 12.3694 12.2066 12.1362C12.4818 11.9179 12.8379 11.9631 13.1374 12.2641C13.6716 12.8134 14.2058 13.3702 14.7319 13.9271C15.088 14.3033 15.088 14.6946 14.74 15.0633C14.2058 15.6277 13.6716 16.1846 13.1293 16.7489C12.846 17.0424 12.4656 17.08 12.1985 16.8543C11.9395 16.6285 11.9395 16.2899 12.2147 16.004C12.6679 15.5073 13.1455 15.0182 13.6392 14.5065Z" fill="#02E602"/>
<path d="M4.36891 14.4985C4.82883 14.9789 5.26454 15.4292 5.69218 15.8871C5.7648 15.9622 5.84549 16.0373 5.90197 16.1273C6.07141 16.3675 6.01493 16.6828 5.78094 16.863C5.56308 17.0356 5.20806 17.0581 5.00634 16.8554C4.37698 16.2249 3.75568 15.5794 3.1586 14.9188C2.9246 14.6561 2.95688 14.2808 3.20701 14.0105C3.77182 13.4025 4.35277 12.7945 4.93372 12.2015C5.18385 11.9463 5.54694 11.9388 5.79708 12.149C6.04721 12.3592 6.07141 12.6969 5.82935 12.9597C5.36136 13.4701 4.87724 13.9655 4.36891 14.4985Z" fill="#02E602"/>
<path d="M9.99957 12.684C9.88573 13.2457 9.75849 13.8767 9.62456 14.4999C9.42366 15.4694 9.22276 16.439 9.02186 17.4162C9.01516 17.4547 9.00177 17.4931 8.99507 17.5239C8.90132 17.8702 8.66694 18.0548 8.39238 17.9856C8.11112 17.9163 7.9437 17.6162 8.01736 17.2546C8.20487 16.3082 8.40577 15.3694 8.59997 14.423C8.72721 13.7997 8.86114 13.1688 8.98838 12.5455C9.04195 12.2839 9.15579 12.0838 9.39687 12.0146C9.71161 11.9299 10.013 12.2223 9.99957 12.684Z" fill="#02E602"/>
<path d="M8.49993 21C8.78278 21 9.00644 21.2133 8.99986 21.4999C8.99986 21.7799 8.77621 22.0065 8.49335 21.9999C8.23023 21.9932 8.00658 21.7732 8 21.5066C8 21.2333 8.22365 21 8.49993 21Z" fill="#02E602"/>
<path d="M20.4962 5.99213C19.6245 5.99213 18.7604 6.00787 17.8887 5.99213C17.0706 5.9764 16.3671 5.43357 16.1071 4.64685C15.8471 3.86801 16.0689 3.02622 16.6806 2.48339C17.0476 2.15297 17.4911 2.0035 17.9729 2.0035C19.6551 2.0035 21.3373 1.99563 23.0196 2.0035C24.1512 2.01136 25 2.87675 25 4.00175C25 5.12675 24.1512 5.98427 23.0196 6C22.1784 6 21.3373 5.99213 20.4962 5.99213ZM20.5191 3.19143C19.6704 3.19143 18.8216 3.18357 17.9652 3.19143C17.4835 3.1993 17.147 3.55332 17.1547 4.00175C17.1623 4.44231 17.4911 4.79633 17.9499 4.79633C19.6474 4.8042 21.3526 4.8042 23.0501 4.79633C23.3789 4.79633 23.6389 4.63112 23.7766 4.30857C24.0136 3.75787 23.6389 3.1993 23.0043 3.18357C22.1784 3.18357 21.345 3.19143 20.5191 3.19143Z" fill="#02E602"/>
<path d="M13 3.99215C13 5.10237 12.1006 6 10.9961 6C9.90734 5.99213 9.00794 5.10237 9.00005 4.0079C8.99216 2.91342 9.91523 1.99218 11.0119 2.00005C12.1006 2.00792 12.9921 2.90555 13 3.99215ZM10.9882 3.19689C10.5385 3.20476 10.1914 3.56696 10.1992 4.02365C10.2071 4.45671 10.5701 4.81104 11.004 4.81104C11.4458 4.81104 11.8166 4.43309 11.8087 4.00002C11.8008 3.55121 11.43 3.18901 10.9882 3.19689Z" fill="#02E602"/>
<path d="M7 4.00007C7 5.11024 6.09881 6.00782 4.98419 5.99995C3.88538 5.99208 3 5.10237 3 4.00007C3 2.88991 3.90909 1.98446 5.01581 2.0002C6.11462 2.00808 7 2.90566 7 4.00007ZM5.79842 4.00007C5.79842 3.55128 5.43478 3.19698 4.98419 3.19698C4.54941 3.20485 4.19368 3.55129 4.18577 3.98433C4.17787 4.42525 4.54941 4.80317 4.98419 4.80317C5.43478 4.81105 5.79842 4.44099 5.79842 4.00007Z" fill="#02E602"/>
<path d="M22.5151 17C24.4469 17.0076 26.015 18.5926 25.9999 20.5189C25.9847 22.4452 24.3863 24.0151 22.4621 23.9999C20.5455 23.9847 18.9925 22.3997 19 20.481C19.0076 18.5471 20.5758 16.9924 22.5151 17ZM22.5075 18.1452C21.2045 18.1452 20.1515 19.1766 20.1515 20.481C20.1439 21.793 21.2045 22.8623 22.5 22.8547C23.7878 22.8547 24.8484 21.793 24.8484 20.5038C24.856 19.2069 23.803 18.1528 22.5075 18.1452Z" fill="#02E602"/>
</svg>
