<svg width="30" height="30" viewBox="0 0 30 30" fill="none" xmlns="http://www.w3.org/2000/svg">
<path d="M10.6922 19.2642C9.86426 19.3048 9.14186 19.5811 8.54934 20.0849C7.51851 20.9707 6.51203 21.8889 5.71658 23.0103C5.33509 23.5385 5.04289 24.1236 4.96984 24.79C4.96172 24.8469 4.96984 24.9119 4.96984 25.0419C5.31074 24.9688 5.6273 24.9037 5.94385 24.8387C5.9682 24.7981 5.99255 24.7575 6.0169 24.7087C5.87892 24.6112 5.7247 24.5218 5.60295 24.4081C5.44873 24.2618 5.43249 24.083 5.58671 23.9286C5.74093 23.7823 5.90327 23.8148 6.04937 23.9611C6.67436 24.5868 7.29935 25.2125 7.92435 25.8383C8.06233 25.9845 8.07857 26.1471 7.94058 26.3015C7.79448 26.4559 7.62402 26.4315 7.48604 26.2933C7.21819 26.0333 6.94222 25.7733 6.6906 25.497C6.53638 25.3182 6.40651 25.3426 6.19547 25.3994C5.74093 25.5295 5.27016 25.6189 4.8075 25.6676C4.44225 25.7001 4.28803 25.5457 4.32861 25.1719C4.37731 24.6925 4.48283 24.213 4.6127 23.7498C4.66952 23.5548 4.6614 23.441 4.5153 23.311C4.24744 23.0672 3.99582 22.7991 3.73609 22.539C3.57375 22.3765 3.52505 22.2059 3.70362 22.0352C3.86595 21.8808 4.03641 21.9214 4.18251 22.0758C4.45036 22.3521 4.71821 22.6284 5.0023 22.9291C5.17276 22.6934 5.31074 22.4984 5.47308 22.2627C5.18899 21.9864 4.89679 21.702 4.6127 21.4176C3.94712 20.7594 3.28966 20.1012 2.6322 19.4348C2.36435 19.1667 2.36435 19.0529 2.6322 18.7766C2.81889 18.5897 3.00557 18.4028 3.19226 18.2159C3.67927 17.7446 4.27179 17.6552 4.87244 17.9721C5.91138 18.5166 6.95033 19.0773 8.01363 19.6461C9.46654 18.1428 10.9194 16.6313 12.3967 15.0954C12.1857 14.8679 11.8853 14.5429 11.5607 14.2341C11.5038 14.1853 11.3415 14.1934 11.2603 14.2422C10.8058 14.4778 10.3513 14.6972 9.83179 14.7054C9.49089 14.7135 9.38537 14.5997 9.38537 14.2503C9.38537 13.8115 9.5477 13.3727 9.99413 12.5844C9.91296 12.495 9.83179 12.4057 9.74251 12.3081C9.0607 11.593 8.37889 10.8861 7.69708 10.1791C7.51039 9.99218 7.51039 9.8134 7.68084 9.61837C7.80259 9.48023 7.90811 9.33396 8.02175 9.18769C8.37889 8.72449 8.36265 8.48883 7.95681 8.0744C6.73118 6.84734 5.50554 5.62029 4.27991 4.39323C4.15816 4.27134 4.03641 4.14945 3.91465 4.02755C3.63057 3.75126 3.52505 3.74313 3.21661 3.97879C3.12733 4.0438 3.03804 4.11694 2.93252 4.20633C3.14356 4.43386 3.3546 4.65327 3.55752 4.87268C4.75068 6.13224 5.95197 7.3918 7.14514 8.64323C7.20195 8.70011 7.29124 8.757 7.29935 8.83013C7.31559 8.96015 7.3237 9.13893 7.25065 9.20394C7.1776 9.27707 6.99903 9.26895 6.86916 9.2527C6.80423 9.24457 6.74741 9.15518 6.6906 9.09017C4.53965 6.82296 2.38058 4.55575 0.229633 2.29667C-0.0869213 1.9635 -0.0788045 1.86598 0.270217 1.55719C0.69229 1.17526 1.11436 0.801453 1.54455 0.419521C2.17766 -0.141186 2.88382 -0.141188 3.50881 0.427646C5.66788 2.38606 7.81883 4.34447 9.96978 6.31101C10.0428 6.37602 10.124 6.44916 10.197 6.52229C10.473 6.44103 10.6029 5.88032 11.0168 6.26226C11.1711 6.40853 11.1224 6.50604 10.7246 6.99361C11.0818 7.32679 11.447 7.65184 11.8448 8.01752C12.0152 7.83874 12.1694 7.68434 12.3155 7.52182C12.4697 7.35929 12.6483 7.31054 12.8188 7.48119C12.9811 7.64371 12.9324 7.81436 12.7782 7.96063C12.624 8.1069 12.4616 8.24505 12.2749 8.39944C12.5996 8.69199 12.8675 8.9439 13.1921 9.23644C13.3464 9.06579 13.4681 8.9114 13.6142 8.77325C14.1175 8.30193 14.8398 8.30193 15.3106 8.76512C15.7895 9.23644 15.7976 9.97593 15.3187 10.4879C15.2132 10.6016 15.0834 10.7073 14.9454 10.8292C15.3187 11.1705 15.6596 11.4793 16.0005 11.7881C17.7375 10.0897 19.5719 8.51321 20.6596 6.27038C21.3089 4.92143 22.3803 3.93816 23.8089 3.40996C24.231 3.25556 24.718 3.19055 25.1725 3.19055C26.0897 3.19055 26.7715 3.89753 26.8121 4.81579C26.8689 5.95346 26.3657 6.87985 25.692 7.72497C25.1319 8.43195 24.4339 8.98453 23.6303 9.39897C22.2992 10.0816 21.1141 10.9511 20.0995 12.0562C19.4989 12.7145 18.8577 13.3402 18.2164 13.9903C18.533 14.3397 18.8333 14.6729 19.158 15.0304C19.5232 14.6241 19.9047 14.2341 20.481 14.3397C20.7408 14.3885 21.0248 14.5266 21.2278 14.6972C21.5605 14.9898 21.6985 15.4205 21.52 15.8349C21.3657 16.2006 21.0979 16.5094 20.8463 16.8832C21.0492 17.1107 21.3008 17.3789 21.593 17.7121C21.7635 17.5252 21.9096 17.3464 22.0719 17.1839C22.2099 17.0376 22.3803 17.0213 22.5264 17.1676C22.6726 17.3139 22.6644 17.4845 22.5183 17.6308C22.356 17.7933 22.1774 17.9477 21.9745 18.1346C22.1774 18.354 22.3398 18.5409 22.5102 18.7197C22.6725 18.8985 22.8349 19.0773 23.0053 19.256C23.2732 19.1585 23.4436 18.6303 23.7845 19.0123C24.1011 19.3617 23.606 19.508 23.4842 19.7842C23.882 20.2231 24.2878 20.67 24.6936 21.1169C26.3089 22.8966 27.9322 24.6762 29.5475 26.464C30.1481 27.1222 30.1481 27.8129 29.5637 28.4793C29.1741 28.9181 28.7845 29.365 28.3868 29.7957C28.1514 30.0639 28.0134 30.0639 27.7537 29.8201C27.0556 29.1619 26.3576 28.4955 25.6514 27.8292C25.4728 27.6585 25.4566 27.4879 25.6108 27.301C25.765 27.1141 25.9111 26.919 26.0654 26.724C26.2358 26.5127 26.2277 26.3258 26.0329 26.1308C24.6287 24.7331 23.2326 23.3273 21.8365 21.9296C21.4794 21.572 21.1709 21.6289 20.5622 22.1977C20.6596 22.2546 20.7813 22.2871 20.8544 22.3603C22.2424 23.6767 23.6222 24.9931 25.0021 26.3096C25.0751 26.3827 25.1806 26.4396 25.205 26.529C25.2375 26.6509 25.2537 26.8378 25.1888 26.9028C25.1076 26.9841 24.9209 26.9922 24.791 26.9759C24.7099 26.9678 24.6368 26.854 24.5638 26.7809C22.2748 24.595 19.9778 22.409 17.6888 20.2231C17.6077 20.1499 17.5265 20.0687 17.4778 20.028C16.9989 20.2149 16.5606 20.4262 16.0979 20.5481C15.3918 20.7269 15.1645 20.4994 15.3431 19.8005C15.4567 19.3536 15.6596 18.931 15.7976 18.5734C15.473 18.2078 15.1483 17.8421 14.8804 17.5333C13.3545 19.0123 11.8529 20.4668 10.3513 21.9133C10.4243 22.0596 10.4649 22.1571 10.5136 22.2546C11.0087 23.1891 11.5038 24.1155 11.999 25.05C12.3561 25.7245 12.2668 26.3015 11.7311 26.854C11.5607 27.0247 11.3902 27.2035 11.2116 27.3741C10.9519 27.626 10.8302 27.626 10.5704 27.366C9.70192 26.4965 8.83343 25.627 7.96493 24.7575C7.84318 24.6356 7.75389 24.5056 7.53474 24.5543C7.45357 24.5706 7.26689 24.4324 7.25877 24.3512C7.24254 24.2293 7.30747 24.0586 7.39675 23.9692C8.11103 23.246 8.84966 22.5553 9.56394 21.832C10.1889 21.1901 10.5867 20.4262 10.7084 19.5242C10.6841 19.4511 10.6841 19.3779 10.6922 19.2642ZM15.4324 12.1619C15.4243 12.1537 15.3674 12.105 15.3187 12.0562C12.2262 9.24457 9.13375 6.42478 6.04125 3.61312C5.04289 2.70298 4.04452 1.79285 3.04616 0.89084C2.72149 0.598297 2.39682 0.533286 2.11273 0.752693C1.65007 1.11837 1.21176 1.53281 0.757224 1.93099C1.34163 2.54046 1.89357 3.12554 2.46175 3.71876C2.60785 3.60499 2.7296 3.5156 2.85135 3.41809C3.37083 3.02803 3.85784 3.06053 4.32049 3.5156C5.70846 4.89705 7.08832 6.28663 8.47629 7.67621C9.012 8.21254 9.05258 8.86264 8.59804 9.46398C8.50064 9.594 8.40324 9.71589 8.29772 9.85403C9.85614 11.4955 11.3983 13.1126 12.9811 14.7785C13.809 13.8846 14.6207 13.0314 15.4324 12.1619ZM28.0053 29.2106C28.3381 28.8368 28.6546 28.4793 28.9712 28.1217C29.4176 27.6179 29.4176 27.3254 28.9712 26.8297C26.0329 23.5873 23.0946 20.3531 20.1482 17.1107C19.3447 16.225 18.5411 15.3392 17.8106 14.5347C16.934 15.3555 16.0736 16.16 15.1889 16.9888C16.8528 18.5734 18.4681 20.1174 20.0914 21.6614C20.205 21.5801 20.2943 21.5151 20.3836 21.442C21.106 20.8813 21.7067 20.9219 22.3479 21.5639C22.8998 22.1165 23.4518 22.669 24.0037 23.2216C24.7991 24.018 25.5946 24.8144 26.39 25.6107C26.8852 26.1146 26.9176 26.5859 26.4874 27.1547C26.4063 27.2685 26.317 27.3822 26.2277 27.5041C26.8283 28.0811 27.4128 28.6418 28.0053 29.2106ZM20.1888 8.32631C19.7262 8.85451 19.2878 9.40709 18.7927 9.89466C15.895 12.7551 12.9892 15.5993 10.0834 18.4434C10.0104 18.5166 9.93731 18.5897 9.81556 18.7197C10.0509 18.6872 10.197 18.6547 10.3431 18.6466C10.5055 18.6303 10.6678 18.6222 10.8302 18.6303C11.2279 18.6385 11.3172 18.7197 11.3172 19.1179C11.3172 19.4348 11.2766 19.7436 11.2603 20.1012C11.3659 19.9955 11.4551 19.9224 11.5282 19.8493C13.8496 17.4764 16.1629 15.1036 18.4924 12.7388C19.4502 11.7637 20.343 10.7154 21.4713 9.91904C21.5281 9.87841 21.5849 9.82965 21.6498 9.77277C20.7164 9.46398 20.4891 9.24457 20.1888 8.32631ZM22.0881 9.1308C22.1287 9.12268 22.2342 9.12268 22.3316 9.0983C24.2229 8.62698 25.4647 7.44055 26.041 5.60403C26.455 4.27946 25.6514 3.49122 24.3121 3.88128C22.9161 4.28759 21.9015 5.20585 21.244 6.47354C21.0248 6.90423 20.8706 7.39992 20.83 7.8875C20.7489 8.66761 21.2602 9.13893 22.0881 9.1308ZM7.47792 20.0768C6.48767 19.5486 5.50554 19.0285 4.52341 18.5003C4.20686 18.3297 3.91466 18.3947 3.65492 18.6303C3.5007 18.7685 3.33025 18.9066 3.19226 19.0285C4.12569 19.963 5.01042 20.8407 5.85457 21.6939C6.37404 21.1657 6.90975 20.6375 7.47792 20.0768ZM8.29772 24.1155C9.13375 24.9525 10.0104 25.8383 10.9438 26.7647C11.0412 26.6509 11.1386 26.5127 11.2603 26.3827C11.5931 26.0252 11.6337 25.7733 11.4146 25.3426C11.2685 25.0663 11.1142 24.79 10.9681 24.5137C10.611 23.8392 10.2457 23.1566 9.88861 22.4821C9.33667 23.0429 8.80908 23.5873 8.29772 24.1155ZM20.3187 16.3469C20.5865 16.0299 21.0167 15.8349 20.8463 15.3717C20.7895 15.2092 20.5784 15.0304 20.408 14.9817C19.9859 14.876 19.8073 15.258 19.5476 15.5017C19.8154 15.7862 20.0589 16.0543 20.3187 16.3469ZM14.4502 10.3904C14.7262 10.1141 15.0752 9.91092 14.9616 9.46398C14.8967 9.22832 14.7343 9.09017 14.4827 9.06579C14.0363 9.02516 13.8902 9.40709 13.598 9.61837C13.9064 9.89466 14.1662 10.1385 14.4502 10.3904ZM11.025 13.6327C10.7977 13.4214 10.6191 13.2508 10.4081 13.0476C10.2701 13.3727 10.1402 13.6733 10.0104 13.9659C10.0347 13.9903 10.0591 14.0146 10.0753 14.039C10.3756 13.909 10.6678 13.779 11.025 13.6327ZM15.9194 19.8736C15.9437 19.898 15.9762 19.9224 16.0005 19.9468C16.2928 19.8168 16.5931 19.6786 16.9259 19.5323C16.6986 19.3211 16.5281 19.1585 16.309 18.9554C16.1629 19.2967 16.0411 19.5811 15.9194 19.8736Z" fill="#02E602"/>
</svg>
