<svg width="30" height="24" viewBox="0 0 30 24" fill="none" xmlns="http://www.w3.org/2000/svg">
<path d="M28.08 19.3238C28.2978 21.9239 25.8617 23.8918 22.99 23.995C21.9574 24.0337 20.9894 23.8466 20.094 23.4337C19.1986 23.0208 18.513 22.4465 18.029 21.7175C17.545 20.9884 17.3837 20.2012 17.424 19.356C17.2788 19.356 17.1578 19.356 17.0449 19.356C12.2371 19.356 7.42939 19.356 2.62166 19.356C1.00833 19.356 0 18.5495 0 17.2591C0 12.2007 0 7.14883 0 2.09045C0 0.812953 1.00833 0 2.59747 0C10.8658 0 19.1341 0 27.3944 0C28.9916 0 29.9999 0.8065 29.9999 2.084C29.9999 7.11011 29.9999 12.1298 29.9999 17.1559C30.008 18.3302 29.4836 18.9302 28.08 19.3238ZM28.072 18.485C28.7092 18.2979 29.04 17.8914 29.04 17.343C29.04 12.2395 29.04 7.13592 29.04 2.03238C29.04 1.24524 28.443 0.774241 27.4508 0.774241C19.1502 0.774241 10.8577 0.774241 2.55713 0.774241C1.55687 0.774241 0.967999 1.25169 0.967999 2.05819C0.967999 7.13592 0.967999 12.2201 0.967999 17.2978C0.967999 18.1172 1.55687 18.5818 2.58133 18.5818C7.41326 18.5818 12.2371 18.5818 17.069 18.5818C17.1739 18.5818 17.2869 18.5818 17.4643 18.5818C17.3433 18.2979 17.2546 18.0527 17.1255 17.8204C16.9561 17.5108 16.7383 17.2204 16.5689 16.9107C16.1979 16.2204 16.8029 15.4913 17.7386 15.4913C18.2387 15.4913 18.6905 15.6074 19.1099 15.8268C19.1825 15.8655 19.2551 15.8913 19.36 15.9365C19.36 15.8139 19.36 15.73 19.36 15.6397C19.36 14.4331 19.3519 13.2202 19.36 12.0136C19.368 11.362 19.9972 10.8523 20.7878 10.8458C21.5944 10.8394 22.2478 11.3491 22.2559 12.0072C22.264 12.7105 22.2559 13.4073 22.2559 14.1105C22.2559 14.1944 22.2559 14.2847 22.2559 14.3751C23.1352 14.2912 23.361 14.3557 23.9822 14.859C24.7485 14.5815 25.3858 14.7299 25.902 15.2396C27.2088 14.788 28.1688 15.6074 28.08 16.472C28.0155 17.1236 28.072 17.7946 28.072 18.485ZM19.36 18.5689C19.36 18.2076 19.368 17.8592 19.36 17.5172C19.3358 16.8397 18.634 16.272 17.8193 16.2591C17.4885 16.2526 17.3514 16.4075 17.4885 16.6462C17.6176 16.872 17.7547 17.0978 17.908 17.3172C18.2629 17.8398 18.4242 18.3947 18.4 18.9883C18.3839 19.4076 18.3839 19.827 18.4485 20.24C18.7469 22.0336 20.7474 23.324 23.0303 23.2208C25.2567 23.1175 27.0717 21.6078 27.0959 19.8141C27.112 18.6592 27.104 17.5107 27.0959 16.3558C27.0959 16.0526 26.9104 15.8719 26.6119 15.8719C26.3134 15.8719 26.1279 16.0526 26.1279 16.3558C26.1279 16.9817 26.1279 17.614 26.1279 18.2398C26.1279 18.3495 26.1279 18.4592 26.1279 18.5689C25.7891 18.5689 25.4906 18.5689 25.1599 18.5689C25.1599 18.4786 25.1599 18.4011 25.1599 18.3237C25.1599 17.5495 25.1599 16.7752 25.1599 16.001C25.1599 15.6719 24.9905 15.4913 24.684 15.4848C24.3694 15.4784 24.1919 15.6655 24.1919 16.0074C24.1919 16.7752 24.1919 17.5366 24.1919 18.3043C24.1919 18.3882 24.1919 18.4786 24.1919 18.5624C23.845 18.5624 23.5385 18.5624 23.2239 18.5624C23.2239 17.5624 23.2239 16.5752 23.2239 15.5945C23.2239 15.2719 23.0384 15.0912 22.7238 15.0977C22.4253 15.1042 22.2559 15.2784 22.2559 15.5881C22.2559 16.4526 22.2559 17.3107 22.2559 18.1753C22.2559 18.3043 22.2559 18.4269 22.2559 18.5624C21.9171 18.5624 21.6106 18.5624 21.2879 18.5624C21.2879 18.4527 21.2879 18.356 21.2879 18.2592C21.2879 16.2333 21.2879 14.2138 21.2879 12.1878C21.2879 12.1104 21.296 12.0265 21.2798 11.9491C21.2314 11.7427 21.0701 11.6136 20.8039 11.6201C20.5377 11.6201 20.3764 11.7491 20.328 11.9556C20.3118 12.033 20.3199 12.1169 20.3199 12.1943C20.3199 14.2267 20.3199 16.2591 20.3199 18.2914C20.3199 18.3818 20.3199 18.4786 20.3199 18.5753C19.9892 18.5689 19.6988 18.5689 19.36 18.5689Z" fill="#02E602"/>
<path d="M9.99216 2C12.298 2 14.5961 2 16.902 2C17.6392 2 18 2.2873 18 2.88064C18 5.29146 18 7.70229 18 10.1194C18 10.7127 17.6392 11 16.902 11C12.298 11 7.68627 11 3.08235 11C2.36078 11 2 10.7065 2 10.1319C2 7.71478 2 5.29146 2 2.87439C2 2.29979 2.36863 2.00625 3.08235 2.00625C5.38823 2 7.68627 2 9.99216 2ZM2.94902 6.87162C3.10588 6.87162 3.23137 6.87162 3.35686 6.87162C4.21176 6.87786 4.80784 7.35253 4.81569 8.03956C4.81569 8.16447 4.8 8.28938 4.82353 8.4143C4.86275 8.61416 5.01961 8.73907 5.28627 8.73907C5.5451 8.73907 5.70196 8.6204 5.74902 8.42054C5.7647 8.35184 5.75686 8.28314 5.75686 8.20819C5.75686 7.04025 5.75686 5.86607 5.75686 4.69813C5.75686 4.00486 6.36863 3.49896 7.18431 3.49896C7.98431 3.5052 8.58039 4.0111 8.58039 4.69188C8.58039 5.3914 8.58039 6.09715 8.58039 6.79667C8.58039 7.07148 8.76863 7.24011 9.05098 7.24011C9.33333 7.24011 9.52157 7.07148 9.52157 6.79667C9.52941 6.44067 9.51373 6.07842 9.52157 5.72242C9.53725 5.16031 10.0784 4.69188 10.7686 4.62942C11.4745 4.56697 12.1333 4.93546 12.298 5.49757C12.3294 5.61624 12.3373 5.7474 12.3373 5.86606C12.3451 6.42817 12.3373 6.99028 12.3373 7.55239C12.3373 7.8272 12.5255 7.99584 12.8078 7.98959C13.0902 7.98959 13.2706 7.82096 13.2706 7.5399C13.2706 7.41499 13.2706 7.29008 13.2706 7.16516C13.2706 6.31575 13.2627 5.46634 13.2706 4.61069C13.2784 3.84247 14.1961 3.31784 15.1059 3.54268C15.6941 3.69258 16.0863 4.11728 16.0941 4.64191C16.102 5.58501 16.0941 6.52811 16.0941 7.47745C16.0941 7.87092 16.2431 7.98959 16.7451 7.98959C16.8314 7.98959 16.9176 7.98959 17.0196 7.98959C17.0196 6.23456 17.0196 4.49827 17.0196 2.75573C12.3137 2.75573 7.63137 2.75573 2.92549 2.75573C2.94902 4.12977 2.94902 5.48508 2.94902 6.87162ZM2.95686 10.2255C7.67059 10.2255 12.3529 10.2255 17.0431 10.2255C17.0431 9.72589 17.0431 9.24497 17.0431 8.74532C16.8627 8.74532 16.698 8.75156 16.5333 8.74532C16.0627 8.72658 15.6627 8.57044 15.4275 8.25191C15.2863 8.05205 15.1843 7.80222 15.1843 7.57113C15.1608 6.60305 15.1765 5.63498 15.1686 4.6669C15.1686 4.41707 14.9647 4.24844 14.6902 4.25468C14.4235 4.26093 14.2431 4.41707 14.2275 4.66065C14.2275 4.71686 14.2275 4.76683 14.2275 4.82304C14.2275 5.73491 14.2275 6.64677 14.2275 7.56489C14.2275 8.24566 13.6157 8.75156 12.8157 8.75156C12.0157 8.75156 11.4118 8.24566 11.4039 7.56489C11.4039 6.97779 11.4039 6.39695 11.4039 5.80985C11.4039 5.54754 11.2235 5.38515 10.9412 5.3789C10.6588 5.37266 10.4627 5.54129 10.4627 5.8161C10.4549 6.15961 10.4627 6.50312 10.4627 6.84663C10.4549 7.50243 9.83529 8.00208 9.04314 8.00208C8.26667 7.99584 7.64706 7.50243 7.63922 6.85912C7.63137 6.33449 7.63922 5.8161 7.63922 5.29147C7.63922 5.07287 7.64706 4.85427 7.63922 4.63567C7.62353 4.41083 7.42745 4.26093 7.17647 4.26093C6.91765 4.26093 6.72941 4.41083 6.70588 4.63567C6.69804 4.70437 6.70588 4.77307 6.70588 4.84802C6.70588 6.02845 6.71373 7.20264 6.70588 8.38307C6.69804 8.98265 6.12549 9.46357 5.39608 9.50729C4.67451 9.54476 4.02353 9.14504 3.90588 8.56419C3.86667 8.38931 3.8902 8.20819 3.88235 8.02706C3.86667 7.78973 3.69412 7.65232 3.40392 7.63983C3.26274 7.63359 3.11373 7.63983 2.95686 7.63983C2.95686 8.49549 2.95686 9.35739 2.95686 10.2255Z" fill="#02E602"/>
<path d="M19.9934 2C20.344 2 20.6528 2 20.9951 2C20.9951 2.09119 20.9951 2.17021 20.9951 2.24924C20.9951 3.80547 20.9951 5.3617 20.9951 6.91793C20.9951 7.07599 21.0368 7.16717 21.2455 7.25228C22.2639 7.67173 22.2472 8.71733 21.2205 9.13678C21.0452 9.20973 20.9867 9.2766 20.9951 9.41641C21.0118 9.60486 21.0034 9.79331 21.0034 10C20.6695 10 20.3523 10 20.0017 10C20.0017 9.79331 19.9934 9.59271 20.0017 9.3921C20.0101 9.27052 19.96 9.20973 19.8014 9.14894C19.2838 8.94833 19 8.62006 19 8.18845C19 7.769 19.2755 7.44073 19.7847 7.2462C19.9683 7.17325 20.0017 7.1003 20.0017 6.96657C19.9934 5.3921 20.0017 3.82371 20.0017 2.24924C19.9934 2.17021 19.9934 2.09726 19.9934 2ZM20.5026 7.82371C20.2354 7.82371 20.0017 7.98176 19.9934 8.18237C19.9934 8.3769 20.2104 8.54711 20.4859 8.55319C20.753 8.55319 20.9867 8.39514 20.9951 8.19453C20.9951 7.99392 20.7697 7.82979 20.5026 7.82371Z" fill="#02E602"/>
<path d="M23.0017 2C23.3439 2 23.6528 2 24.0034 2C24.0034 2.40699 24.0117 2.81397 23.995 3.22096C23.9867 3.40319 24.0368 3.52468 24.2872 3.63402C25.2555 4.05315 25.2304 5.06758 24.2538 5.47456C24.0535 5.5596 23.995 5.64465 23.995 5.80866C24.0034 7.12073 24.0034 8.4328 24.0034 9.74488C24.0034 9.82384 24.0034 9.90888 24.0034 10C23.6611 10 23.3523 10 23.0017 10C23.0017 9.92103 23.0017 9.84207 23.0017 9.75702C23.0017 8.43888 23.0017 7.11466 23.0017 5.79651C23.0017 5.65072 22.9683 5.55961 22.7596 5.48064C22.2671 5.28626 22 4.96431 22 4.55125C22 4.13212 22.2671 3.8041 22.768 3.60364C22.9599 3.53075 23.0017 3.44571 23.0017 3.306C22.9933 2.86864 23.0017 2.43736 23.0017 2ZM24.0034 4.54518C24.0117 4.3508 23.7863 4.18071 23.5109 4.17464C23.2438 4.16856 23.01 4.33257 23.0017 4.53303C22.9933 4.72741 23.2187 4.89749 23.4942 4.90357C23.7613 4.90357 23.995 4.73956 24.0034 4.54518Z" fill="#02E602"/>
<path d="M26.9987 2C26.9987 2.14003 26.9987 2.26788 26.9987 2.39574C26.9987 3.66819 26.9987 4.93455 26.9987 6.207C26.9987 6.35312 27.032 6.44444 27.2399 6.52359C28.2547 6.9376 28.2547 7.99087 27.2316 8.40487C27.0403 8.48402 26.9987 8.56316 26.9987 8.7032C27.007 9.12937 26.9987 9.55556 26.9987 10C26.6743 10 26.3582 10 26.0005 10C26.0005 9.59209 25.9838 9.17808 26.0088 8.76408C26.0171 8.57534 25.9339 8.47793 25.7093 8.37443C24.7444 7.95434 24.7694 6.9376 25.7509 6.52968C25.9589 6.44445 26.0088 6.35921 26.0088 6.19483C26.0005 4.80061 26.0005 3.41248 26.0005 2C26.3249 2 26.641 2 26.9987 2ZM26.5245 7.09589C26.2584 7.08371 26.0171 7.24201 26.0005 7.44292C25.9839 7.63775 26.2001 7.81431 26.4746 7.82648C26.7408 7.83866 26.982 7.68036 26.9987 7.47945C27.007 7.28463 26.7907 7.10807 26.5245 7.09589Z" fill="#02E602"/>
<path d="M2.00006 16.4813C2.00839 15.6563 2.92499 14.9938 4.03324 15C5.13316 15.0125 6.01643 15.7 5.99977 16.5312C5.9831 17.3437 5.07483 18.0062 3.98325 18C2.88333 17.9937 1.99173 17.3062 2.00006 16.4813ZM4.99984 16.4938C4.99151 16.0875 4.54154 15.75 3.99991 15.75C3.45829 15.75 3.00832 16.0875 2.99999 16.4938C2.99999 16.9125 3.45829 17.2562 4.01658 17.25C4.55821 17.2437 4.99984 16.9 4.99984 16.4938Z" fill="#02E602"/>
<path d="M11 16.5062C10.9917 17.3312 10.0833 18.0062 8.98336 18C7.88338 17.9937 6.99172 17.3125 7.00006 16.4812C7.00839 15.6687 7.90838 15 9.00003 15C10.1083 15 11 15.6812 11 16.5062ZM10 16.4937C9.99168 16.0875 9.54169 15.75 9.00003 15.75C8.45837 15.75 8.00838 16.0875 8.00004 16.4937C8.00004 16.9125 8.45837 17.2562 9.0167 17.25C9.55836 17.2437 10 16.9 10 16.4937Z" fill="#02E602"/>
<path d="M16 16.5062C16 17.3312 15.0917 18.0062 13.9834 18C12.8834 17.9937 11.9917 17.3125 12.0001 16.4812C12.0084 15.6625 12.9084 15 14 15C15.1 15 16 15.675 16 16.5062ZM15 16.5C15 16.0937 14.55 15.7562 14.0084 15.75C13.4667 15.75 13.0084 16.0812 13 16.4875C12.9917 16.9062 13.45 17.25 14.0084 17.25C14.55 17.2437 15 16.9062 15 16.5Z" fill="#02E602"/>
<path d="M5 12.9944C5 13.55 4.325 14 3.49167 14C2.675 14 2 13.55 2 13.0056C2 12.45 2.675 12 3.50833 12C4.325 12.0056 4.99167 12.45 5 12.9944ZM4 13C4 12.8222 3.775 12.6667 3.5 12.6667C3.23333 12.6667 3 12.8167 3 13C3 13.1778 3.225 13.3333 3.5 13.3333C3.76667 13.3333 4 13.1833 4 13Z" fill="#02E602"/>
<path d="M7.47501 13.9999C6.65017 13.9888 5.98364 13.5277 6.00031 12.9722C6.01697 12.4278 6.70849 11.9945 7.52499 12.0001C8.34983 12.0112 9.01636 12.4723 8.99969 13.0278C8.9747 13.5722 8.29151 14.0055 7.47501 13.9999ZM7.49167 12.6667C7.22506 12.6722 7.0001 12.8278 7.00843 13.0056C7.01677 13.1833 7.25005 13.3333 7.51666 13.3278C7.78328 13.3222 8.00823 13.1667 7.9999 12.9889C7.99157 12.8111 7.75828 12.6667 7.49167 12.6667Z" fill="#02E602"/>
<path d="M11.4917 12.0001C12.325 11.9945 13 12.4513 13 13.0028C13 13.5487 12.325 13.9999 11.5083 13.9999C10.675 14.0055 10 13.5487 10 12.9916C10 12.4513 10.675 12.0056 11.4917 12.0001ZM11.475 13.337C11.7417 13.3482 11.9833 13.2033 12 13.0195C12.0167 12.8412 11.8 12.6797 11.525 12.6685C11.2583 12.6574 11.0167 12.8022 11 12.9861C10.9917 13.1643 11.2083 13.3259 11.475 13.337Z" fill="#02E602"/>
<path d="M15.5 14C14.675 14 13.9917 13.5444 14.0001 12.9889C14.0084 12.4444 14.6834 12 15.5 12C16.3333 12 17.0083 12.4556 16.9999 13.0111C16.9916 13.5556 16.3166 14 15.5 14ZM16 13.0111C16.0083 12.8333 15.7833 12.6778 15.5167 12.6722C15.25 12.6667 15.0167 12.8167 15.0084 12.9944C15 13.1722 15.225 13.3278 15.4917 13.3333C15.7583 13.3389 15.9916 13.1889 16 13.0111Z" fill="#02E602"/>
</svg>
