<svg width="30" height="28" viewBox="0 0 30 28" fill="none" xmlns="http://www.w3.org/2000/svg">
<path d="M29.0479 26.2001C29.0479 26.6369 29.0479 27.036 29.0479 27.4427C29.0479 27.8343 28.8704 28 28.4669 28C27.2485 28 26.0301 28 24.8037 28C24.376 28 24.2066 27.8419 24.2066 27.4277C24.2066 27.0285 24.2066 26.6218 24.2066 26.2076C18.0742 26.2076 11.9661 26.2076 5.80958 26.2076C5.80958 26.5917 5.80958 26.9833 5.80958 27.3749C5.80958 27.8569 5.65627 28 5.14793 28C3.96988 28 2.79182 28 1.6057 28C1.12964 28 0.968263 27.8494 0.968263 27.4126C0.968263 27.021 0.968263 26.6218 0.968263 26.1926C0.839161 26.1926 0.734265 26.1926 0.62937 26.1926C0.161376 26.1926 0 26.042 0 25.5901C0 25.5524 0 25.5148 0 25.4771C0 19.6256 0 13.7665 0 7.91501C0 7.32006 0.121032 7.21463 0.758472 7.21463C7.94782 7.21463 15.1372 7.21463 22.3265 7.21463C22.4556 7.21463 22.5847 7.21463 22.73 7.21463C22.73 6.60463 22.73 6.02474 22.73 5.40721C22.4637 5.40721 22.1974 5.40721 21.9392 5.40721C21.447 5.40721 21.2937 5.26412 21.2937 4.7972C21.2937 4.71436 21.2937 4.63152 21.2937 4.5035C21.1727 4.5035 21.0678 4.5035 20.9629 4.5035C19.6719 4.5035 18.3808 4.5035 17.0898 4.5035C16.6138 4.5035 16.4524 4.35288 16.4524 3.90855C16.4524 2.68854 16.4524 1.461 16.4524 0.240988C16.4524 0.165679 16.4524 0.0903712 16.4524 0C16.7832 0 17.0818 0 17.4126 0C17.4126 1.18989 17.4126 2.37224 17.4126 3.57719C18.7117 3.57719 19.9866 3.57719 21.2937 3.57719C21.2937 3.47929 21.2937 3.37386 21.2937 3.27595C21.2937 2.84669 21.4551 2.69607 21.9069 2.69607C22.6896 2.69607 23.4804 2.69607 24.263 2.69607C25.9575 2.69607 27.652 2.69607 29.3464 2.69607C29.8467 2.69607 30 2.83916 30 3.29855C30 3.80312 30 4.31522 30 4.8198C30 5.24906 29.8306 5.39968 29.3868 5.40721C29.1205 5.40721 28.8462 5.40721 28.5637 5.40721C28.5637 6.01721 28.5637 6.59709 28.5637 7.21463C28.8219 7.21463 29.0801 7.21463 29.3384 7.21463C29.8548 7.21463 30 7.35772 30 7.8397C30 12.5541 30 17.2684 30 21.9828C30 23.1501 30 24.3174 30 25.4847C30 26.0796 29.887 26.185 29.2415 26.1926C29.2012 26.1926 29.1447 26.2001 29.0479 26.2001ZM29.0317 8.14093C24.8279 8.14093 20.6482 8.14093 16.4847 8.14093C16.4847 10.8596 16.4847 13.5481 16.4847 16.2367C20.6805 16.2367 24.8521 16.2367 29.0317 16.2367C29.0317 13.5331 29.0317 10.8445 29.0317 8.14093ZM13.5315 23.4664C13.5315 18.9403 13.5315 14.4443 13.5315 9.94836C10.6267 9.94836 7.73803 9.94836 4.85745 9.94836C4.85745 14.4669 4.85745 18.9629 4.85745 23.4664C7.75417 23.4664 10.6348 23.4664 13.5315 23.4664ZM16.4847 17.1705C16.4847 19.8892 16.4847 22.5853 16.4847 25.2663C20.6805 25.2663 24.8601 25.2663 29.0317 25.2663C29.0317 22.5551 29.0317 19.8666 29.0317 17.1705C24.844 17.1705 20.6724 17.1705 16.4847 17.1705ZM3.84884 19.8666C3.84884 17.7429 3.84884 15.6493 3.84884 13.5406C3.40506 13.5406 2.98548 13.5406 2.55783 13.5406C2.0979 13.5406 1.93653 13.39 1.93653 12.9683C1.93653 12.1474 1.93653 11.334 1.93653 10.5132C1.93653 10.0764 2.0979 9.9333 2.58203 9.92577C3.00161 9.92577 3.42119 9.92577 3.86498 9.92577C3.87305 9.84293 3.87305 9.79021 3.87305 9.73749C3.88919 9.11242 3.98601 9.02205 4.64766 9.02205C7.4879 9.02205 10.3362 9.02205 13.1764 9.02205C13.2975 9.02205 13.4104 9.02205 13.5315 9.02205C13.5315 8.70576 13.5315 8.41958 13.5315 8.14093C9.33567 8.14093 5.156 8.14093 0.984401 8.14093C0.984401 13.8644 0.984401 19.5654 0.984401 25.2738C5.18021 25.2738 9.35987 25.2738 13.5315 25.2738C13.5315 24.9726 13.5315 24.6864 13.5315 24.3852C13.4024 24.3852 13.2894 24.3852 13.1764 24.3852C10.9978 24.3852 8.81926 24.3852 6.64067 24.3852C5.9064 24.3852 5.17214 24.3852 4.4298 24.3852C4.05056 24.3852 3.87305 24.2195 3.86498 23.8655C3.86498 23.745 3.86498 23.6245 3.86498 23.4814C3.39699 23.4814 2.9532 23.4814 2.50941 23.4814C2.10597 23.4814 1.92846 23.3158 1.92846 22.9543C1.92039 22.0957 1.92039 21.2448 1.92846 20.3862C1.92846 20.0398 2.11404 19.8741 2.49328 19.8666C2.94513 19.8666 3.38892 19.8666 3.84884 19.8666ZM15.4761 25.2738C15.4761 19.5503 15.4761 13.8418 15.4761 8.14093C15.1533 8.14093 14.8467 8.14093 14.5401 8.14093C14.5401 13.8644 14.5401 19.5654 14.5401 25.2738C14.8548 25.2738 15.1533 25.2738 15.4761 25.2738ZM27.5793 5.42227C26.2803 5.42227 25.0134 5.42227 23.7386 5.42227C23.7386 6.02474 23.7386 6.61216 23.7386 7.19204C25.0296 7.19204 26.3045 7.19204 27.5793 7.19204C27.5793 6.5971 27.5793 6.01721 27.5793 5.42227ZM29.0317 3.62238C26.7644 3.62238 24.5293 3.62238 22.2942 3.62238C22.2942 3.93114 22.2942 4.20979 22.2942 4.49596C24.5535 4.49596 26.7886 4.49596 29.0317 4.49596C29.0317 4.19473 29.0317 3.91608 29.0317 3.62238ZM1.95266 27.0737C2.929 27.0737 3.88112 27.0737 4.81711 27.0737C4.81711 26.7649 4.81711 26.4863 4.81711 26.2076C3.84884 26.2076 2.90479 26.2076 1.95266 26.2076C1.95266 26.5013 1.95266 26.78 1.95266 27.0737ZM28.0554 27.0812C28.0554 26.7725 28.0554 26.4863 28.0554 26.2152C27.0871 26.2152 26.135 26.2152 25.191 26.2152C25.191 26.5164 25.191 26.795 25.191 27.0812C26.1512 27.0812 27.0952 27.0812 28.0554 27.0812ZM2.92899 10.8445C2.92899 11.4545 2.92899 12.042 2.92899 12.6294C3.25175 12.6294 3.55029 12.6294 3.85691 12.6294C3.85691 12.0269 3.85691 11.447 3.85691 10.8445C3.54223 10.8445 3.24368 10.8445 2.92899 10.8445ZM3.84884 22.5627C3.84884 21.9527 3.84884 21.3728 3.84884 20.7929C3.51802 20.7929 3.21947 20.7929 2.92093 20.7929C2.92093 21.3954 2.92093 21.9753 2.92093 22.5627C3.23561 22.5627 3.53416 22.5627 3.84884 22.5627Z" fill="#02E602"/>
<path d="M22.2781 14.5308C22.7285 13.8385 23.1623 13.1692 23.621 12.4615C22.9287 12.4615 22.2865 12.4692 21.6442 12.4538C21.4858 12.4538 21.3023 12.4077 21.1855 12.3308C21.002 12.2077 20.9436 12.0077 21.0604 11.8154C21.6526 10.8846 22.2531 9.95385 22.8703 9C23.1623 9.15385 23.4292 9.3 23.7294 9.46154C23.2874 10.1462 22.8536 10.8154 22.3866 11.5385C23.0788 11.5385 23.7211 11.5308 24.355 11.5462C24.5051 11.5462 24.6719 11.5769 24.7887 11.6538C24.9889 11.7769 25.0639 11.9846 24.9388 12.1846C24.3466 13.1231 23.7461 14.0462 23.1289 15C22.8453 14.8385 22.5784 14.6923 22.2781 14.5308Z" fill="#02E602"/>
<path d="M9.5 15C8.54167 15 7.58333 15 6.625 15C6.175 15 6 14.825 6 14.375C6 13.4583 6 12.5417 6 11.625C6 11.175 6.175 11 6.625 11C8.54167 11 10.4583 11 12.375 11C12.825 11 13 11.175 13 11.625C13 12.5417 13 13.4583 13 14.375C13 14.825 12.825 15 12.375 15C11.4167 15 10.4583 15 9.5 15ZM11.975 13.9833C11.975 13.3083 11.975 12.6583 11.975 12.025C10.3083 12.025 8.65833 12.025 7.01667 12.025C7.01667 12.6917 7.01667 13.3333 7.01667 13.9833C8.675 13.9833 10.3167 13.9833 11.975 13.9833Z" fill="#02E602"/>
<path d="M6 17C6.99718 17 7.98592 17 9 17C9 17.3276 9 17.6466 9 18C8.01127 18 7.01408 18 6 18C6 17.6724 6 17.3534 6 17Z" fill="#02E602"/>
<path d="M13 18C11.9915 18 11.0085 18 10 18C10 17.6752 10 17.3504 10 17C10.9915 17 11.9915 17 13 17C13 17.3419 13 17.6667 13 18Z" fill="#02E602"/>
<path d="M6 15C6.33913 15 6.66087 15 7 15C7 15.3333 7 15.6581 7 16C6.66957 16 6.34783 16 6 16C6 15.6752 6 15.3504 6 15Z" fill="#02E602"/>
<path d="M8 16C8 15.6609 8 15.3391 8 15C8.33333 15 8.65812 15 9 15C9 15.3304 9 15.6522 9 16C8.68376 16 8.35897 16 8 16Z" fill="#02E602"/>
<path d="M10 15C10.3391 15 10.6609 15 11 15C11 15.3304 11 15.6522 11 16C10.6783 16 10.3478 16 10 16C10 15.6783 10 15.3565 10 15Z" fill="#02E602"/>
<path d="M13 16C12.6609 16 12.3391 16 12 16C12 15.6667 12 15.3419 12 15C12.3304 15 12.6522 15 13 15C13 15.3248 13 15.6496 13 16Z" fill="#02E602"/>
<path d="M17 23C17 22.6522 17 22.3304 17 22C18.3389 22 19.6526 22 21 22C21 22.3217 21 22.6522 21 23C19.6779 23 18.3474 23 17 23Z" fill="#02E602"/>
<path d="M22 23C22 22.6609 22 22.3391 22 22C23.3305 22 24.6526 22 26 22C26 22.3217 26 22.6522 26 23C24.6779 23 23.3558 23 22 23Z" fill="#02E602"/>
<path d="M21 24C21 24.3448 21 24.6638 21 25C19.6611 25 18.3474 25 17 25C17 24.681 17 24.3534 17 24C18.3221 24 19.6526 24 21 24Z" fill="#02E602"/>
<path d="M26 24C26 24.3448 26 24.6638 26 25C24.6611 25 23.3474 25 22 25C22 24.681 22 24.3534 22 24C23.3221 24 24.6526 24 26 24Z" fill="#02E602"/>
<path d="M27 19C27 18.6609 27 18.3478 27 18C27.3248 18 27.6496 18 28 18C28 18.313 28 18.6435 28 19C27.6752 19 27.3504 19 27 19Z" fill="#02E602"/>
<path d="M27 20C27.3362 20 27.6552 20 28 20C28 20.3276 28 20.6552 28 21C27.6724 21 27.3448 21 27 21C27 20.6724 27 20.3534 27 20Z" fill="#02E602"/>
<path d="M27 22C27.3421 22 27.6579 22 28 22C28 22.3248 28 22.6496 28 23C27.6754 23 27.3421 23 27 23C27 22.6581 27 22.3333 27 22Z" fill="#02E602"/>
<path d="M28 24C28 24.3421 28 24.6579 28 25C27.6752 25 27.3504 25 27 25C27 24.6754 27 24.3421 27 24C27.3419 24 27.6667 24 28 24Z" fill="#02E602"/>
</svg>
