<svg width="30" height="27" viewBox="0 0 30 27" fill="none" xmlns="http://www.w3.org/2000/svg">
<path d="M30 9.31784C29.5706 10.1314 29.188 10.96 28.7039 11.7433C28.1417 12.6548 27.9621 13.6114 27.9856 14.666C28.0402 16.9936 28.009 19.3136 28.0012 21.6412C27.9934 24.1571 26.299 26.2512 23.7771 26.8387C23.3476 26.9366 22.887 26.9893 22.4419 26.9893C17.4839 26.9969 12.5259 27.0044 7.56783 26.9969C4.44466 26.9893 2.0164 24.6467 2.00859 21.6412C2.00078 18.8918 2.00859 16.1424 2.00078 13.393C2.00078 13.2197 1.95393 13.039 1.87585 12.8883C1.31368 11.7735 0.728089 10.6662 0.15811 9.55135C0.0644151 9.37057 0.0175681 9.15966 0.00976014 8.96381C-0.00585571 7.51755 0.00195174 6.06375 0.00195174 4.61749C0.00195174 3.97722 0.111263 3.86423 0.782744 3.8567C0.8374 3.8567 0.899864 3.84916 1.00137 3.84163C1.00137 3.74371 1.00137 3.63825 1.00137 3.54033C1.00137 2.56862 1.00137 1.60445 1.00137 0.632741C1.00137 0.165719 1.17314 0 1.64942 0C2.89088 0 4.12454 0 5.366 0C5.81886 0 5.99063 0.165719 5.99063 0.595078C5.99063 1.56678 5.99063 2.53096 5.99063 3.50266C5.99063 3.60812 5.99063 3.70605 5.99063 3.8567C6.17021 3.8567 6.31856 3.84917 6.46691 3.8567C6.79485 3.8793 6.98224 4.04501 6.98224 4.35385C6.99005 5.94323 6.99005 7.53261 6.98224 9.12953C6.98224 9.26511 6.91977 9.4007 6.85731 9.52875C6.27952 10.6586 5.68612 11.781 5.11614 12.9109C5.04587 13.054 4.99902 13.2348 4.99902 13.393C4.99122 16.1047 4.99122 18.8165 4.99122 21.5282C4.99122 23.0875 6.05309 24.1119 7.66933 24.1119C7.927 24.1119 8.18466 24.1119 8.50478 24.1119C6.70896 21.9124 6.08432 19.4944 6.75581 16.8128C7.22428 14.9221 8.30958 13.393 9.92582 12.233C13.252 9.84513 17.8118 10.1088 20.8335 12.8506C23.902 15.6302 24.5501 20.5339 21.5284 24.0592C23.3867 24.3831 24.9405 23.4867 24.9795 21.7165C25.0342 18.8993 24.9951 16.0897 24.9873 13.2725C24.9873 13.1595 24.9327 13.0314 24.878 12.926C24.3002 11.8036 23.7146 10.6888 23.1446 9.56642C23.0431 9.37057 22.9963 9.13706 22.9885 8.91861C22.9729 7.47235 22.9807 6.01856 22.9807 4.5723C22.9807 3.98475 23.1134 3.8567 23.7146 3.84916C23.7927 3.84916 23.8708 3.84163 23.9801 3.8341C23.9801 3.72111 23.9801 3.62319 23.9801 3.52526C23.9801 2.55356 23.9801 1.58938 23.9801 0.617675C23.9801 0.165718 24.1519 0 24.6125 0C25.854 0 27.0876 0 28.3291 0C28.8054 0 28.9772 0.165719 28.9772 0.632741C28.9772 1.58938 28.9772 2.55356 28.9772 3.5102C28.9772 3.60812 28.9772 3.71358 28.9772 3.8341C29.3598 3.84917 29.758 3.78137 29.9766 4.16554C30 5.8905 30 7.60794 30 9.31784ZM15.0166 11.5701C10.8784 11.5626 7.52098 14.7865 7.51318 18.7713C7.49756 22.7636 10.8628 26.0252 15.001 26.0327C19.1236 26.0402 22.4966 22.8012 22.5044 18.824C22.52 14.8242 19.1626 11.5776 15.0166 11.5701ZM3.02362 13.5135C3.02362 13.5888 3.01581 13.6566 3.01581 13.7169C3.01581 16.391 3.0002 19.0575 3.02362 21.7316C3.03924 24.1044 5.02245 26.0026 7.48975 26.0327C8.57505 26.0478 9.65255 26.0327 10.7378 26.0327C10.7925 26.0327 10.855 26.0176 10.9487 26.0026C10.6832 25.8369 10.4177 25.7239 10.2303 25.5506C9.76186 25.1137 9.22311 25.0309 8.60629 25.061C8.01288 25.0911 7.40386 25.0987 6.83389 24.9857C5.14737 24.6618 4.03865 23.2984 4.03084 21.6261C4.02303 19.0274 4.03084 16.4362 4.03084 13.8374C4.03084 13.732 4.03084 13.619 4.03084 13.5135C3.65606 13.5135 3.35155 13.5135 3.02362 13.5135ZM19.0767 26.0327C20.2089 26.0327 21.2864 26.0327 22.3717 26.0327C25.0264 26.0252 27.0018 24.1345 27.0018 21.5734C27.0018 18.9822 27.0018 16.3985 27.0018 13.8073C27.0018 13.7094 27.0018 13.6114 27.0018 13.5135C26.6504 13.5135 26.3381 13.5135 26.0023 13.5135C26.0023 13.6416 26.0023 13.747 26.0023 13.86C26.0023 16.4512 26.0101 19.0349 26.0023 21.6261C25.9945 23.4038 24.7218 24.8275 22.9104 25.0233C22.1843 25.0987 21.4503 25.0535 20.7164 25.0685C20.6149 25.0685 20.4899 25.0685 20.4119 25.1213C19.9746 25.415 19.553 25.7088 19.0767 26.0327ZM1.0326 8.65497C2.70349 8.65497 4.35097 8.65497 5.99063 8.65497C5.99063 7.3669 5.99063 6.10142 5.99063 4.83594C5.6627 4.83594 5.35038 4.83594 5.01464 4.83594C5.01464 5.1749 5.01464 5.49127 5.01464 5.80764C5.00683 6.41779 4.67109 6.74169 4.03865 6.74922C3.6951 6.75675 3.35936 6.75675 3.01581 6.74922C2.36775 6.74169 2.02421 6.40272 2.02421 5.78505C2.02421 5.46868 2.02421 5.15231 2.02421 4.83594C1.67285 4.83594 1.36834 4.83594 1.04041 4.83594C1.0326 6.11648 1.0326 7.38196 1.0326 8.65497ZM28.985 8.6625C28.985 7.36689 28.985 6.10142 28.985 4.8284C28.657 4.8284 28.3447 4.8284 28.009 4.8284C28.009 5.15984 28.009 5.47621 28.009 5.79258C28.0012 6.39519 27.6576 6.73415 27.033 6.74169C26.6894 6.74922 26.3537 6.74922 26.0102 6.74169C25.3543 6.73415 25.0185 6.41025 25.0185 5.78505C25.0185 5.46868 25.0185 5.15231 25.0185 4.8284C24.6672 4.8284 24.3627 4.8284 24.0347 4.8284C24.0347 6.10895 24.0347 7.37443 24.0347 8.65497C25.6822 8.66251 27.3219 8.6625 28.985 8.6625ZM4.99122 0.979239C3.9918 0.979239 3.01581 0.979239 2.03201 0.979239C2.03201 1.94341 2.03201 2.88499 2.03201 3.82657C2.36775 3.82657 2.68007 3.82657 3.02362 3.82657C3.02362 3.50267 3.02362 3.20889 3.02362 2.90006C3.35936 2.90006 3.66387 2.90006 4.01523 2.90006C4.01523 3.21643 4.01523 3.52526 4.01523 3.82657C4.36658 3.82657 4.68671 3.82657 4.99902 3.82657C4.99122 2.86239 4.99122 1.92835 4.99122 0.979239ZM25.0264 0.971709C25.0264 1.94342 25.0264 2.88499 25.0264 3.82657C25.3621 3.82657 25.6744 3.82657 26.018 3.82657C26.018 3.50267 26.018 3.20889 26.018 2.91512C26.3615 2.91512 26.6738 2.91512 27.0174 2.91512C27.0174 3.23902 27.0174 3.5328 27.0174 3.8341C27.3609 3.8341 27.6732 3.8341 27.9777 3.8341C27.9777 2.86239 27.9777 1.92082 27.9777 0.971709C26.9861 0.971709 26.0258 0.971709 25.0264 0.971709ZM1.33711 9.65681C1.50107 9.96565 1.626 10.2368 1.78216 10.5005C1.8212 10.5607 1.93832 10.6059 2.0164 10.6059C3.01581 10.6135 4.02303 10.6135 5.02245 10.6059C5.10053 10.6059 5.20984 10.5758 5.24107 10.5231C5.39723 10.2519 5.53777 9.96565 5.70174 9.65681C4.22604 9.65681 2.805 9.65681 1.33711 9.65681ZM28.6805 9.65681C27.2048 9.65681 25.7915 9.65681 24.3236 9.65681C24.4876 9.96565 24.6281 10.2519 24.7843 10.5231C24.8077 10.5683 24.9092 10.5984 24.9795 10.5984C26.0023 10.6059 27.0252 10.6059 28.048 10.5984C28.1183 10.5984 28.2198 10.5457 28.251 10.4854C28.3916 10.2293 28.5243 9.96565 28.6805 9.65681ZM2.32871 11.5852C2.50049 11.9091 2.6098 12.2631 2.84404 12.4815C2.97677 12.6096 3.32032 12.5267 3.57798 12.5343C3.73414 12.5418 3.8903 12.5418 4.04646 12.5343C4.11673 12.5267 4.21042 12.5041 4.24166 12.4589C4.39781 12.1802 4.53836 11.894 4.70232 11.5852C3.89811 11.5852 3.14074 11.5852 2.32871 11.5852ZM25.3152 11.5776C25.4714 11.8865 25.6041 12.1576 25.7603 12.4137C25.7993 12.474 25.9086 12.5192 25.9867 12.5267C26.3303 12.5418 26.666 12.5343 27.0096 12.5267C27.0798 12.5267 27.1891 12.5041 27.2126 12.4589C27.3765 12.1802 27.5171 11.8865 27.681 11.5701C26.8768 11.5776 26.1273 11.5776 25.3152 11.5776ZM3.99961 4.84347C3.65606 4.84347 3.34374 4.84347 3.03143 4.84347C3.03143 5.16737 3.03143 5.46114 3.03143 5.76245C3.36717 5.76245 3.67949 5.76245 3.99961 5.76245C3.99961 5.44608 3.99961 5.15231 3.99961 4.84347ZM26.9861 4.83594C26.6504 4.83594 26.3459 4.83594 26.0258 4.83594C26.0258 5.15984 26.0258 5.46114 26.0258 5.76998C26.3537 5.76998 26.6582 5.76998 26.9861 5.76998C26.9861 5.45361 26.9861 5.15984 26.9861 4.83594Z" fill="#02E602"/>
<path d="M9 19.4961C9 15.9123 11.9123 13 15.4961 13C19.0799 13 21.9922 15.9123 22 19.4961C22 23.0721 19.0799 26 15.5039 26C11.9201 26 9 23.0799 9 19.4961ZM20.9928 19.4883C20.9928 16.4667 18.5255 13.9994 15.4961 13.9994C12.4667 13.9994 9.9994 16.4589 9.99159 19.4805C9.98378 22.5177 12.4745 25.0084 15.5039 24.9928C18.5333 24.985 20.9928 22.5099 20.9928 19.4883Z" fill="#02E602"/>
<path d="M3 2C3 1.65854 3 1.34146 3 1C3.33065 1 3.65323 1 4 1C4 1.3252 4 1.65041 4 2C3.66129 2 3.34677 2 3 2Z" fill="#02E602"/>
<path d="M26 1C26.3361 1 26.6557 1 27 1C27 1.33064 27 1.65323 27 2C26.6639 2 26.3443 2 26 2C26 1.66129 26 1.33871 26 1Z" fill="#02E602"/>
<path d="M17.6945 17.4289C17.9478 17.2812 18.187 17.1406 18.4262 17C19.0312 17.7593 19.2704 19.4678 18.5809 20.8106C17.7367 22.4558 16.0271 23.0886 15 22.9901C15 22.7159 15 22.4347 15 22.1324C16.1608 22.0621 17.0965 21.584 17.6804 20.5575C18.2644 19.5451 18.2362 18.5046 17.6945 17.4289Z" fill="#02E602"/>
<path d="M15 16.0962C15 15.7675 15 15.4023 15 15.0006C16.1198 14.9823 17.0891 15.3932 18 16.1418C17.7744 16.4431 17.5655 16.7352 17.3565 17C16.9721 16.7809 16.6128 16.5344 16.2284 16.3883C15.8524 16.2514 15.4429 16.1966 15 16.0962Z" fill="#02E602"/>
</svg>
