<svg width="30" height="26" viewBox="0 0 30 26" fill="none" xmlns="http://www.w3.org/2000/svg">
<path d="M4.836 8.4066C4.836 9.84643 4.836 11.2653 4.836 12.6981C5.12616 12.7471 5.39214 12.81 5.67424 12.8239C5.75484 12.8309 5.87574 12.7331 5.9241 12.6562C7.06056 11.1115 8.18896 9.55986 9.31736 8.0082C9.61558 7.59582 9.9138 7.18344 10.2523 6.72213C10.1072 6.72213 10.0025 6.72213 9.89767 6.72213C7.47162 6.72213 5.04556 6.72213 2.61144 6.72213C1.54752 6.72213 0.97526 6.22588 0.97526 5.29628C0.97526 5.0796 0.97526 4.85594 0.97526 4.63927C0.98332 4.14301 1.2493 3.77956 1.74096 3.52095C1.82156 3.47901 1.92634 3.40213 1.9344 3.33223C1.95858 3.07362 1.94246 2.81501 1.94246 2.52844C1.74902 2.52844 1.57976 2.53543 1.4105 2.52844C0.62868 2.50049 0.00806049 1.94133 0.00806049 1.26335C0.00806049 0.585369 0.636741 0.0192215 1.42662 0.012232C2.73234 -0.00174694 4.04612 -0.00174694 5.35184 0.012232C6.15784 0.0192215 6.78652 0.592359 6.77846 1.27733C6.7704 1.95531 6.14978 2.50049 5.35184 2.52145C5.19064 2.52844 5.0375 2.52145 4.86018 2.52145C4.86018 2.80103 4.86018 3.05964 4.86018 3.36019C4.94884 3.36019 5.04556 3.36019 5.14228 3.36019C6.94772 3.36019 8.7451 3.36019 10.5505 3.36718C10.7601 3.36718 10.881 3.31826 10.9616 3.14352C11.0906 2.87792 11.2518 2.6263 11.4049 2.36769C11.6789 1.92036 12.1142 1.68272 12.7026 1.68272C14.234 1.67573 15.7654 1.67573 17.2968 1.68272C17.8771 1.68272 18.3204 1.92036 18.5944 2.36769C18.7637 2.64727 18.9168 2.93384 19.0861 3.20642C19.1264 3.27632 19.2473 3.3532 19.3279 3.3532C21.2381 3.36019 23.1564 3.36019 25.0666 3.3532C25.0827 3.3532 25.0988 3.33922 25.1391 3.33223C25.1391 3.08061 25.1391 2.822 25.1391 2.52145C24.986 2.52145 24.8328 2.52145 24.6716 2.52145C23.8495 2.50748 23.2128 1.94832 23.2208 1.24937C23.2289 0.564402 23.8656 0.0122316 24.6716 0.00524211C25.9612 -0.00174737 27.2508 -0.00174737 28.5404 0.00524211C29.3464 0.0122316 29.9832 0.571392 29.9832 1.25636C29.9832 1.94133 29.3545 2.50049 28.5485 2.52145C28.3954 2.52844 28.2503 2.52145 28.0488 2.52145C28.0488 2.80103 28.0407 3.08061 28.0568 3.3532C28.0568 3.40213 28.1374 3.46504 28.2019 3.49299C28.7661 3.7516 29.024 4.16398 29.024 4.70916C29.024 4.91885 29.024 5.12853 29.024 5.33822C29.024 6.19792 28.4276 6.71514 27.4443 6.71514C25.0102 6.71514 22.568 6.71514 20.1339 6.71514C20.0291 6.71514 19.9163 6.71514 19.7631 6.71514C19.8357 6.82697 19.884 6.90386 19.9404 6.98074C21.3026 8.85392 22.6728 10.7271 24.0268 12.6073C24.1477 12.782 24.2606 12.8589 24.5024 12.796C24.7039 12.7401 24.9134 12.7261 25.1472 12.6842C25.1472 11.2583 25.1472 9.83944 25.1472 8.42058C26.0983 8.42058 27.0252 8.35068 27.944 8.43455C29.1772 8.55338 29.9832 9.44104 29.9912 10.5314C29.9993 13.5369 29.9912 16.5424 29.9912 19.5478C29.9912 20.6452 29.9751 21.7495 29.9993 22.8469C30.0154 23.385 29.7494 23.7625 29.2739 24.063C28.6049 24.4754 27.8473 24.7061 27.0735 24.9018C25.6227 25.2722 24.1316 25.4749 22.6244 25.6217C19.7792 25.9083 16.926 26.0341 14.0566 25.9921C10.8085 25.9432 7.5764 25.7615 4.38464 25.2093C3.36908 25.0346 2.36158 24.8109 1.42662 24.4125C1.16064 24.3007 0.89466 24.1609 0.65286 24.0071C0.20956 23.7275 0 23.3641 0 22.8678C0.01612 18.8 0.00806049 14.7251 0.00806049 10.6572C0.00806049 9.25232 1.0075 8.38563 2.62756 8.38563C3.3449 8.4066 4.06224 8.4066 4.836 8.4066ZM2.04724 23.7695C2.11978 23.6646 2.1762 23.5738 2.23262 23.4829C3.4658 21.5328 4.66674 19.5688 5.9241 17.6257C7.35878 15.4031 10.9616 15.4031 12.4366 17.5978C12.5817 17.8074 12.7106 18.0241 12.8476 18.2408C12.9282 18.3736 13.0169 18.5064 13.1378 18.6951C13.6698 17.5349 14.5241 16.808 15.9588 16.808C17.4015 16.808 18.2559 17.5488 18.7798 18.6602C18.9813 18.4994 19.1425 18.3526 19.3198 18.2338C20.7867 17.2273 22.8823 17.5209 23.9543 18.8978C25.1714 20.4565 26.3723 22.0361 27.5732 23.6017C27.6297 23.6786 27.7022 23.7555 27.7828 23.8603C28.1052 23.7136 28.4195 23.5738 28.7258 23.427C28.9434 23.3221 29.024 23.1544 29.024 22.9237C29.016 19.5408 29.016 16.1649 29.016 12.782C29.016 12.6981 29.0079 12.6213 28.9999 12.5164C27.9118 13.0336 26.7672 13.2922 25.5985 13.5019C23.3014 13.9073 20.9802 14.089 18.6428 14.2009C14.4435 14.3966 10.2684 14.2778 6.10142 13.7605C4.65868 13.5788 3.224 13.3482 1.8538 12.8729C1.55558 12.768 1.27348 12.6492 0.959139 12.5234C0.959139 12.6422 0.959139 12.7401 0.959139 12.8379C0.959139 16.095 0.975261 19.3521 0.943021 22.6162C0.934961 23.1754 1.17676 23.4829 1.7329 23.6646C1.82962 23.6856 1.91828 23.7205 2.04724 23.7695ZM18.9087 7.16247C18.804 7.33721 18.7234 7.47001 18.6508 7.60281C18.3526 8.14799 17.861 8.41359 17.1597 8.4066C15.6928 8.39961 14.2178 8.4066 12.7509 8.4066C12.1142 8.4066 11.6548 8.16196 11.3646 7.6727C11.2679 7.51893 11.1792 7.35818 11.0664 7.16247C9.63169 9.12651 8.23732 11.0486 6.8107 12.9987C12.2915 13.5788 17.6917 13.5858 23.1564 12.9987C21.7378 11.0416 20.3434 9.12651 18.9087 7.16247ZM14.9916 4.21291C10.8891 4.21291 6.79458 4.21291 2.69204 4.21291C2.60338 4.21291 2.50666 4.20592 2.418 4.21291C2.12784 4.23388 1.95052 4.38066 1.9344 4.63228C1.92634 4.84196 1.9344 5.05165 1.9344 5.26133C1.9344 5.77855 2.06336 5.89038 2.6598 5.89038C5.48886 5.89038 8.31792 5.89038 11.155 5.88339C11.3565 5.88339 11.4613 5.92533 11.55 6.08609C11.7595 6.48449 12.0013 6.86891 12.219 7.26032C12.3399 7.477 12.5172 7.56786 12.7912 7.56786C14.2581 7.56087 15.7331 7.56087 17.2 7.56786C17.4741 7.56786 17.6595 7.477 17.7723 7.26032C17.9899 6.8759 18.2236 6.49847 18.4251 6.11405C18.5219 5.93232 18.6428 5.88339 18.8604 5.88339C21.6733 5.89038 24.4782 5.89038 27.2911 5.89038C27.3798 5.89038 27.4765 5.89737 27.5652 5.89038C27.8473 5.86942 28.0327 5.72264 28.0407 5.47102C28.0488 5.26133 28.0407 5.05165 28.0407 4.84196C28.0407 4.32474 27.9118 4.21291 27.3153 4.21291C23.2128 4.21291 19.1022 4.21291 14.9916 4.21291ZM5.06974 20.7151C4.3927 21.7914 3.69148 22.9028 2.97414 24.0491C3.1837 24.098 3.35296 24.1469 3.53028 24.1819C6.83488 24.9018 10.204 25.0905 13.5892 25.1604C13.6859 25.1604 13.8148 25.0905 13.8713 25.0206C14.234 24.5663 14.5725 24.105 14.9352 23.6507C15.0319 23.5318 15.0238 23.448 14.9432 23.3221C14.4032 22.4834 13.8793 21.6377 13.3474 20.7989C13.3151 20.75 13.2748 20.7011 13.2345 20.6522C11.961 21.3232 10.9858 20.8688 10.3571 20.107C10.2201 19.9462 10.075 19.7855 9.92186 19.6317C9.46244 19.1774 8.87406 19.1774 8.41464 19.6317C8.14866 19.8973 7.91492 20.1769 7.64894 20.4355C7.27012 20.7989 6.79458 21.0086 6.23038 20.9597C5.85962 20.9457 5.49692 20.8129 5.06974 20.7151ZM25.4051 22.2947C25.3568 22.3157 25.3245 22.3226 25.3003 22.3366C24.3654 22.8678 23.4546 22.77 22.705 22.0501C22.4793 21.8404 22.294 21.6027 22.0763 21.3791C21.5605 20.8479 20.9641 20.8549 20.4482 21.3861C20.2064 21.6447 19.9807 21.9103 19.7147 22.1549C19.3198 22.5253 18.804 22.728 18.2236 22.6512C17.8448 22.6022 17.4902 22.4555 17.0953 22.3436C16.4021 23.2453 15.6767 24.1958 14.911 25.1883C18.941 25.1464 22.8904 24.9787 26.7914 24.112C26.3159 23.4759 25.8645 22.8888 25.4051 22.2947ZM15.6606 22.7141C16.4827 21.6447 17.2806 20.6172 18.0625 19.5828C18.1108 19.5199 18.1108 19.401 18.0705 19.3242C17.9254 19.0376 17.7642 18.758 17.5869 18.4854C17.2323 17.9402 16.6842 17.6467 15.9588 17.6467C15.2253 17.6467 14.6692 17.9402 14.3146 18.4994C14.1292 18.786 13.976 19.0935 13.7907 19.3801C13.6939 19.5269 13.7101 19.6457 13.8068 19.7925C14.3307 20.6172 14.8465 21.442 15.3704 22.2667C15.4591 22.3995 15.5477 22.5323 15.6606 22.7141ZM5.6017 19.8624C6.045 20.2328 6.53666 20.2468 6.93966 19.8903C7.15728 19.6946 7.3346 19.4709 7.5361 19.2613C7.85044 18.9258 8.19702 18.6252 8.7048 18.5204C9.56722 18.3386 10.2362 18.6252 10.7762 19.1984C11.0019 19.436 11.2034 19.6876 11.4452 19.9043C11.8401 20.2538 12.356 20.2258 12.767 19.8484C12.3237 19.1634 11.9369 18.4435 11.421 17.7935C10.3168 16.4095 7.8988 16.4655 6.86712 17.8913C6.4077 18.5274 6.02888 19.1984 5.6017 19.8624ZM24.8328 21.5468C24.2525 20.792 23.7045 20.0441 23.108 19.3172C22.1811 18.1779 20.3596 18.1779 19.4246 19.3242C19.0055 19.8344 18.6186 20.3656 18.2156 20.8898C18.0463 21.1135 17.8771 21.3371 17.7078 21.5538C18.1269 21.9103 18.6186 21.9242 19.0055 21.5818C19.2231 21.393 19.4004 21.1694 19.6019 20.9597C19.9001 20.6382 20.2306 20.3376 20.7061 20.2258C21.4477 20.0441 22.1086 20.1909 22.6325 20.6801C22.9307 20.9527 23.1725 21.2672 23.4626 21.5398C23.8818 21.9243 24.4137 21.9242 24.8328 21.5468ZM26.1224 12.5164C26.9849 12.3207 27.807 12.132 28.5646 11.7685C28.879 11.6148 29.0724 11.4191 29.024 11.0766C28.9918 10.8809 29.024 10.6782 29.016 10.4755C28.9918 9.89536 28.5566 9.37813 27.8956 9.30125C27.3153 9.23135 26.7189 9.28727 26.1224 9.28727C26.1224 10.3427 26.1224 11.4051 26.1224 12.5164ZM3.86074 9.24533C3.41744 9.24533 3.00638 9.24533 2.59532 9.24533C2.4986 9.24533 2.39382 9.24533 2.2971 9.25232C1.57976 9.30824 1.0075 9.82546 0.97526 10.4475C0.9672 10.6712 0.99138 10.9018 0.9672 11.1255C0.93496 11.4121 1.08004 11.6078 1.35408 11.7196C1.80544 11.9083 2.26486 12.0831 2.7404 12.2298C3.1031 12.3487 3.47386 12.4186 3.8688 12.5164C3.86074 11.4051 3.86074 10.3427 3.86074 9.24533ZM18.0705 3.36718C17.9416 3.13653 17.8529 2.93384 17.6998 2.7591C17.6111 2.65426 17.4257 2.54941 17.2887 2.54941C15.7573 2.53544 14.2259 2.53544 12.7026 2.54941C12.5736 2.54941 12.3963 2.61931 12.3157 2.71017C12.1545 2.90588 12.0497 3.12954 11.9046 3.36718C13.976 3.36718 15.9991 3.36718 18.0705 3.36718ZM3.40938 0.857959C2.79682 0.857959 2.18426 0.857959 1.56364 0.857959C1.18482 0.857959 0.9672 1.02571 0.9672 1.28432C0.97526 1.53594 1.18482 1.6967 1.54752 1.6967C2.76458 1.6967 3.98164 1.6967 5.20676 1.6967C5.58558 1.6967 5.8032 1.52895 5.8032 1.27034C5.79514 1.01173 5.57752 0.857959 5.19064 0.857959C4.5942 0.857959 3.99776 0.857959 3.40938 0.857959ZM26.598 0.857959C25.9854 0.857959 25.3729 0.857959 24.7522 0.857959C24.3976 0.857959 24.18 1.01872 24.18 1.27733C24.18 1.52895 24.3976 1.6967 24.7522 1.6967C25.9774 1.6967 27.2105 1.6967 28.4357 1.6967C28.7903 1.6967 29.0079 1.52895 29.0079 1.27733C29.0079 1.02571 28.7903 0.857959 28.4357 0.857959C27.8231 0.857959 27.2105 0.857959 26.598 0.857959ZM3.84462 3.36718C3.84462 3.09459 3.84462 2.822 3.84462 2.54941C3.53028 2.54941 3.224 2.54941 2.92578 2.54941C2.92578 2.82899 2.92578 3.09459 2.92578 3.36718C3.24012 3.36718 3.53028 3.36718 3.84462 3.36718ZM27.0574 3.36019C27.0574 3.08061 27.0574 2.81501 27.0574 2.5564C26.735 2.5564 26.4287 2.5564 26.1224 2.5564C26.1224 2.83598 26.1224 3.09459 26.1224 3.36019C26.4448 3.36019 26.735 3.36019 27.0574 3.36019Z" fill="#02E602"/>
<path d="M28 15C28 15.3478 28 15.6696 28 16C26.3277 16 24.6807 16 23 16C23 15.6783 23 15.3478 23 15C24.6555 15 26.3193 15 28 15Z" fill="#02E602"/>
<path d="M2 14C2.33043 14 2.65217 14 3 14C3 14.319 3 14.6466 3 15C2.67826 15 2.34783 15 2 15C2 14.6638 2 14.3448 2 14Z" fill="#02E602"/>
<path d="M2 16C2.33913 16 2.65217 16 3 16C3 16.3276 3 16.6552 3 17C2.67826 17 2.34783 17 2 17C2 16.6724 2 16.3534 2 16Z" fill="#02E602"/>
<path d="M24 17C23.6579 17 23.3421 17 23 17C23 16.6752 23 16.3504 23 16C23.3246 16 23.6579 16 24 16C24 16.3419 24 16.6667 24 17Z" fill="#02E602"/>
<path d="M26 17C25.6579 17 25.3421 17 25 17C25 16.6752 25 16.3504 25 16C25.3246 16 25.6579 16 26 16C26 16.3419 26 16.6667 26 17Z" fill="#02E602"/>
<path d="M28 17C27.6579 17 27.3421 17 27 17C27 16.6752 27 16.3504 27 16C27.3246 16 27.6579 16 28 16C28 16.3419 28 16.6667 28 17Z" fill="#02E602"/>
<path d="M3 18C2.65217 18 2.33043 18 2 18C2 17.6609 2 17.3478 2 17C2.32174 17 2.65217 17 3 17C3 17.3217 3 17.6522 3 18Z" fill="#02E602"/>
<path d="M12.6334 11.009C13.6095 12.1099 15.1595 12.3355 16.4039 11C16.6051 11.2436 16.7988 11.4963 17 11.7399C15.8376 13.31 13.4382 13.5266 12 11.7399C12.2086 11.4963 12.4173 11.2617 12.6334 11.009Z" fill="#02E602"/>
<path d="M16.2659 10C16.5196 10.1853 16.7553 10.3573 17 10.536C16.2749 11.1514 14.8338 11.158 14 10.536C14.2538 10.3706 14.5076 10.1985 14.7704 10.0199C15.432 10.2647 15.6495 10.2647 16.2659 10Z" fill="#02E602"/>
<path d="M16.9999 6.49167C17.0083 7.325 16.325 8 15.4917 8C14.675 8 14.0001 7.325 14.0001 6.50833C13.9917 5.675 14.675 5 15.5 5C16.325 5 16.9916 5.675 16.9999 6.49167ZM16 6.48333C15.9916 6.21667 15.7583 5.99167 15.4917 6C15.225 6.00833 15 6.24167 15.0084 6.50833C15.0167 6.78333 15.25 7 15.5167 6.99167C15.7833 6.99167 16.0083 6.75833 16 6.48333Z" fill="#02E602"/>
</svg>
