<svg width="32" height="25" viewBox="0 0 32 25" fill="none" xmlns="http://www.w3.org/2000/svg">
<path d="M31.9833 7.69239C31.7751 7.9766 31.6252 8.37448 31.267 8.42185C30.8922 8.46921 30.9005 8.71552 30.9172 9.01867C30.9255 9.22708 30.9255 9.44497 30.9172 9.65339C30.9088 10.4018 30.484 10.8944 29.826 10.9228C29.5678 10.9323 29.3012 10.9418 29.043 10.9228C28.8514 10.9133 28.7765 10.9607 28.7765 11.207C28.7848 12.6375 28.7848 14.068 28.7765 15.5079C28.7765 15.7164 28.8181 15.8206 29.018 15.7827C29.118 15.7637 29.2263 15.7732 29.3262 15.7827C29.6261 15.8111 29.8426 16.0574 29.8426 16.3795C29.8426 16.6732 29.6427 16.9763 29.3679 16.9763C28.6182 16.9953 27.8685 16.9953 27.1189 16.9763C26.8274 16.9668 26.6358 16.6732 26.6524 16.3416C26.6691 16.029 26.8607 15.8111 27.1605 15.7827C27.7186 15.7353 27.7186 15.7353 27.7186 15.0911C27.7186 13.8217 27.7103 12.5617 27.7269 11.2923C27.7269 10.9891 27.6437 10.9039 27.3938 10.9323C27.1522 10.9607 26.919 10.9418 26.6774 10.9323C26.0111 10.9039 25.6029 10.4207 25.5863 9.66286C25.5696 8.91446 25.5696 8.91446 24.9116 9.09445C23.0041 9.60602 21.2382 10.4776 19.5473 11.5954C19.1642 11.8512 19.0809 12.2586 18.881 12.628C19.3058 12.9407 19.6806 13.3006 19.9888 13.7554C20.272 14.1627 20.3386 14.6174 20.1471 15.0816C19.9472 15.5553 19.5973 15.7732 19.1392 15.7732C17.0401 15.7732 14.9328 15.7732 12.8337 15.7732C12.3756 15.7732 12.0258 15.5458 11.8342 15.0722C11.6509 14.6174 11.7092 14.1722 11.9841 13.7743C12.259 13.367 12.5838 13.0164 12.9587 12.7417C13.0836 12.6564 13.067 12.5996 13.0336 12.448C12.9087 11.927 12.5589 11.6902 12.184 11.4439C10.4681 10.2976 8.64398 9.48287 6.70319 8.99025C6.45331 8.92394 6.36168 8.99025 6.395 9.28392C6.41166 9.40708 6.40333 9.5397 6.395 9.67233C6.37834 10.4207 5.96187 10.9039 5.2955 10.9323C5.0123 10.9418 4.72909 10.9418 4.45422 10.9323C4.30429 10.9228 4.26264 10.9891 4.26264 11.1597C4.27097 12.628 4.27097 14.0964 4.26264 15.5648C4.26264 15.7258 4.30429 15.8016 4.45422 15.7921C4.57916 15.7827 4.70411 15.7827 4.82905 15.7921C5.12058 15.8206 5.31216 16.0385 5.32882 16.3605C5.34548 16.6921 5.1539 16.9763 4.85404 16.9858C4.11271 17.0047 3.37971 17.0047 2.63838 16.9858C2.34685 16.9763 2.13028 16.6826 2.13861 16.37C2.14694 16.0479 2.36351 15.8111 2.66337 15.7827C3.20479 15.7353 3.20479 15.7353 3.20479 15.1101C3.20479 13.8217 3.19646 12.5333 3.21312 11.2354C3.21312 10.9891 3.16314 10.9039 2.93824 10.9228C2.68003 10.9418 2.42181 10.9418 2.15527 10.9228C1.49723 10.8849 1.08076 10.3923 1.07243 9.64391C1.07243 9.51129 1.0641 9.37866 1.07243 9.2555C1.10574 8.8292 1.11408 8.47868 0.597645 8.34606C0.206157 8.24185 0.0229062 7.7966 0.00624715 7.31346C-0.00208238 6.93452 -0.00208238 6.55559 0.00624715 6.17665C0.00624715 5.35247 0.447713 4.85985 1.18071 4.85038C1.77211 4.85038 2.37184 4.83143 2.96323 4.85985C3.23811 4.86932 3.36305 4.80301 3.42136 4.47144C3.52131 3.88409 3.66291 3.29674 3.80452 2.71886C3.86282 2.48203 3.81285 2.42519 3.59628 2.42519C2.59673 2.43466 1.59719 2.43466 0.597645 2.42519C0.247804 2.42519 0.0229067 2.18836 0.0145772 1.83784C0.00624766 1.47785 0.239473 1.23154 0.605972 1.2126C0.680938 1.2126 0.747575 1.2126 0.822541 1.2126C1.83874 1.2126 2.86328 1.2126 3.87948 1.2126C4.07106 1.2126 4.196 1.18417 4.30429 0.966287C4.51253 0.558931 4.84571 0.284203 5.2372 0.123156C5.30383 0.0947356 5.41212 0.104207 5.44543 0C5.69532 0 5.94521 0 6.19509 0C6.70319 0.189468 7.17798 0.426305 7.45285 0.985235C7.55281 1.18418 7.67775 1.2126 7.85267 1.2126C8.88553 1.20312 9.91006 1.2126 10.9429 1.2126C11.476 1.2126 11.7342 1.41154 11.7426 1.81889C11.7426 2.22625 11.4843 2.42519 10.9513 2.42519C9.94338 2.42519 8.93551 2.42519 7.89432 2.42519C8.06091 3.21148 8.2275 3.96935 8.39409 4.71775C8.42741 4.88827 8.55235 4.8409 8.64398 4.8409C9.99336 4.8409 11.3511 4.8409 12.7005 4.8409C12.8421 4.8409 12.917 4.79354 12.9837 4.64196C13.2835 3.96935 13.7916 3.63778 14.4413 3.62831C15.4742 3.61884 16.4987 3.61884 17.5316 3.62831C18.198 3.63778 18.7144 3.96935 19.0226 4.65143C19.0809 4.78406 19.1392 4.8409 19.2808 4.8409C20.6552 4.83143 22.0295 4.8409 23.4039 4.8409C23.4955 4.8409 23.5872 4.85038 23.6205 4.70828C23.7787 3.9504 23.9453 3.20201 24.1119 2.42519C23.1124 2.42519 22.1462 2.42519 21.1799 2.42519C21.0633 2.42519 20.955 2.42519 20.8384 2.42519C20.5052 2.41571 20.2637 2.15993 20.272 1.81889C20.272 1.47785 20.5136 1.22207 20.8551 1.22207C21.8879 1.2126 22.9125 1.20312 23.9453 1.23154C24.2702 1.24101 24.5034 1.1747 24.6783 0.824186C24.8116 0.539984 25.0698 0.378938 25.3197 0.227364C25.4447 0.151577 25.6029 0.161049 25.6945 0.0189479C25.9444 0.0189479 26.1943 0.0189479 26.4442 0.0189479C26.969 0.189469 27.4437 0.454724 27.7269 1.01365C27.8269 1.20312 27.9352 1.23154 28.1018 1.23154C29.1596 1.22207 30.2258 1.24102 31.2837 1.22207C31.6085 1.2126 31.8417 1.32628 32 1.64837C32 1.77153 32 1.88521 32 2.00836C31.8501 2.33993 31.6168 2.45361 31.292 2.44414C30.3508 2.42519 29.4012 2.45361 28.4599 2.43466C28.1851 2.42519 28.1601 2.51045 28.2267 2.79465C28.3767 3.39147 28.5016 4.00725 28.6265 4.61354C28.6682 4.81248 28.7348 4.8788 28.9181 4.8788C29.4678 4.85985 30.0176 4.89775 30.5673 4.86932C31.2337 4.82196 31.7335 5.05879 32 5.78824C31.9833 6.41349 31.9833 7.05768 31.9833 7.69239ZM13.8583 8.47868C13.8583 9.46392 13.8583 10.4397 13.8583 11.4249C13.8583 11.9175 14.0498 12.1449 14.483 12.1449C15.4825 12.1544 16.4821 12.1544 17.4816 12.1449C17.9231 12.1449 18.1063 11.9175 18.1063 11.4249C18.1063 9.48286 18.1063 7.54082 18.1063 5.59877C18.1063 5.08721 17.9148 4.85985 17.465 4.85985C16.4737 4.85985 15.4909 4.85985 14.4996 4.85985C14.0498 4.85985 13.8583 5.07774 13.8583 5.59877C13.8583 6.56506 13.8583 7.52187 13.8583 8.47868ZM19.1808 10.4207C19.3141 10.3449 19.4057 10.2976 19.489 10.2407C20.5386 9.55865 21.6297 8.99025 22.7709 8.53553C25.1615 7.56924 27.6353 7.2282 30.1592 7.28504C30.4007 7.29451 30.7256 7.41767 30.8755 7.2282C30.9921 7.06715 30.9005 6.70716 30.9255 6.44191C30.9505 6.14823 30.8755 6.06297 30.609 6.07244C28.7015 6.09139 26.8024 6.08192 24.8949 6.08192C23.0874 6.08192 21.2716 6.08192 19.464 6.08192C19.2891 6.08192 19.1808 6.09139 19.1808 6.35665C19.1892 7.68292 19.1808 9.01867 19.1808 10.4207ZM12.8004 10.4397C12.8004 9.06604 12.7921 7.75871 12.8087 6.46085C12.8087 6.14823 12.7504 6.07244 12.4672 6.07244C8.93551 6.08192 5.41212 6.08192 1.88039 6.08192C1.01412 6.08192 1.02245 6.08192 1.05577 7.07662C1.0641 7.24714 1.10575 7.29451 1.24735 7.29451C1.7138 7.28504 2.18026 7.29451 2.65504 7.29451C5.4371 7.29451 8.10256 7.91028 10.6514 9.18919C11.3761 9.5397 12.0674 9.95653 12.8004 10.4397ZM24.67 4.85985C25.6029 4.85985 26.4942 4.85985 27.3938 4.85985C27.552 4.85985 27.5604 4.79354 27.527 4.64196C27.3271 3.75146 27.1355 2.85149 26.9273 1.96099C26.819 1.4968 26.5025 1.22207 26.1193 1.2126C25.7362 1.2126 25.4113 1.4968 25.303 1.95152C25.0948 2.9178 24.8866 3.86514 24.67 4.85985ZM7.31125 4.85985C7.09468 3.87462 6.89477 2.91781 6.67821 1.97047C6.56992 1.50627 6.2534 1.23154 5.87024 1.23154C5.48708 1.23154 5.17056 1.50627 5.06227 1.97047C4.85404 2.86097 4.67079 3.76094 4.46255 4.65143C4.4209 4.8409 4.47088 4.86932 4.62081 4.86932C5.49541 4.85985 6.37834 4.85985 7.31125 4.85985ZM12.7921 14.5511C14.9494 14.5511 17.0485 14.5511 19.1975 14.5511C18.7227 13.8406 18.1646 13.3859 17.4066 13.367C16.4904 13.348 15.5742 13.3575 14.6662 13.367C13.8666 13.367 13.2919 13.8122 12.7921 14.5511ZM3.71289 9.7197C4.03774 9.7197 4.35427 9.7197 4.67912 9.7197C5.35381 9.7197 5.34548 9.7197 5.32882 8.95235C5.32882 8.75341 5.27051 8.70605 5.09559 8.67763C4.37925 8.57342 3.67124 8.53553 2.9549 8.50711C2.10529 8.47869 2.11362 8.47869 2.12195 9.45444C2.12195 9.68181 2.18859 9.72917 2.37184 9.72917C2.8133 9.71023 3.2631 9.7197 3.71289 9.7197ZM28.2517 9.7197C28.5183 9.7197 28.7931 9.72917 29.0597 9.7197C29.3179 9.71023 29.6677 9.85233 29.801 9.65339C29.9259 9.47339 29.826 9.08498 29.851 8.79131C29.8676 8.56395 29.8093 8.48816 29.5928 8.48816C28.8264 8.5071 28.0518 8.52605 27.2855 8.61131C26.6191 8.67763 26.6274 8.67763 26.6358 9.45444C26.6358 9.65339 26.6858 9.7197 26.8607 9.7197C27.3355 9.71023 27.7936 9.7197 28.2517 9.7197Z" fill="#02E602"/>
<path d="M21.3093 18.9995C20.7947 18.981 19.8601 17.8259 20.0177 17.4008C20.1647 17.0034 20.7737 16.8556 21.1098 17.1698C21.4143 17.4655 21.6873 17.7982 21.9184 18.1493C22.1704 18.5374 21.8028 19.018 21.3093 18.9995Z" fill="#02E602"/>
<path d="M12 17.6783C12 17.7245 11.9582 17.8446 11.8745 17.9462C11.6548 18.2141 11.4456 18.4912 11.2051 18.7498C10.954 19.0362 10.5775 19.0731 10.2742 18.8791C9.98128 18.6852 9.90806 18.3434 10.1277 18.057C10.3474 17.7707 10.5775 17.4936 10.8181 17.2257C11.0063 17.0133 11.2678 16.9486 11.5502 17.041C11.8326 17.1334 11.9791 17.3181 12 17.6783Z" fill="#02E602"/>
<path d="M8.2846 23.0001C8.80873 22.9906 9.17242 23.4978 8.9157 23.8901C8.70177 24.2155 8.44505 24.5218 8.15624 24.8089C7.93161 25.0385 7.61071 25.0577 7.32191 24.8854C7.0331 24.7132 6.91544 24.4548 7.06519 24.1677C7.26842 23.7944 7.56793 23.4691 7.87813 23.1533C7.98509 23.048 8.14554 23.0193 8.2846 23.0001Z" fill="#02E602"/>
<path d="M22.6787 20.0002C23.2097 19.9809 24.1524 21.111 23.979 21.5649C23.8165 22.0092 23.1989 22.1541 22.8413 21.8064C22.5487 21.5263 22.2995 21.2076 22.0828 20.8695C21.8336 20.4832 22.1803 20.0099 22.6787 20.0002Z" fill="#02E602"/>
<path d="M23.6878 23C24.2103 23 25.1357 24.1261 24.9833 24.563C24.8309 24.9998 24.1994 25.1551 23.8402 24.8154C23.5571 24.5435 23.3067 24.2329 23.089 23.9125C22.8277 23.5145 23.1761 23.0097 23.6878 23Z" fill="#02E602"/>
<path d="M9.70794 21.9986C9.16909 21.9986 8.82422 21.5037 9.09365 21.0962C9.29841 20.776 9.55707 20.4752 9.82649 20.1938C10.0528 19.9609 10.3761 19.9415 10.6671 20.1162C10.9581 20.2811 11.0874 20.5431 10.9365 20.8342C10.7425 21.2223 10.4408 21.5522 10.1175 21.8627C10.0205 21.9695 9.85882 22.0083 9.70794 21.9986Z" fill="#02E602"/>
<path d="M15.9981 24.021C15.9981 24.0731 15.9981 24.1251 15.9981 24.1772C15.9903 24.698 15.7973 25 15.4961 25C15.195 25 15.0097 24.6875 15.0019 24.1668C15.0019 23.9897 14.9942 23.8023 15.0097 23.6252C15.0405 23.2503 15.249 22.9899 15.5039 23.0003C15.7587 23.0003 15.9595 23.2607 15.9903 23.646C16.0058 23.7606 15.9981 23.8856 15.9981 24.021Z" fill="#02E602"/>
<path d="M15.9931 18.0052C16.0009 18.6754 15.8457 19 15.5043 19C15.1707 19 15 18.6754 15 18.0157C15 17.8901 15 17.7539 15.0078 17.6283C15.0388 17.2408 15.2405 17 15.5121 17C15.7681 17.0105 15.9543 17.2408 15.9931 17.6178C16.0086 17.7435 15.9931 17.8796 15.9931 18.0052Z" fill="#02E602"/>
<path d="M12.9997 23.7908C12.9644 23.9992 12.9361 24.3014 12.8653 24.5827C12.7946 24.8953 12.554 25.062 12.3489 24.9787C12.1154 24.8849 11.981 24.6452 12.0022 24.291C12.0163 24.0097 12.0659 23.7283 12.1295 23.4574C12.2003 23.124 12.4125 22.9573 12.6248 23.0094C12.8653 23.0719 13.0068 23.3428 12.9997 23.7908Z" fill="#02E602"/>
<path d="M15.9931 21.0002C16.0009 21.6948 15.8534 21.9895 15.5043 22C15.1552 22 15 21.6948 15 21.0107C15 20.8844 15 20.7476 15.0078 20.6213C15.0388 20.2319 15.2405 19.9898 15.5121 20.0003C15.7681 20.0109 15.9543 20.2424 15.9931 20.6108C16.0086 20.737 15.9931 20.8633 15.9931 21.0002Z" fill="#02E602"/>
<path d="M18 23.7636C18.0071 23.3056 18.1417 23.0871 18.3755 23.0142C18.6022 22.9517 18.7864 23.0975 18.8644 23.4097C18.9352 23.7012 18.9848 24.003 18.999 24.3153C19.0132 24.6692 18.8785 24.9086 18.6447 24.9815C18.418 25.0543 18.2338 24.9086 18.1488 24.6068C18.0638 24.3153 18.0354 23.9926 18 23.7636Z" fill="#02E602"/>
<path d="M13.0009 21.2068C13.0362 20.9874 13.0644 20.7052 13.1208 20.4439C13.1983 20.0991 13.4309 19.9319 13.6706 20.0259C13.882 20.1095 14.03 20.4335 13.9948 20.7783C13.9666 21.0292 13.9314 21.2904 13.875 21.5308C13.8045 21.8756 13.593 22.0428 13.3604 21.9906C13.1349 21.9174 12.9868 21.6248 13.0009 21.2068Z" fill="#02E602"/>
<path d="M19 21.2314C18.9929 21.6601 18.8797 21.8902 18.6604 21.9739C18.4269 22.0575 18.2288 21.9425 18.1439 21.5974C18.0732 21.3046 18.0166 21.0013 18.0024 20.698C17.9812 20.3634 18.1015 20.1124 18.3279 20.0288C18.5543 19.9451 18.7594 20.0392 18.8514 20.3739C18.9293 20.6667 18.9646 20.9909 19 21.2314Z" fill="#02E602"/>
<path d="M18.0003 17.7255C17.9932 17.3608 18.1345 17.0899 18.3536 17.017C18.5657 16.944 18.7918 17.1107 18.8625 17.4338C18.9261 17.7151 18.9685 18.0069 18.9968 18.3091C19.0251 18.6425 18.8625 18.9239 18.6434 18.9864C18.4243 19.0489 18.2052 18.8926 18.1275 18.58C18.078 18.382 18.0568 18.1736 18.0215 17.9756C18.0144 17.8923 18.0073 17.7985 18.0003 17.7255Z" fill="#02E602"/>
<path d="M14.9997 17.8072C14.9642 18.0168 14.9357 18.3104 14.8645 18.5935C14.7933 18.908 14.5656 19.0548 14.345 18.9814C14.1315 18.908 13.9749 18.6249 14.0033 18.2894C14.0247 18.0064 14.0674 17.7233 14.1315 17.4507C14.2097 17.1047 14.3948 16.9579 14.6297 17.0103C14.8645 17.0523 15.0069 17.3458 14.9997 17.8072Z" fill="#02E602"/>
<path d="M15.5039 7.0002C15.7873 7.0002 16.0077 7.22845 15.9998 7.51181C15.9919 7.77942 15.7715 7.9998 15.5118 7.9998C15.2363 8.00767 15.0002 7.77942 15.0002 7.49606C14.9923 7.22058 15.2206 6.99233 15.5039 7.0002Z" fill="#02E602"/>
</svg>
