<svg width="30" height="27" viewBox="0 0 30 27" fill="none" xmlns="http://www.w3.org/2000/svg">
<path d="M30 18.1949C29.8594 18.3426 29.7344 18.4972 29.586 18.6308C28.7891 19.355 27.9845 20.0721 27.1876 20.7822C27.9064 22.1601 27.7501 23.292 26.7502 24.1568C26.0158 24.7966 24.6331 25.2676 23.1019 24.4591C22.7113 24.8177 22.3051 25.1762 21.9067 25.5348C21.4379 25.9566 20.9692 26.3855 20.4927 26.8003C20.2114 27.0463 19.8755 27.0604 19.6333 26.8495C19.3755 26.6315 19.3834 26.3152 19.6724 26.055C20.5317 25.2746 21.3989 24.5013 22.2738 23.7139C21.8989 23.1725 21.7426 22.589 21.8051 21.9563C21.8129 21.907 21.7739 21.8367 21.727 21.7946C20.8833 21.0282 20.0318 20.2619 19.1568 19.4745C19.1178 19.5659 19.0865 19.6292 19.0709 19.6924C18.9224 20.0932 18.6412 20.4025 18.235 20.6064C16.0788 21.675 13.9149 21.668 11.7588 20.6064C11.2822 20.3674 10.9932 19.9947 10.8604 19.4885C10.7666 19.5659 10.6963 19.6151 10.626 19.6784C9.87604 20.3533 9.12608 21.0353 8.36831 21.7102C8.24331 21.8227 8.18081 21.9281 8.19644 22.0969C8.2355 22.6804 8.13394 23.0108 7.72771 23.7279C8.33706 24.2693 8.95421 24.8247 9.57137 25.3731C9.82917 25.6051 10.087 25.8301 10.337 26.0621C10.6104 26.3152 10.6182 26.6175 10.3838 26.8354C10.1417 27.0604 9.79011 27.0604 9.50106 26.8003C8.66517 26.055 7.82927 25.2957 6.99338 24.5435C6.96994 24.5224 6.93869 24.4943 6.89182 24.4591C6.18873 24.8388 5.43877 24.9864 4.62631 24.8177C4.01697 24.6911 3.50918 24.4169 3.08733 23.9951C2.36862 23.271 1.98582 22.0406 2.86859 20.7189C2.79828 20.6837 2.68891 20.6556 2.61079 20.5923C1.85302 19.9174 1.10306 19.2425 0.353095 18.5605C0.29841 18.5113 0.243725 18.4621 0.18904 18.4129C-0.0531345 18.1668 -0.053135 17.8715 0.181228 17.6606C0.415591 17.4497 0.751512 17.4497 1.01712 17.6747C1.53272 18.1176 2.0327 18.5816 2.53267 19.0316C2.90765 19.369 3.27482 19.7065 3.6498 20.051C4.25914 19.7065 4.89974 19.5729 5.59501 19.6221C5.67313 19.6292 5.77469 19.5659 5.83719 19.5096C7.32149 18.1738 8.8136 16.8451 10.2901 15.5023C10.376 15.4249 10.4307 15.2913 10.4229 15.1859C10.3057 13.9415 10.1807 12.7041 10.0479 11.4597C10.0323 11.3402 9.95416 11.2066 9.86042 11.1223C8.53236 9.92004 7.2043 8.71782 5.86062 7.52264C5.7825 7.45233 5.6497 7.38203 5.54814 7.38203C4.8763 7.41718 4.25133 7.2836 3.6498 6.94613C3.37638 7.19923 3.10295 7.4453 2.82953 7.69137C2.24362 8.21865 1.65772 8.75297 1.064 9.27323C0.759324 9.54039 0.40778 9.55445 0.165605 9.32244C-0.0765698 9.09747 -0.053134 8.79516 0.235914 8.528C1.09524 7.76167 1.95457 6.99535 2.81391 6.22199C2.07176 4.97056 2.1655 3.81053 3.31388 2.80517C4.24352 1.98963 5.44658 1.91933 6.91526 2.53801C7.71209 1.81387 8.51674 1.08973 9.32138 0.358556C9.462 0.232007 9.62605 0.119519 9.7823 0C9.89948 0 10.0167 0 10.1338 0C10.6494 0.316373 10.6885 0.618684 10.2354 1.02645C9.46981 1.71544 8.70423 2.40443 7.93083 3.09342C7.85271 3.15669 7.74334 3.19185 7.68084 3.227C8.11051 3.95114 8.20425 4.31673 8.19644 4.92838C8.19644 5.0479 8.25894 5.20257 8.35268 5.28694C9.03233 5.91968 9.72761 6.53133 10.4151 7.15705C10.4698 7.20626 10.5244 7.24142 10.5713 7.2836C11.8681 6.29933 13.2821 5.60331 15.0008 5.61034C16.7194 5.61737 18.1256 6.31339 19.399 7.29766C20.1646 6.60867 20.9302 5.92671 21.6801 5.23772C21.7348 5.18851 21.7895 5.10414 21.7817 5.03384C21.727 4.40812 21.8832 3.83162 22.2582 3.2973C21.4067 2.53801 20.5708 1.78575 19.7427 1.03348C19.2974 0.632746 19.3287 0.330434 19.8443 0.0140619C19.9615 0.0140619 20.0786 0.0140619 20.1958 0.0140619C20.3521 0.13358 20.5161 0.239036 20.6567 0.372616C21.3989 1.03348 22.1332 1.69435 22.8676 2.36928C22.9379 2.43255 22.9691 2.53801 23.0082 2.60129C24.5003 1.79981 25.8908 2.15836 26.6877 2.83329C27.1408 3.21997 27.4376 3.68398 27.5704 4.22533C27.7345 4.93541 27.5782 5.59628 27.1486 6.22199C27.9454 6.9391 28.7344 7.64215 29.5156 8.35223C29.6797 8.49987 29.8203 8.66861 29.9766 8.82328C29.9766 8.92874 29.9766 9.03419 29.9766 9.13965C29.6172 9.60366 29.2891 9.63178 28.8438 9.23105C28.0782 8.54206 27.3126 7.85307 26.5471 7.15705C26.4767 7.08674 26.4377 6.98832 26.3986 6.91801C25.7346 7.29063 25.1252 7.42421 24.4612 7.38906C24.3519 7.38203 24.219 7.4453 24.1409 7.5156C22.7972 8.71782 21.4536 9.92004 20.1255 11.1293C20.0396 11.2066 19.9615 11.3332 19.9536 11.4386C19.813 12.6901 19.688 13.9415 19.5709 15.1929C19.563 15.2913 19.6177 15.4179 19.6958 15.4882C21.1801 16.838 22.6723 18.1738 24.1644 19.5167C24.2269 19.5729 24.3284 19.6362 24.4065 19.6292C25.1018 19.5799 25.7424 19.7206 26.3439 20.058C27.1876 19.2917 28.0235 18.5394 28.8594 17.7942C29.3047 17.3935 29.6406 17.4216 29.9922 17.8856C30 17.984 30 18.0895 30 18.1949ZM12.4775 7.36796C11.1572 7.99368 10.8916 8.52097 11.04 9.61772C11.0479 9.681 11.0557 9.73724 11.0635 9.80052C11.376 12.9291 11.6884 16.0647 12.0166 19.1933C12.0322 19.3409 12.1259 19.5378 12.2509 19.6151C12.54 19.7909 12.8759 19.9104 13.2352 20.0721C13.2352 19.2495 13.2274 18.4832 13.2352 17.7239C13.2431 16.838 14.0086 16.142 14.9695 16.135C15.946 16.128 16.7351 16.824 16.7429 17.7169C16.7507 18.3988 16.7429 19.0878 16.7429 19.7698C16.7429 19.8541 16.7507 19.9385 16.7585 20.0651C17.1022 19.9104 17.4225 19.7979 17.6959 19.6292C17.8288 19.5518 17.9303 19.369 17.9616 19.2144C18.0319 18.8136 18.0475 18.4129 18.0944 18.0121C18.2584 16.367 18.4303 14.7219 18.5943 13.0838C18.7271 11.7901 18.8678 10.4965 18.9693 9.20292C19.0318 8.39442 18.3912 7.62106 17.5006 7.38203C17.3444 8.61939 17.1882 9.86379 17.0397 11.1012C16.9929 11.4808 16.7507 11.6847 16.3757 11.6566C16.032 11.6284 15.8289 11.3683 15.8679 11.0027C15.946 10.3137 16.0398 9.62476 16.1257 8.93577C16.2117 8.24678 16.2898 7.56482 16.3757 6.88286C15.532 6.56649 14.2821 6.57352 13.579 6.90395C13.7196 8.05695 13.8602 9.21699 14.0086 10.377C14.1336 11.3824 14.2664 12.3807 14.3836 13.3861C14.4227 13.7376 14.1961 13.9977 13.8524 14.0258C13.5165 14.054 13.2587 13.836 13.2196 13.4986C13.0399 12.0643 12.8681 10.6371 12.6884 9.20292C12.6337 8.59127 12.5556 7.98665 12.4775 7.36796ZM5.28253 6.32745C6.24342 6.32745 7.02463 5.61737 7.03244 4.75262C7.03244 3.87381 6.24342 3.16373 5.2669 3.16373C4.30602 3.16373 3.52481 3.87381 3.51699 4.73856C3.51699 5.61737 4.30602 6.32745 5.28253 6.32745ZM26.4846 4.73856C26.4767 3.87381 25.6955 3.17076 24.7346 3.16373C23.7581 3.16373 22.9691 3.87381 22.9769 4.75262C22.9847 5.6244 23.7816 6.33448 24.7581 6.32745C25.7112 6.31339 26.4924 5.60331 26.4846 4.73856ZM7.03244 22.2515C7.03244 21.3868 6.25123 20.6767 5.29034 20.6697C4.31383 20.6626 3.51699 21.3727 3.51699 22.2515C3.51699 23.1163 4.2982 23.8264 5.25909 23.8334C6.2356 23.8404 7.03244 23.1303 7.03244 22.2515ZM26.4846 22.2515C26.4846 21.3868 25.7033 20.6767 24.7425 20.6697C23.7659 20.6626 22.9691 21.3727 22.9691 22.2515C22.9691 23.1163 23.7503 23.8264 24.7112 23.8334C25.6877 23.8404 26.4846 23.1233 26.4846 22.2515ZM7.80583 20.747C7.72771 20.7611 7.74334 20.7611 7.75115 20.754C8.71204 19.8963 9.67293 19.0316 10.6338 18.1738C10.6729 18.1387 10.7197 18.0824 10.7119 18.0403C10.6729 17.6184 10.626 17.2036 10.5869 16.831C9.37607 17.9207 8.173 19.0034 7.03244 20.0299C7.25899 20.2478 7.51679 20.4798 7.80583 20.747ZM19.4146 16.8099C19.3755 17.1474 19.3521 17.5059 19.2974 17.8575C19.274 18.0192 19.3131 18.1317 19.4459 18.2512C20.3286 19.0316 21.2036 19.826 22.0785 20.6134C22.141 20.6697 22.2113 20.7259 22.2738 20.7822C22.2582 20.747 22.2426 20.7189 22.2192 20.6837C22.4848 20.4588 22.7504 20.2267 22.9769 20.0369C21.8285 18.9964 20.6255 17.9067 19.4146 16.8099ZM7.81365 6.26418C7.50898 6.5243 7.23555 6.75631 7.009 6.95316C7.93083 7.78276 8.89172 8.64752 9.79792 9.46305C9.84479 9.11153 9.90729 8.70376 9.95416 8.28896C9.96197 8.23975 9.92291 8.16944 9.87604 8.13429C9.17295 7.50154 8.46205 6.86177 7.81365 6.26418ZM20.2036 9.47009C21.1255 8.64049 22.0942 7.77573 22.9925 6.97426C22.7504 6.75631 22.4926 6.5243 22.227 6.28527C22.2738 6.22902 22.2504 6.22902 22.2348 6.24308C21.5317 6.87583 20.8286 7.50154 20.1255 8.13429C20.0864 8.17647 20.0396 8.23975 20.0474 8.28896C20.0943 8.71079 20.1568 9.12559 20.2036 9.47009ZM15.5867 20.3181C15.5867 19.4182 15.5945 18.5394 15.5789 17.6676C15.5711 17.3864 15.2898 17.1825 14.993 17.1896C14.7039 17.1966 14.4305 17.3935 14.4305 17.6676C14.4149 18.5465 14.4227 19.4182 14.4227 20.3252C14.8133 20.3181 15.1883 20.3181 15.5867 20.3181Z" fill="#02E602"/>
<path d="M14.8831 1C16.246 1.01326 17.4185 1.26522 18.4616 1.89512C18.5681 1.96143 18.6823 2.02774 18.7813 2.1073C19.0402 2.31285 19.0707 2.59796 18.8651 2.81677C18.6595 3.03558 18.3321 3.0621 18.0504 2.86981C17.4565 2.45872 16.7865 2.20676 16.0404 2.09404C14.5557 1.87523 13.17 2.05426 11.9442 2.87645C11.6625 3.0621 11.3351 3.03558 11.1295 2.81677C10.924 2.59133 10.962 2.29959 11.2513 2.09404C12.1041 1.49066 13.0863 1.17902 14.1674 1.05967C14.4415 1.02652 14.7156 1.01326 14.8831 1Z" fill="#02E602"/>
<path d="M17 4.27098C16.8545 4.50569 16.7703 4.72234 16.6248 4.85775C16.441 5.0383 16.2189 4.99316 16.0045 4.8397C15.254 4.30709 14.45 4.23487 13.6306 4.49666C13.3855 4.57791 13.1558 4.72234 12.9337 4.86678C12.6045 5.08343 12.2905 5.03829 12.0991 4.71332C11.9153 4.38834 11.9918 4.00017 12.2905 3.73838C13.3855 2.78149 15.4991 2.74538 16.6095 3.68421C16.755 3.81962 16.8468 4.0453 17 4.27098Z" fill="#02E602"/>
<path d="M17 13.5034C17 13.7782 16.76 14.0129 16.4867 13.9995C16.22 13.9927 16 13.7648 16 13.4966C16 13.2218 16.24 12.9871 16.5133 13.0005C16.78 13.0073 17 13.2352 17 13.5034Z" fill="#02E602"/>
<path d="M5.50356 4C5.77183 4 5.99986 4.22148 5.99986 4.48993C6.00657 4.7651 5.77183 5 5.49685 5C5.22187 5 4.98713 4.75839 5.00055 4.48322C5.00725 4.22148 5.23529 4 5.50356 4Z" fill="#02E602"/>
<path d="M24.4897 4.00015C24.758 3.99344 24.986 4.21485 24.9994 4.47652C25.0129 4.75161 24.7848 4.99315 24.5098 4.99986C24.2348 5.00657 24 4.77174 24 4.49665C24 4.23498 24.2214 4.00686 24.4897 4.00015Z" fill="#02E602"/>
<path d="M6 22.5C6 22.7733 5.7651 23.0065 5.48993 22.9999C5.22148 22.9932 5 22.7666 5 22.5C5 22.2267 5.2349 21.9935 5.51007 22.0001C5.77852 22.0068 6 22.2334 6 22.5Z" fill="#02E602"/>
<path d="M25 22.5067C24.9933 22.7799 24.7533 23.0065 24.48 22.9999C24.2133 22.9865 24 22.7599 24 22.4933C24.0067 22.2201 24.24 21.9935 24.52 22.0001C24.7867 22.0135 25 22.2401 25 22.5067Z" fill="#02E602"/>
</svg>
