<svg width="30" height="30" viewBox="0 0 30 30" fill="none" xmlns="http://www.w3.org/2000/svg">
<path d="M19.8573 10.5888C19.4859 10.1047 19.1305 9.60454 18.7429 9.12854C17.79 7.98291 17.3863 6.66786 17.4186 5.18338C17.4832 2.49679 19.5989 0.262006 22.3284 0.0199714C24.9367 -0.213995 27.4401 1.63354 27.9569 4.20717C28.3122 5.98209 27.9892 7.61179 26.8345 9.0398C26.4226 9.54807 26.0431 10.0725 25.5989 10.6534C27.1171 10.6534 28.5545 10.6534 30 10.6534C30 17.1157 30 23.5457 30 30C20.0108 30 10.0135 30 0 30C0 23.578 0 17.1399 0 10.6776C6.59758 10.6776 13.2032 10.6776 19.8089 10.6776C19.8331 10.6372 19.8493 10.613 19.8573 10.5888ZM29.039 11.6215C27.755 11.6215 26.4872 11.6215 25.2194 11.6215C25.1709 11.6215 25.0902 11.6538 25.074 11.6941C24.9287 12.033 24.7995 12.3718 24.6541 12.7349C24.7752 12.7591 24.8318 12.7671 24.8964 12.7833C25.8089 12.9688 26.7052 13.2109 27.4482 13.8159C28.3284 14.5421 28.3042 15.5425 27.3997 16.2444C26.8748 16.6558 26.2692 16.914 25.6231 17.0592C24.8479 17.2286 24.0646 17.3416 23.2409 17.4868C23.2409 17.5433 23.2409 17.6401 23.2409 17.7369C23.2409 18.4227 23.2409 19.1084 23.2409 19.7942C23.2328 20.6736 22.6191 21.2948 21.7308 21.2948C20.1561 21.3029 18.5814 21.3029 17.0067 21.2948C16.1023 21.2948 15.4966 20.6736 15.4886 19.77C15.4886 19.0762 15.4886 18.3823 15.4886 17.6804C15.4886 17.1802 15.3432 16.9543 15.0202 16.9382C14.681 16.9301 14.5195 17.1641 14.5195 17.6804C14.5195 20.6171 14.5276 23.5457 14.5114 26.4824C14.5114 26.8051 14.4065 27.1682 14.245 27.4506C13.93 27.9911 13.2517 28.1928 12.6541 28.0153C12.0646 27.8378 11.6366 27.2892 11.6285 26.668C11.6205 25.7241 11.6285 24.772 11.6205 23.8281C11.6205 23.4893 11.4751 23.2876 11.2005 23.2553C11.0067 23.2311 10.8048 23.2472 10.611 23.2472C10.4011 24.3525 9.8358 25.1754 8.88291 25.716C8.72948 25.8047 8.70525 25.9015 8.70525 26.0548C8.71332 26.9746 8.70525 27.8862 8.70525 28.806C8.70525 28.8866 8.7214 28.9592 8.7214 29.0319C15.5047 29.0319 22.2719 29.0319 29.039 29.0319C29.039 23.215 29.039 17.4303 29.039 11.6215ZM10.611 22.271C10.7887 22.271 10.9502 22.271 11.1036 22.271C11.9515 22.2872 12.5653 22.9003 12.5733 23.7555C12.5814 24.2315 12.5733 24.6994 12.5733 25.1754C12.5733 25.6595 12.5653 26.1436 12.5814 26.6276C12.5895 26.9181 12.7995 27.1117 13.0579 27.1117C13.3244 27.1117 13.5182 26.9181 13.5424 26.6276C13.5505 26.5389 13.5424 26.4502 13.5424 26.3533C13.5424 23.4005 13.5424 20.4477 13.5424 17.4868C13.5424 16.6316 14.1642 15.9781 14.9798 15.9781C15.8116 15.9701 16.4415 16.6235 16.4415 17.4949C16.4495 18.2371 16.4415 18.9874 16.4415 19.7297C16.4415 20.1492 16.611 20.3267 17.0229 20.3267C18.5733 20.3267 20.1319 20.3267 21.6824 20.3267C22.07 20.3267 22.2476 20.1411 22.2476 19.7458C22.2476 19.3747 22.2476 19.0036 22.2476 18.6244C22.2476 18.221 22.2476 17.8257 22.2476 17.4384C21.6985 17.3658 21.1817 17.3254 20.6729 17.2286C19.7443 17.0673 18.8398 16.8091 18.0807 16.2202C17.1925 15.5344 17.1602 14.5178 18.0404 13.8159C18.3715 13.5497 18.7672 13.3399 19.1629 13.1786C19.6797 12.9769 20.2369 12.8478 20.8102 12.6784C20.7133 12.4202 20.6003 12.154 20.5114 11.8797C20.4388 11.6618 20.3257 11.5973 20.0915 11.5973C16.3849 11.6054 12.6864 11.6054 8.97981 11.6054C8.88291 11.6054 8.786 11.6134 8.69717 11.6215C8.6891 11.6699 8.67295 11.686 8.67295 11.7022C8.67295 14.3 8.67295 16.9059 8.67295 19.5038C8.67295 19.5925 8.74562 19.7135 8.82638 19.7539C9.82772 20.3267 10.4011 21.1496 10.611 22.271ZM4.81292 29.0319C4.82099 28.9754 4.82907 28.935 4.82907 28.8947C4.82907 27.6926 4.83714 26.4986 4.82099 25.2965C4.82099 25.1835 4.75639 25.0464 4.67564 24.9576C3.58546 23.6506 3.58546 21.8515 4.67564 20.5445C4.76447 20.4396 4.82099 20.2783 4.82099 20.1411C4.83714 19.415 4.82907 18.6889 4.82907 17.9628C4.82907 17.7853 4.82907 17.6078 4.82907 17.4303C3.52086 17.4303 2.25303 17.4303 0.969044 17.4303C0.969044 21.2948 0.969044 25.1512 0.969044 29.0157C2.25303 29.0319 3.51278 29.0319 4.81292 29.0319ZM27.1171 5.37701C27.1252 2.52906 24.5653 0.447565 21.747 1.09299C19.3082 1.65774 17.8546 4.23944 18.5491 6.74853C18.7914 7.636 19.3324 8.32983 19.8896 9.01559C20.5922 9.88692 21.2059 10.8066 21.5693 11.8716C21.8035 12.5654 21.9569 13.2835 22.1346 13.9934C22.2153 14.3162 22.4415 14.5178 22.7483 14.5178C23.0471 14.5178 23.2894 14.3242 23.3701 14.0015C23.3863 13.937 23.4024 13.8644 23.4105 13.7917C23.5639 12.7752 23.8466 11.7909 24.3715 10.9115C24.9044 10.0241 25.5182 9.18502 26.14 8.35403C26.786 7.49884 27.1252 6.55491 27.1171 5.37701ZM7.71198 19.3021C7.71198 16.7849 7.71198 14.2113 7.71198 11.6376C7.06595 11.6376 6.44414 11.6376 5.79004 11.6376C5.79004 12.6058 5.79004 13.5578 5.79004 14.534C4.15881 14.534 2.55989 14.534 0.960969 14.534C0.960969 15.1875 0.960969 15.8087 0.960969 16.4622C2.57604 16.4622 4.16689 16.4622 5.79811 16.4622C5.79811 17.5433 5.79811 18.6002 5.79811 19.5925C6.44414 19.4957 7.06595 19.4069 7.71198 19.3021ZM24.4361 13.6949C24.1454 14.9374 23.677 15.4779 22.8371 15.4699C22.5141 15.4699 22.1588 15.3569 21.8681 15.1955C21.3109 14.8809 21.1655 14.3 21.1009 13.6788C20.8668 13.7191 20.6649 13.7514 20.4711 13.7998C19.8008 13.9692 19.1386 14.1467 18.6137 14.6227C18.3149 14.897 18.2988 15.1471 18.6218 15.3811C18.9367 15.6231 19.2921 15.841 19.6635 15.962C21.5693 16.5993 23.5074 16.5993 25.4455 16.0991C25.9785 15.962 26.4872 15.7684 26.8991 15.3892C27.1978 15.1149 27.1898 14.897 26.8991 14.6227C26.7941 14.5259 26.681 14.4372 26.5599 14.3646C25.9058 13.9854 25.1871 13.8079 24.4361 13.6949ZM7.25168 20.3347C5.91925 20.3347 4.82907 21.4239 4.82907 22.7632C4.82907 24.0863 5.91117 25.1674 7.23553 25.1754C8.57604 25.1835 9.66622 24.0944 9.67429 22.7632C9.67429 21.4239 8.58412 20.3347 7.25168 20.3347ZM0.960969 13.5336C2.26918 13.5336 3.53701 13.5336 4.81292 13.5336C4.81292 12.8881 4.81292 12.2669 4.81292 11.6376C3.52086 11.6376 2.25303 11.6376 0.960969 11.6376C0.960969 12.275 0.960969 12.8962 0.960969 13.5336ZM7.72813 26.2081C7.06595 26.1032 6.43607 26.0064 5.81427 25.9096C5.81427 26.9181 5.81427 27.9669 5.81427 29.0238C6.4603 29.0238 7.09017 29.0238 7.72813 29.0238C7.72813 28.0557 7.72813 27.1037 7.72813 26.2081Z" fill="#02E602"/>
<path d="M23 24C23 23.6609 23 23.3391 23 23C24.6667 23 26.325 23 28 23C28 23.3391 28 23.6609 28 24C26.3333 24 24.6834 24 23 24Z" fill="#02E602"/>
<path d="M23 26C23 25.6552 23 25.3362 23 25C24.6723 25 26.3193 25 28 25C28 25.319 28 25.6466 28 26C26.3445 26 24.6807 26 23 26Z" fill="#02E602"/>
<path d="M24 27C24 27.3391 24 27.6609 24 28C23.6667 28 23.3419 28 23 28C23 27.6696 23 27.3478 23 27C23.3248 27 23.6496 27 24 27Z" fill="#02E602"/>
<path d="M25 28C25 27.6522 25 27.3391 25 27C25.3248 27 25.6496 27 26 27C26 27.3217 26 27.6522 26 28C25.6752 28 25.3504 28 25 28Z" fill="#02E602"/>
<path d="M28 27C28 27.3391 28 27.6522 28 28C27.6667 28 27.3419 28 27 28C27 27.6696 27 27.3478 27 27C27.3162 27 27.641 27 28 27Z" fill="#02E602"/>
<path d="M26 5.48333C26.0083 7.40831 24.4416 8.99163 22.5167 8.99997C20.5917 9.0083 19.0084 7.43332 19 5.51667C18.9917 3.59169 20.5584 2.00837 22.4833 2.00003C24.4083 1.9917 25.9916 3.55835 26 5.48333ZM22.475 7.99998C23.8583 8.00831 24.9916 6.89165 25 5.51667C25.0083 4.15001 23.9 3.01669 22.5417 3.00002C21.1583 2.98336 20.0167 4.09168 20.0084 5.46667C19.9917 6.84999 21.1 7.99164 22.475 7.99998Z" fill="#02E602"/>
<path d="M7.50833 23.9999C6.675 24.0083 6 23.325 6 22.4917C6 21.675 6.675 21.0001 7.49167 21.0001C8.325 20.9917 9 21.675 9 22.5083C9 23.325 8.325 23.9916 7.50833 23.9999ZM7 22.475C6.98333 22.7417 7.2 22.9833 7.475 23C7.74167 23.0166 7.98333 22.8 8 22.525C8.01667 22.2583 7.8 22.0167 7.525 22C7.25833 21.9917 7.01667 22.2083 7 22.475Z" fill="#02E602"/>
</svg>
