<svg width="30" height="25" viewBox="0 0 30 25" fill="none" xmlns="http://www.w3.org/2000/svg">
<path d="M8.70427 22.5901C8.88291 23.4986 8.69615 24.2274 8.07906 24.7066C7.57564 25.106 7.03162 25.096 6.5282 24.6867C5.91923 24.1974 5.74872 23.4786 5.91923 22.5801C5.79743 22.5801 5.68376 22.5801 5.57821 22.5801C3.94615 22.5801 2.3141 22.5801 0.673933 22.5801C0.154275 22.5801 0 22.3904 0 21.7614C0 15.9109 0 10.0604 0 4.20993C0 3.60092 0.154274 3.41123 0.657693 3.41123C2.28974 3.41123 3.92179 3.41123 5.56196 3.41123C5.67564 3.41123 5.7812 3.41123 5.91111 3.41123C5.7406 2.48274 5.92735 1.74394 6.58504 1.26472C7.1047 0.885336 7.6406 0.915289 8.1359 1.34459C8.70427 1.8338 8.87479 2.53266 8.69615 3.41123C8.81795 3.41123 8.9235 3.41123 9.02906 3.41123C10.6692 3.41123 12.3175 3.41123 13.9577 3.41123C14.388 3.41123 14.4773 3.4911 14.6397 4.01026C15.1188 4.01026 15.5979 4.01026 16.085 4.01026C16.8645 4.01026 17.644 4.01026 18.4316 4.01026C18.797 4.01026 18.9919 4.2299 18.9919 4.6592C19 7.01537 19 9.37154 18.9919 11.7377C18.9919 12.187 18.797 12.3966 18.4073 12.3966C17.2624 12.3966 16.1175 12.3966 14.9645 12.3966C14.859 12.3966 14.7453 12.3966 14.6235 12.3966C14.6235 12.806 14.6235 13.1754 14.6235 13.5947C14.7291 13.5947 14.8427 13.5947 14.9483 13.5947C16.085 13.5947 17.2218 13.5947 18.3585 13.5947C18.8376 13.5947 19 13.7944 19 14.3834C19 16.6497 19 18.926 19 21.1923C19 21.7814 18.8376 21.9811 18.3585 21.9811C17.1244 21.9811 15.882 21.9811 14.6316 21.9811C14.5504 22.4802 14.2744 22.5901 13.909 22.5901C12.285 22.5801 10.6611 22.5801 9.03718 22.5801C8.93974 22.5901 8.83419 22.5901 8.70427 22.5901ZM13.6248 21.372C13.6248 15.7711 13.6248 10.2102 13.6248 4.64922C9.40256 4.64922 5.19658 4.64922 0.998719 4.64922C0.998719 10.2401 0.998719 15.8011 0.998719 21.372C5.21282 21.372 9.41068 21.372 13.6248 21.372ZM14.6479 5.23826C14.6479 7.245 14.6479 9.2118 14.6479 11.1786C15.7927 11.1786 16.9051 11.1786 18.0175 11.1786C18.0175 10.7793 18.0175 10.4099 18.0175 10.0005C17.5303 10.0005 17.0594 10.0005 16.5885 10.0005C16.5885 9.59119 16.5885 9.22179 16.5885 8.81245C17.0756 8.81245 17.5466 8.81245 18.0094 8.81245C18.0094 8.39313 18.0094 8.01375 18.0094 7.6144C17.5222 7.6144 17.0594 7.6144 16.5885 7.6144C16.5885 7.20507 16.5885 6.82568 16.5885 6.41635C17.0756 6.41635 17.5466 6.41635 18.0175 6.41635C18.0175 6.00701 18.0175 5.63761 18.0175 5.24824C16.8889 5.23826 15.7765 5.23826 14.6479 5.23826ZM14.6397 20.763C15.7846 20.763 16.9051 20.763 18.0175 20.763C18.0175 20.3637 18.0175 19.9943 18.0175 19.5849C17.5303 19.5849 17.0594 19.5849 16.5966 19.5849C16.5966 19.1656 16.5966 18.7862 16.5966 18.3869C17.0838 18.3869 17.5466 18.3869 18.0175 18.3869C18.0175 17.9776 18.0175 17.5982 18.0175 17.1888C17.5303 17.1888 17.0594 17.1888 16.5966 17.1888C16.5966 16.7795 16.5966 16.4101 16.5966 16.0008C17.0838 16.0008 17.5547 16.0008 18.0175 16.0008C18.0175 15.5815 18.0175 15.2021 18.0175 14.8327C16.8808 14.8327 15.7684 14.8327 14.6479 14.8327C14.6397 16.8095 14.6397 18.7763 14.6397 20.763ZM7.80299 2.8122C7.80299 2.49272 7.58376 2.22316 7.32393 2.22316C7.04786 2.22316 6.82863 2.51269 6.83675 2.84216C6.84487 3.16164 7.07222 3.42121 7.33205 3.41123C7.59188 3.41123 7.80299 3.14167 7.80299 2.8122ZM7.31581 23.7881C7.57564 23.7881 7.79487 23.5185 7.80299 23.1991C7.81111 22.8596 7.57564 22.5801 7.29957 22.5901C7.03974 22.6 6.82863 22.8796 6.82863 23.1991C6.83675 23.5185 7.05598 23.7881 7.31581 23.7881Z" fill="#02E602"/>
<path d="M30 0.0102612C30 0.407955 30 0.76685 30 1.17424C29.6676 1.17424 29.3273 1.15484 29.0028 1.18394C28.8761 1.19364 28.7416 1.26154 28.6466 1.35854C28.3854 1.63984 28.1401 1.95993 27.8393 2.31883C28.607 2.31883 29.2877 2.31883 30 2.31883C30 2.71652 30 3.08511 30 3.49251C29.6518 3.49251 29.2956 3.49251 28.9474 3.49251C28.3379 3.49251 27.7206 3.48281 27.1112 3.50221C26.9924 3.50221 26.8421 3.57981 26.755 3.6865C26.2564 4.2782 25.7657 4.86989 25.2829 5.48098C25.0929 5.72347 24.8871 5.85927 24.6022 5.83017C24.5072 5.82047 24.4044 5.83987 24.3094 5.83017C23.977 5.79137 23.7474 5.85927 23.5496 6.27637C23.233 6.93596 22.5365 7.14935 21.9508 6.89716C21.3572 6.64496 20.9773 5.94657 21.0011 5.15118C21.0248 4.40429 21.4601 3.7544 22.0774 3.56041C22.679 3.36641 23.328 3.67681 23.6287 4.3461C23.7395 4.59829 23.8582 4.65649 24.0798 4.67589C24.4598 4.70499 24.7209 4.54979 24.9821 4.22C26.0189 2.91052 27.0874 1.63014 28.1401 0.330355C28.3221 0.107259 28.5041 -0.00913913 28.7653 0.000560718C29.161 0.0199604 29.5647 0.0102612 30 0.0102612ZM22.8927 5.22878C22.8847 4.91839 22.671 4.65649 22.4178 4.66619C22.1645 4.66619 21.9508 4.92809 21.9508 5.23848C21.9508 5.56828 22.1803 5.83987 22.4415 5.82047C22.6869 5.81077 22.8927 5.54888 22.8927 5.22878Z" fill="#02E602"/>
<path d="M30 21.4889C30 21.8881 30 22.2483 30 22.6572C29.3047 22.6572 28.6093 22.6572 27.8192 22.6572C28.1668 23.0758 28.4513 23.436 28.7437 23.767C28.799 23.8254 28.9096 23.8254 28.9886 23.8351C29.3126 23.8449 29.6365 23.8351 29.9842 23.8351C29.9842 24.2245 29.9842 24.5945 29.9842 24.9936C29.4943 24.9936 29.0044 25.0131 28.5145 24.9839C28.3802 24.9742 28.2379 24.8184 28.1273 24.6821C27.0053 23.3094 25.8912 21.9368 24.7771 20.5641C24.6269 20.3791 23.9553 20.2331 23.7815 20.3596C23.7261 20.3986 23.7024 20.4862 23.6708 20.5641C23.3311 21.304 22.7068 21.6544 22.0747 21.45C21.4268 21.2455 20.9922 20.5641 21.0001 19.7463C21.0001 18.948 21.4347 18.2665 22.0589 18.0621C22.7068 17.8479 23.3311 18.1984 23.6866 18.948C23.7341 19.0551 23.8842 19.1719 23.9711 19.1525C24.7376 18.9967 25.2907 19.3666 25.7569 20.0968C26.0255 20.5154 26.3732 20.8464 26.6655 21.2456C26.8078 21.4403 26.9579 21.5181 27.1791 21.5181C28.1194 21.4792 29.0439 21.4889 30 21.4889ZM21.9562 19.7074C21.9404 20.0189 22.1458 20.2915 22.3987 20.3207C22.6594 20.3402 22.8965 20.0773 22.9044 19.7463C22.9123 19.4348 22.6989 19.1622 22.4461 19.1525C22.1932 19.1427 21.972 19.3958 21.9562 19.7074Z" fill="#02E602"/>
<path d="M30 7.01002C30 7.39029 30 7.73346 30 8.12301C29.5575 8.12301 29.115 8.14155 28.6725 8.11373C28.4118 8.10445 28.2221 8.17866 28.0562 8.41053C27.9219 8.59603 27.756 8.74442 27.5663 8.94847C27.8113 9.22672 28.0167 9.46787 28.2379 9.69046C28.3012 9.75539 28.4197 9.77394 28.5066 9.77394C28.9886 9.78321 29.4706 9.77394 29.9842 9.77394C29.9842 10.1357 29.9842 10.4881 29.9842 10.8777C29.3363 10.8777 28.6725 10.8869 28.0167 10.8684C27.9061 10.8684 27.7876 10.7385 27.7006 10.6365C27.4478 10.349 27.2107 10.0336 26.9342 9.69046C26.6734 10.0058 26.4364 10.2655 26.223 10.553C26.0334 10.8127 25.8043 10.9055 25.5198 10.8962C25.0062 10.8777 24.4926 10.8962 23.979 10.8869C23.821 10.8869 23.7419 10.9426 23.6629 11.1095C23.339 11.8144 22.7068 12.139 22.0668 11.9443C21.4268 11.7495 20.9922 11.091 21.0001 10.3119C21.008 9.55134 21.4347 8.91137 22.0747 8.7166C22.7147 8.52183 23.3469 8.84645 23.6708 9.56062C23.7499 9.72756 23.8289 9.78321 23.9869 9.78321C24.5005 9.77394 25.0694 9.93161 25.5119 9.72756C25.9465 9.52351 26.2468 8.94847 26.6102 8.54038C26.9658 8.12301 27.3056 7.68709 27.6848 7.29754C27.835 7.14914 28.0562 7.02857 28.2538 7.01929C28.8227 6.98219 29.3995 7.01002 30 7.01002ZM22.9044 10.349C22.9044 10.0522 22.691 9.80176 22.4382 9.79249C22.1853 9.78321 21.9641 10.0336 21.9562 10.3304C21.9483 10.6458 22.1695 10.9055 22.4382 10.9055C22.691 10.8962 22.9044 10.6458 22.9044 10.349Z" fill="#02E602"/>
<path d="M26.9447 15.294C27.2131 14.96 27.4341 14.6446 27.6947 14.3848C27.8368 14.2363 28.0499 14.125 28.2394 14.1157C28.8158 14.0786 29.4 14.1065 30 14.1065C30 14.4869 30 14.8301 30 15.2198C29.55 15.2198 29.1079 15.2384 28.6658 15.2105C28.421 15.2013 28.2315 15.2662 28.0736 15.4982C27.9394 15.6837 27.7815 15.8414 27.592 16.0456C27.8368 16.3239 28.0499 16.5837 28.2868 16.8249C28.3421 16.8806 28.4526 16.8806 28.5394 16.8806C29.021 16.8899 29.5026 16.8806 30 16.8806C30 17.2517 30 17.6043 30 17.9939C29.3526 17.9939 28.7131 18.0125 28.0736 17.9847C27.9394 17.9754 27.7894 17.8362 27.6789 17.7063C27.0236 16.9548 26.3841 16.1754 25.7209 15.4332C25.6183 15.3126 25.4367 15.2476 25.2867 15.2291C25.0341 15.192 24.7735 15.2384 24.5209 15.2198C24.0946 15.192 23.7551 15.2105 23.4709 15.7487C23.1472 16.3703 22.4209 16.4909 21.8445 16.194C21.2761 15.8971 20.9445 15.2105 21.0077 14.4776C21.0708 13.7817 21.5208 13.1972 22.1287 13.0395C22.713 12.8818 23.3525 13.2065 23.6367 13.8374C23.7393 14.0601 23.8419 14.125 24.0393 14.1157C24.5683 14.0972 25.1051 14.0879 25.6341 14.125C25.7999 14.1343 25.9973 14.2363 26.1315 14.3662C26.4078 14.626 26.6446 14.9415 26.9447 15.294ZM22.9024 14.6724C22.9103 14.3755 22.7051 14.1157 22.4524 14.1065C22.1998 14.0972 21.9787 14.3291 21.9629 14.626C21.9472 14.9415 22.1603 15.2105 22.4288 15.2105C22.6814 15.2198 22.8946 14.9786 22.9024 14.6724Z" fill="#02E602"/>
<path d="M2 11.9903C2 9.92917 2 7.85833 2 5.79722C2 5.175 2.15833 5 2.68333 5C4.55833 5 6.43333 5 8.30833 5C8.84167 5 9 5.18472 9 5.79722C9 9.92917 9 14.0611 9 18.1931C9 18.8153 8.84167 19 8.31667 19C6.44167 19 4.56667 19 2.69167 19C2.15833 19 2.00833 18.8153 2.00833 18.1931C2 16.1222 2 14.0514 2 11.9903ZM3.025 6.17639C3.025 10.075 3.025 13.9444 3.025 17.7944C4.69167 17.7944 6.34167 17.7944 7.98333 17.7944C7.98333 13.9056 7.98333 10.0458 7.98333 6.17639C6.325 6.17639 4.68333 6.17639 3.025 6.17639Z" fill="#02E602"/>
<path d="M5 17C4.65517 17 4.33621 17 4 17C4 13.9937 4 11.0157 4 8C4.31897 8 4.64655 8 5 8C5 10.9874 5 13.9843 5 17Z" fill="#02E602"/>
<path d="M6 11C6.33913 11 6.66087 11 7 11C7 13.3333 7 15.656 7 18C6.66087 18 6.33913 18 6 18C6 15.6667 6 13.3546 6 11Z" fill="#02E602"/>
<path d="M6 10C6 9.32571 6 8.67429 6 8C6.32759 8 6.65517 8 7 8C7 8.66286 7 9.31429 7 10C6.67241 10 6.35345 10 6 10Z" fill="#02E602"/>
</svg>
