<svg width="30" height="23" viewBox="0 0 30 23" fill="none" xmlns="http://www.w3.org/2000/svg">
<path d="M29.9867 21.7751C29.6267 22.7006 28.9467 23 28 23C19.3333 22.9728 10.6533 22.9728 1.98667 23C1.02667 23 0.36 22.687 0 21.7751C0 14.9296 0 8.07041 0 1.22485C0.36 0.299408 1.04 0 1.98667 0C10.6667 0.0272189 19.3333 0.0272189 28.0133 0C28.9733 0 29.64 0.313018 30 1.22485C29.9867 8.07041 29.9867 14.9296 29.9867 21.7751ZM14.9867 22.0065C19.32 22.0065 23.6533 22.0065 27.9867 22.0065C28.9067 22.0065 29.0267 21.884 29.0267 20.9586C29.0267 14.6574 29.0267 8.3426 29.0267 2.04142C29.0267 1.11598 28.9067 0.993489 27.9867 0.993489C19.32 0.993489 10.6533 0.993489 1.98667 0.993489C1.06667 0.993489 0.946668 1.11598 0.946668 2.05503C0.946668 8.35621 0.946668 14.671 0.946668 20.9722C0.946668 21.8976 1.06667 22.0201 1.98667 22.0201C6.32 22.0065 10.6533 22.0065 14.9867 22.0065Z" fill="#02E602"/>
<path d="M10.2358 10.9867C11.0883 7.65279 12.8476 6.01434 15.4865 6.00009C18.1389 5.98584 19.8846 7.62429 20.7778 10.9867C21.901 10.9867 23.0513 10.9867 24.188 10.9867C24.567 10.9867 25 10.9867 25 11.4996C25 12.0125 24.5805 12.0125 24.2016 12.0125C23.0513 11.9982 21.9145 12.0125 20.7913 12.0125C19.8305 15.3606 18.193 16.9563 15.703 16.9991C12.9558 17.0418 11.386 15.6456 10.2087 12.0125C9.23433 12.0125 8.24644 12.0125 7.25855 12.0125C7.05556 12.0125 6.8255 12.0837 6.66311 11.9982C6.41952 11.8843 6.21652 11.6563 6 11.4711C6.21652 11.3144 6.41952 11.0294 6.64957 11.0152C7.54274 10.9582 8.44943 10.9867 9.35613 10.9867C9.64032 10.9867 9.9245 10.9867 10.2358 10.9867ZM11.3184 10.9724C14.1061 10.9724 16.8939 10.9724 19.6816 10.9724C19.4786 8.72134 17.6517 7.01166 15.4594 7.0259C13.3212 7.0259 11.4943 8.74983 11.3184 10.9724ZM19.6816 12.0695C16.8939 12.0695 14.0926 12.0695 11.2913 12.0695C11.7108 14.5628 13.4972 16.0872 15.7977 15.9875C17.787 15.8878 19.4922 14.1496 19.6816 12.0695Z" fill="#02E602"/>
<path d="M2.9212 2.91771C2.9212 4.09331 2.9212 5.16555 2.9212 6.2378C2.9212 6.59952 2.93417 7 2.45439 7C1.98757 6.98708 2.00054 6.57368 2.00054 6.22488C2.00054 5.08804 2.0135 3.9512 2.00054 2.80144C1.98757 2.23302 2.20801 1.98756 2.80449 2.00048C3.97153 2.02632 5.13857 1.98756 6.29264 2.02632C6.55198 2.03924 6.96693 2.28469 6.99286 2.46556C7.0577 2.87895 6.66868 2.93062 6.31857 2.93062C5.21637 2.91771 4.12714 2.91771 2.9212 2.91771Z" fill="#02E602"/>
<path d="M27.0786 20.0565C27.0786 18.8939 27.0786 17.8217 27.0786 16.7625C27.0786 16.4137 27.0527 15.9874 27.5325 16.0003C27.9994 16.0003 27.9994 16.4137 27.9994 16.7625C27.9994 17.8992 27.9864 19.036 27.9994 20.1857C28.0124 20.7412 27.8178 21.0125 27.2083 20.9996C26.0412 20.9737 24.874 21.0125 23.7198 20.9737C23.4605 20.9608 23.0325 20.7283 23.0066 20.5474C22.9417 20.0695 23.3697 20.0695 23.7328 20.0695C24.8092 20.0565 25.8855 20.0565 27.0786 20.0565Z" fill="#02E602"/>
<path d="M27.066 2.93465C25.888 2.93465 24.8135 2.93465 23.7391 2.93465C23.4025 2.93465 23.0271 2.94763 23.0012 2.51949C22.9753 2.03946 23.3637 2.00054 23.7262 2.00054C24.8912 2.00054 26.0563 2.01351 27.2084 2.00054C27.7521 1.98756 27.998 2.20812 27.998 2.76599C27.9851 3.94661 28.0239 5.1402 27.9721 6.32081C27.9592 6.56731 27.7003 6.98248 27.5061 6.99545C27.0789 7.04735 27.066 6.64516 27.066 6.30784C27.066 5.20506 27.066 4.11527 27.066 2.93465Z" fill="#02E602"/>
<path d="M2.92003 20.054C4.08566 20.054 5.16062 20.054 6.23558 20.054C6.58527 20.054 7.01266 20.0281 6.99971 20.5073C6.99971 20.9606 6.58527 20.9865 6.22263 20.9865C5.08291 20.9865 3.94319 20.9736 2.80347 20.9995C2.23361 21.0124 1.98753 20.7793 2.00048 20.1965C2.02639 19.0827 2.00049 17.9559 2.01344 16.8421C2.01344 16.4795 1.96163 16.0132 2.46673 16.0003C2.99774 15.9873 2.93298 16.4536 2.93298 16.8162C2.92003 17.8523 2.92003 18.9014 2.92003 20.054Z" fill="#02E602"/>
</svg>
