<svg width="30" height="22" viewBox="0 0 30 22" fill="none" xmlns="http://www.w3.org/2000/svg">
<path d="M30 11.1434C29.8449 11.5378 29.5346 11.6334 29.1289 11.6334C23.2941 11.6215 17.4711 11.6334 11.6362 11.6215C11.3737 11.6215 11.2544 11.6812 11.1709 11.9561C10.789 13.1872 9.6316 14.0118 8.36678 13.9999C7.11389 13.9879 5.95646 13.1513 5.5627 11.9322C5.47917 11.6812 5.37178 11.6334 5.13313 11.6334C3.71319 11.6454 2.28132 11.6334 0.861377 11.6334C0.742054 11.6334 0.622732 11.6334 0.515342 11.6215C0.240899 11.5737 0.0261196 11.3346 0.00225509 11.0598C-0.0216095 10.7729 0.145443 10.4861 0.431818 10.4024C0.563073 10.3666 0.706259 10.3546 0.837514 10.3546C2.29325 10.3546 3.74899 10.3546 5.20473 10.3546C5.34792 10.3546 5.46724 10.3785 5.53883 10.1753C5.96839 8.80089 7.0781 7.98818 8.42644 8.00013C9.71513 8.01208 10.8487 8.90846 11.2544 10.2351C11.2663 10.259 11.2663 10.2949 11.2902 10.3546C11.4095 10.3546 11.5288 10.3546 11.6482 10.3546C17.4711 10.3546 23.2821 10.3546 29.1051 10.3546C29.4988 10.3546 29.8091 10.4502 30 10.8088C30 10.9163 30 11.0239 30 11.1434ZM10.097 10.9761C10.097 10.0319 9.33329 9.26701 8.37871 9.26701C7.44799 9.26701 6.6724 10.0558 6.6724 10.988C6.6724 11.9322 7.43606 12.7091 8.37871 12.7091C9.32136 12.721 10.097 11.9322 10.097 10.9761Z" fill="#02E602"/>
<path d="M23.4702 3.62645C21.5454 3.62645 19.6206 3.62645 17.6958 3.62645C17.4925 3.62645 17.3969 3.66223 17.3252 3.88885C16.9426 5.16508 15.8068 6 14.5037 6C13.2603 6 12.0887 5.16508 11.6822 3.94848C11.5985 3.69801 11.5029 3.62645 11.2399 3.62645C7.80868 3.63837 4.37748 3.63837 0.946286 3.63837C0.814777 3.63837 0.695222 3.63837 0.563713 3.62645C0.252873 3.59066 0.0257224 3.34019 0.00181167 3.042C-0.0220991 2.73189 0.193096 2.44563 0.503936 2.386C0.635445 2.36214 0.778912 2.36214 0.910422 2.36214C4.37748 2.36214 7.83259 2.36214 11.2997 2.36214C11.5268 2.36214 11.6344 2.31443 11.7061 2.07588C12.0767 0.859285 13.2006 0.0243673 14.4678 0.000512435C15.7231 -0.0233424 16.9067 0.78772 17.3132 2.00432C17.4089 2.3025 17.5523 2.37407 17.8512 2.37407C21.6052 2.36214 25.3592 2.36214 29.1132 2.37407C29.2566 2.37407 29.4121 2.37407 29.5436 2.40985C29.8425 2.48141 30.0218 2.74382 29.9979 3.06586C29.974 3.36404 29.7707 3.60259 29.4718 3.63837C29.3523 3.6503 29.2327 3.6503 29.1251 3.6503C27.2481 3.62644 25.3592 3.62645 23.4702 3.62645ZM14.5276 1.31253C13.5592 1.31253 12.818 2.06395 12.818 3.01815C12.818 3.97234 13.5951 4.74762 14.5635 4.73569C15.5079 4.72377 16.2731 3.94848 16.2731 3.00622C16.2492 2.05203 15.4721 1.3006 14.5276 1.31253Z" fill="#02E602"/>
<path d="M9.16303 18.3525C11.974 18.3525 14.7849 18.3525 17.5839 18.3525C17.7992 18.3525 17.9069 18.3169 17.9787 18.0911C18.3614 16.8318 19.4739 16.012 20.7777 16.0001C22.0336 15.9882 23.2178 16.8318 23.6245 18.0555C23.7082 18.3169 23.8279 18.3644 24.079 18.3644C25.8015 18.3525 27.524 18.3525 29.2464 18.3644C29.7249 18.3644 30 18.602 30 18.9941C30 19.303 29.8086 19.5525 29.4976 19.6237C29.378 19.6475 29.2464 19.6475 29.1149 19.6475C27.4044 19.6475 25.6939 19.6475 23.9834 19.6475C23.78 19.6475 23.6843 19.695 23.6245 19.9089C23.2417 21.1563 22.1174 21.988 20.8255 21.9999C19.5576 22.0118 18.3614 21.1563 17.9787 19.9208C17.9069 19.695 17.8112 19.6475 17.5959 19.6475C12.0338 19.6475 6.48365 19.6475 0.921539 19.6475C0.789962 19.6475 0.646421 19.6475 0.514844 19.6237C0.191883 19.5643 -0.0114611 19.2911 0.00050047 18.9822C0.012462 18.6733 0.251691 18.4119 0.574652 18.3881C0.694267 18.3763 0.813886 18.3763 0.921539 18.3763C3.64877 18.3525 6.39992 18.3525 9.16303 18.3525ZM20.7896 17.3189C19.8327 17.307 19.0552 18.0674 19.0432 18.9941C19.0313 19.9445 19.7968 20.7286 20.7657 20.7286C21.7226 20.7286 22.4882 19.992 22.5001 19.0297C22.5121 18.1149 21.7346 17.3308 20.7896 17.3189Z" fill="#02E602"/>
</svg>
