<svg width="30" height="28" viewBox="0 0 30 28" fill="none" xmlns="http://www.w3.org/2000/svg">
<path d="M4.72414 9.14286C5.4607 9.14286 6.18073 8.9334 6.79316 8.54096C7.40559 8.14853 7.88292 7.59075 8.16479 6.93816C8.44667 6.28556 8.52042 5.56747 8.37672 4.87468C8.23302 4.18189 7.87833 3.54552 7.3575 3.04605C6.83667 2.54658 6.17309 2.20643 5.45068 2.06863C4.72827 1.93082 3.97947 2.00155 3.29897 2.27186C2.61848 2.54217 2.03685 2.99993 1.62763 3.58725C1.21842 4.17457 1 4.86507 1 5.57143C1.00111 6.5183 1.39383 7.42609 2.092 8.09564C2.79017 8.76518 3.73678 9.14179 4.72414 9.14286ZM4.72414 3.78572C5.09242 3.78572 5.45243 3.89045 5.75865 4.08666C6.06486 4.28288 6.30353 4.56177 6.44447 4.88807C6.5854 5.21436 6.62228 5.57341 6.55043 5.91981C6.47858 6.2662 6.30124 6.58438 6.04082 6.83412C5.78041 7.08386 5.44862 7.25393 5.08741 7.32283C4.7262 7.39173 4.3518 7.35637 4.01156 7.22121C3.67131 7.08606 3.38049 6.85718 3.17589 6.56352C2.97128 6.26986 2.86207 5.92461 2.86207 5.57143C2.86263 5.09799 3.05898 4.6441 3.40807 4.30933C3.75716 3.97456 4.23046 3.78625 4.72414 3.78572ZM14.5 2C13.7634 2 13.0434 2.20946 12.431 2.6019C11.8185 2.99433 11.3412 3.55211 11.0593 4.2047C10.7775 4.8573 10.7037 5.57539 10.8474 6.26818C10.9911 6.96097 11.3458 7.59734 11.8666 8.09681C12.3875 8.59628 13.051 8.93643 13.7735 9.07423C14.4959 9.21204 15.2447 9.14131 15.9252 8.871C16.6057 8.60069 17.1873 8.14293 17.5965 7.55561C18.0057 6.96829 18.2241 6.27779 18.2241 5.57143C18.223 4.62455 17.8303 3.71677 17.1321 3.04722C16.434 2.37768 15.4874 2.00106 14.5 2ZM14.5 7.35714C14.1317 7.35714 13.7717 7.25241 13.4655 7.0562C13.1593 6.85998 12.9206 6.58109 12.7797 6.25479C12.6387 5.9285 12.6019 5.56945 12.6737 5.22305C12.7456 4.87666 12.9229 4.55848 13.1833 4.30874C13.4437 4.059 13.7755 3.88893 14.1367 3.82003C14.4979 3.75113 14.8723 3.78649 15.2126 3.92164C15.5528 4.0568 15.8436 4.28568 16.0483 4.57934C16.2529 4.873 16.3621 5.21825 16.3621 5.57143C16.3615 6.04487 16.1652 6.49876 15.8161 6.83353C15.467 7.1683 14.9937 7.35661 14.5 7.35714ZM24.2759 9.14286C25.0124 9.14286 25.7325 8.9334 26.3449 8.54096C26.9573 8.14853 27.4346 7.59075 27.7165 6.93816C27.9984 6.28556 28.0721 5.56747 27.9284 4.87468C27.7847 4.18189 27.4301 3.54552 26.9092 3.04605C26.3884 2.54658 25.7248 2.20643 25.0024 2.06863C24.28 1.93082 23.5312 2.00155 22.8507 2.27186C22.1702 2.54217 21.5886 2.99993 21.1794 3.58725C20.7701 4.17457 20.5517 4.86507 20.5517 5.57143C20.5528 6.5183 20.9456 7.42609 21.6437 8.09564C22.3419 8.76518 23.2885 9.14179 24.2759 9.14286ZM24.2759 3.78572C24.6441 3.78572 25.0042 3.89045 25.3104 4.08666C25.6166 4.28288 25.8553 4.56177 25.9962 4.88807C26.1371 5.21436 26.174 5.57341 26.1022 5.91981C26.0303 6.2662 25.853 6.58438 25.5925 6.83412C25.3321 7.08386 25.0003 7.25393 24.6391 7.32283C24.2779 7.39173 23.9035 7.35637 23.5633 7.22121C23.223 7.08606 22.9322 6.85718 22.7276 6.56352C22.523 6.26986 22.4138 5.92461 22.4138 5.57143C22.4143 5.09799 22.6107 4.6441 22.9598 4.30933C23.3089 3.97456 23.7822 3.78625 24.2759 3.78572ZM4.72414 10.9286C3.98757 10.9286 3.26755 11.138 2.65512 11.5305C2.04269 11.9229 1.56536 12.4807 1.28348 13.1333C1.00161 13.7859 0.927863 14.504 1.07156 15.1968C1.21526 15.8895 1.56995 16.5259 2.09078 17.0254C2.61161 17.5249 3.27518 17.865 3.9976 18.0028C4.72001 18.1406 5.46881 18.0699 6.1493 17.7996C6.8298 17.5293 7.41143 17.0715 7.82065 16.4842C8.22986 15.8969 8.44828 15.2064 8.44828 14.5C8.44717 13.5531 8.05445 12.6453 7.35628 11.9758C6.65811 11.3063 5.7115 10.9296 4.72414 10.9286ZM4.72414 16.2857C4.35586 16.2857 3.99585 16.181 3.68963 15.9848C3.38341 15.7886 3.14475 15.5097 3.00381 15.1834C2.86288 14.8571 2.826 14.498 2.89785 14.1516C2.9697 13.8052 3.14704 13.487 3.40746 13.2373C3.66787 12.9876 3.99966 12.8175 4.36087 12.7486C4.72207 12.6797 5.09647 12.7151 5.43672 12.8502C5.77697 12.9854 6.06779 13.2143 6.27239 13.5079C6.477 13.8016 6.58621 14.1468 6.58621 14.5C6.58565 14.9734 6.38929 15.4273 6.04021 15.7621C5.69112 16.0969 5.21782 16.2852 4.72414 16.2857ZM14.5 10.9286C13.7634 10.9286 13.0434 11.138 12.431 11.5305C11.8185 11.9229 11.3412 12.4807 11.0593 13.1333C10.7775 13.7859 10.7037 14.504 10.8474 15.1968C10.9911 15.8895 11.3458 16.5259 11.8666 17.0254C12.3875 17.5249 13.051 17.865 13.7735 18.0028C14.4959 18.1406 15.2447 18.0699 15.9252 17.7996C16.6057 17.5293 17.1873 17.0715 17.5965 16.4842C18.0057 15.8969 18.2241 15.2064 18.2241 14.5C18.223 13.5531 17.8303 12.6453 17.1321 11.9758C16.434 11.3063 15.4874 10.9296 14.5 10.9286ZM14.5 16.2857C14.1317 16.2857 13.7717 16.181 13.4655 15.9848C13.1593 15.7886 12.9206 15.5097 12.7797 15.1834C12.6387 14.8571 12.6019 14.498 12.6737 14.1516C12.7456 13.8052 12.9229 13.487 13.1833 13.2373C13.4437 12.9876 13.7755 12.8175 14.1367 12.7486C14.4979 12.6797 14.8723 12.7151 15.2126 12.8502C15.5528 12.9854 15.8436 13.2143 16.0483 13.5079C16.2529 13.8016 16.3621 14.1468 16.3621 14.5C16.3615 14.9734 16.1652 15.4273 15.8161 15.7621C15.467 16.0969 14.9937 16.2852 14.5 16.2857ZM24.2759 10.9286C23.5393 10.9286 22.8193 11.138 22.2068 11.5305C21.5944 11.9229 21.1171 12.4807 20.8352 13.1333C20.5533 13.7859 20.4796 14.504 20.6233 15.1968C20.767 15.8895 21.1217 16.5259 21.6425 17.0254C22.1633 17.5249 22.8269 17.865 23.5493 18.0028C24.2717 18.1406 25.0205 18.0699 25.701 17.7996C26.3815 17.5293 26.9632 17.0715 27.3724 16.4842C27.7816 15.8969 28 15.2064 28 14.5C27.9989 13.5531 27.6062 12.6453 26.908 11.9758C26.2098 11.3063 25.2632 10.9296 24.2759 10.9286ZM24.2759 16.2857C23.9076 16.2857 23.5476 16.181 23.2414 15.9848C22.9351 15.7886 22.6965 15.5097 22.5555 15.1834C22.4146 14.8571 22.3777 14.498 22.4496 14.1516C22.5214 13.8052 22.6988 13.487 22.9592 13.2373C23.2196 12.9876 23.5514 12.8175 23.9126 12.7486C24.2738 12.6797 24.6482 12.7151 24.9884 12.8502C25.3287 12.9854 25.6195 13.2143 25.8241 13.5079C26.0287 13.8016 26.1379 14.1468 26.1379 14.5C26.1374 14.9734 25.941 15.4273 25.5919 15.7621C25.2428 16.0969 24.7695 16.2852 24.2759 16.2857ZM24.2759 19.8571C23.5393 19.8571 22.8193 20.0666 22.2068 20.459C21.5944 20.8515 21.1171 21.4093 20.8352 22.0618C20.5533 22.7144 20.4796 23.4325 20.6233 24.1253C20.767 24.8181 21.1217 25.4545 21.6425 25.954C22.1633 26.4534 22.8269 26.7936 23.5493 26.9314C24.2717 27.0692 25.0205 26.9985 25.701 26.7281C26.3815 26.4578 26.9632 26.0001 27.3724 25.4127C27.7816 24.8254 28 24.1349 28 23.4286C27.9989 22.4817 27.6062 21.5739 26.908 20.9044C26.2098 20.2348 25.2632 19.8582 24.2759 19.8571ZM24.2759 25.2143C23.9076 25.2143 23.5476 25.1096 23.2414 24.9133C22.9351 24.7171 22.6965 24.4382 22.5555 24.1119C22.4146 23.7856 22.3777 23.4266 22.4496 23.0802C22.5214 22.7338 22.6988 22.4156 22.9592 22.1659C23.2196 21.9161 23.5514 21.7461 23.9126 21.6772C24.2738 21.6083 24.6482 21.6436 24.9884 21.7788C25.3287 21.9139 25.6195 22.1428 25.8241 22.4365C26.0287 22.7301 26.1379 23.0754 26.1379 23.4286C26.1374 23.902 25.941 24.3559 25.5919 24.6907C25.2428 25.0254 24.7695 25.2138 24.2759 25.2143ZM2.86207 22.9821H4.72414V24.7679H2.86207V22.9821ZM8.44828 22.9821H10.3103V24.7679H8.44828V22.9821ZM14.0345 22.9821H15.8966V24.7679H14.0345V22.9821Z" fill="#02E602"/>
</svg>
