<svg width="30" height="42" viewBox="0 0 30 42" fill="none" xmlns="http://www.w3.org/2000/svg">
<path d="M17.3414 29.3998C17.3414 29.6098 17.3414 29.7615 17.3414 29.9248C17.3414 32.5732 17.3654 35.2332 17.3293 37.8815C17.3052 40.1915 15.3302 42.0231 12.9579 41.9998C10.6095 41.9764 8.69477 40.1448 8.67068 37.8465C8.6466 35.2098 8.67068 32.5732 8.65864 29.9248C8.65864 29.7615 8.65864 29.6098 8.65864 29.3998C8.02038 29.3998 7.40621 29.3998 6.79203 29.3998C5.29875 29.3998 4.22696 28.7348 3.79342 27.5332C3.35989 26.3432 3.74525 25.1999 4.8893 24.2899C4.92543 24.2665 4.94951 24.2199 4.98564 24.1732C4.52802 23.6015 4.34738 22.9482 4.31125 22.2249C4.27513 21.5482 3.66095 21.0466 2.95044 20.9999C1.05975 20.8716 0 19.7749 0 17.9316C0 12.9733 0 8.01496 0 3.05665C0 1.155 1.18018 0 3.13108 0C9.70634 0 16.2816 0 22.8569 0C24.8078 0 26 1.155 26 3.05665C26 8.02663 26 12.9966 26 17.9666C26 19.7632 24.9162 20.8832 23.0616 20.9999C22.327 21.0466 21.7128 21.5716 21.6887 22.2599C21.6526 22.9715 21.4599 23.6015 21.0023 24.1849C21.6887 24.6749 22.1825 25.2815 22.327 26.0982C22.6281 27.7782 21.3395 29.3415 19.5692 29.3882C18.8587 29.4115 18.1362 29.3998 17.3414 29.3998ZM13.0181 1.39999C9.70635 1.39999 6.39463 1.39999 3.08291 1.39999C2.01112 1.39999 1.43307 1.95999 1.43307 2.98665C1.43307 7.99163 1.43307 12.9849 1.43307 17.9899C1.43307 19.0282 1.9509 19.5532 3.01065 19.5999C4.49189 19.6816 5.67207 20.8132 5.75637 22.2366C5.81658 23.2982 6.34645 23.7882 7.44233 23.7882C11.1394 23.7882 14.8485 23.7882 18.5456 23.7882C19.6174 23.7882 20.1593 23.2865 20.2195 22.2599C20.2918 20.8249 21.4599 19.6816 22.9412 19.5882C24.0611 19.5182 24.5549 19.0166 24.5549 17.9199C24.5549 12.9616 24.5549 8.00329 24.5549 3.05665C24.5549 1.92499 24.013 1.38833 22.8569 1.38833C19.5813 1.39999 16.3057 1.39999 13.0181 1.39999ZM10.1519 29.4232C10.1399 29.4932 10.1158 29.5282 10.1158 29.5748C10.1158 32.3515 10.0797 35.1398 10.1399 37.9165C10.1519 38.4415 10.4169 39.0248 10.742 39.4681C11.4525 40.4598 12.7411 40.7981 13.9213 40.4248C15.0773 40.0515 15.8842 39.0131 15.8962 37.8231C15.9083 35.1048 15.8962 32.3748 15.8962 29.6565C15.8962 29.5865 15.8842 29.5165 15.8842 29.4348C13.9574 29.4232 12.0787 29.4232 10.1519 29.4232ZM13.006 27.9999C15.1616 27.9999 17.3052 28.0115 19.4609 27.9999C20.3038 27.9999 20.9421 27.3699 20.9421 26.5999C20.9421 25.8299 20.3038 25.2115 19.4609 25.1999C15.1616 25.1882 10.8624 25.1999 6.55118 25.1999C6.32237 25.1999 6.06948 25.2699 5.86475 25.3632C5.26262 25.6432 4.96156 26.2849 5.11811 26.8915C5.28671 27.5565 5.82862 27.9882 6.56322 27.9882C8.70681 27.9999 10.8624 27.9999 13.006 27.9999Z" fill="#02E602"/>
<path d="M28.4874 5.99633C28.2354 5.99633 27.9833 6.00459 27.7313 5.99633C27.3028 5.97152 26.9878 5.75655 27.0004 5.49196C27.013 5.23564 27.3028 5.02894 27.7187 5.0124C28.2354 4.99587 28.752 4.99587 29.2687 5.0124C29.6972 5.02067 30.0122 5.25218 29.9996 5.51677C29.987 5.77308 29.6972 5.97152 29.2813 5.99633C29.0293 6.00459 28.752 5.99633 28.4874 5.99633Z" fill="#02E602"/>
<path d="M29.9997 2.94067C29.8954 3.05387 29.7389 3.33058 29.4911 3.44378C28.9956 3.67018 28.461 3.80854 27.9394 3.95948C27.5351 4.08525 27.2352 3.90916 27.0787 3.55698C26.9092 3.17965 27.0135 2.80231 27.3917 2.6388C27.9394 2.38724 28.5262 2.18599 29.113 2.02248C29.5694 1.8967 30.0128 2.31177 29.9997 2.94067Z" fill="#02E602"/>
<path d="M27.6708 7C28.4314 7.28437 29.1018 7.48579 29.7206 7.79386C30.0429 7.94789 30.0687 8.3152 29.8882 8.62327C29.7077 8.91949 29.437 9.08537 29.0502 8.95504C28.5217 8.78915 27.9802 8.64697 27.4645 8.44554C27.1035 8.30336 26.8973 7.99529 27.052 7.65168C27.168 7.4147 27.4516 7.22513 27.6708 7Z" fill="#02E602"/>
<path d="M13 18C10 18 6.98809 18 3.98809 18C3.22619 18 3 17.7841 3 17.0682C3 12.6932 3 8.31818 3 3.94318C3 3.21591 3.22619 3 3.97619 3C9.9881 3 16 3 22.0119 3C22.7738 3 23 3.21591 23 3.93182C23 8.30682 23 12.6818 23 17.0568C23 17.7841 22.7738 18 22.0238 18C19.0119 18 16.0119 18 13 18ZM21.5357 16.6136C21.5357 12.5114 21.5357 8.45454 21.5357 4.39773C15.8214 4.39773 10.131 4.39773 4.44048 4.39773C4.44048 8.48864 4.44048 12.5455 4.44048 16.6364C5.03572 16.6364 5.61905 16.6364 6.19047 16.6364C6.78571 16.6364 7.36905 16.6364 7.98809 16.6364C7.98809 15.875 7.97619 15.1705 7.98809 14.4659C8.02381 13.2727 8.5119 12.2727 9.46428 11.4886C9.64286 11.3409 9.83333 11.2045 10.0238 11.0682C8.80952 9.15909 9.60714 7.39773 10.6786 6.54546C11.9762 5.5 13.8571 5.46591 15.2024 6.47727C16.6429 7.55682 16.9167 9.19318 15.9524 11.1023C17.5714 12.0795 18.1071 13.5455 17.9881 15.2955C17.9643 15.7273 17.9881 16.1705 17.9881 16.625C19.2024 16.6136 20.3571 16.6136 21.5357 16.6136ZM16.5714 16.6136C16.5714 15.8864 16.5833 15.1932 16.5714 14.5C16.5476 13.375 15.8333 12.4205 14.7143 12.0341C13.8571 11.7386 13.75 11.25 14.4167 10.6591C15.3452 9.82955 15.3929 8.53409 14.5238 7.69318C13.6786 6.875 12.3214 6.88636 11.4881 7.70455C10.631 8.54545 10.6905 9.82955 11.619 10.6591C12.25 11.2159 12.1429 11.7273 11.3214 12.0114C10.2619 12.3864 9.60714 13.1136 9.47619 14.1705C9.38095 14.9659 9.45238 15.7727 9.45238 16.6023C11.8214 16.6136 14.1667 16.6136 16.5714 16.6136Z" fill="#02E602"/>
<path d="M8.48117 20.9917C8.23019 20.9917 7.9792 21 7.72822 20.9917C7.30154 20.9668 6.98781 20.751 7.00036 20.4855C7.01291 20.2282 7.31409 20.0207 7.72822 20.0124C8.24274 19.9959 8.75726 19.9959 9.27178 20.0124C9.69846 20.0207 10.0122 20.2531 9.99964 20.5187C9.98709 20.7759 9.68591 20.9751 9.27178 21C9.0208 21 8.74471 20.9917 8.48117 20.9917Z" fill="#02E602"/>
<path d="M12.5126 20.0037C12.7646 20.0037 13.0167 19.9954 13.2687 20.0037C13.6972 20.0285 14.0122 20.2435 13.9996 20.508C13.987 20.7644 13.6972 20.9711 13.2813 20.9876C12.7646 21.0041 12.248 21.0041 11.7313 20.9876C11.3028 20.9793 10.9878 20.7478 11.0004 20.4832C11.013 20.2269 11.3028 20.0285 11.7187 20.0037C11.9833 19.9954 12.248 20.0037 12.5126 20.0037Z" fill="#02E602"/>
<path d="M17.4748 20.9963C17.2354 20.9963 17.0085 21.0046 16.7691 20.9963C16.328 20.9798 16.013 20.7814 16.0004 20.5085C15.9878 20.2439 16.3028 20.0207 16.7313 20.0124C17.248 19.9959 17.7646 19.9959 18.2813 20.0124C18.6972 20.0289 18.987 20.2356 18.9996 20.492C19.0122 20.7565 18.6972 20.9715 18.2687 20.9963C18.0167 21.0046 17.7394 20.9963 17.4748 20.9963Z" fill="#02E602"/>
</svg>
